SplineFontDB: 3.0
FontName: AbhayaLibre-Regular
FullName: Abhaya Libre Regular
FamilyName: Abhaya Libre
Weight: Regular
Copyright: Copyright (c) 2000, Modular Infotech, Pune, INDIA.
Version: 1.00
ItalicAngle: 0
UnderlinePosition: -282
UnderlineWidth: 20
Ascent: 700
Descent: 300
InvalidEm: 0
sfntRevision: 0x00010000
LayerCount: 2
Layer: 0 0 "Back" 1
Layer: 1 0 "Fore" 0
XUID: [1021 779 -1439063335 3738324]
FSType: 0
OS2Version: 3
OS2_WeightWidthSlopeOnly: 0
OS2_UseTypoMetrics: 1
CreationTime: 1442707200
ModificationTime: 1444148503
PfmFamily: 17
TTFWeight: 400
TTFWidth: 5
LineGap: 127
VLineGap: 0
Panose: 2 0 6 0 0 0 0 0 0 0
OS2TypoAscent: 700
OS2TypoAOffset: 0
OS2TypoDescent: -300
OS2TypoDOffset: 0
OS2TypoLinegap: 127
OS2WinAscent: 825
OS2WinAOffset: 0
OS2WinDescent: 302
OS2WinDOffset: 0
HheadAscent: 700
HheadAOffset: 0
HheadDescent: -300
HheadDOffset: 0
OS2SubXSize: 700
OS2SubYSize: 650
OS2SubXOff: 0
OS2SubYOff: 200
OS2SupXSize: 700
OS2SupYSize: 650
OS2SupXOff: 0
OS2SupYOff: 500
OS2StrikeYSize: 50
OS2StrikeYPos: 250
OS2CapHeight: 604
OS2XHeight: 411
OS2Vendor: 'MODI'
OS2CodePages: 00000003.00000000
OS2UnicodeRanges: 80108003.00000000.00000000.00000000
Lookup: 4 0 0 "'akhn' Akhand in Tamil lookup 0" { "'akhn' Akhand in Tamil lookup 0 subtable"  } ['akhn' ('taml' <'dflt' > ) ]
Lookup: 4 0 0 "'abvs' Above Base Substitutions in Tamil lookup 1" { "'abvs' Above Base Substitutions in Tamil lookup 1 subtable"  } ['abvs' ('taml' <'dflt' > ) ]
Lookup: 4 0 0 "'abvs' Above Base Substitutions in Tamil lookup 2" { "'abvs' Above Base Substitutions in Tamil lookup 2 subtable"  } ['abvs' ('taml' <'dflt' > ) ]
Lookup: 4 0 0 "'blws' Below Base Substitutions in Tamil lookup 3" { "'blws' Below Base Substitutions in Tamil lookup 3 subtable"  } ['blws' ('taml' <'dflt' > ) ]
Lookup: 4 0 0 "'haln' Halant Forms in Tamil lookup 4" { "'haln' Halant Forms in Tamil lookup 4 subtable"  } ['haln' ('taml' <'dflt' > ) ]

StartChar: .notdef
Encoding: 256 -1 0
Width: 800
GlyphClass: 2
Flags: HW
LayerCount: 2
Back
Fore
SplineSet
100 0 m 1
 100 700 l 1
 700 700 l 1
 700 0 l 1
 100 0 l 1
 100 0 l 1
150 50 m 1
 650 50 l 1
 650 650 l 1
 150 650 l 1
 150 50 l 1
 150 50 l 1
EndSplineSet
EndChar

StartChar: uni0B83
Encoding: 259 2947 4
Width: 685
GlyphClass: 2
Flags: HW
LayerCount: 2
Back
Fore
SplineSet
304 136 m 1
 304 97.3333333333 290.666666667 64 264 36 c 0
 238 8.66666666667 206.333333333 -5 169 -5 c 0
 127.666666667 -5 94.6666666667 8 70 34 c 0
 45.3333333333 59.3333333333 33 93.3333333333 33 136 c 0
 33 179.333333333 45.3333333333 214 70 240 c 256
 94.6666666667 266 127.666666667 279 169 279 c 0
 206.333333333 279 238 265 264 237 c 0
 290.666666667 209 304 175.333333333 304 136 c 1
 304 136 l 1
229 136 m 1
 229 167.333333333 221 194 205 216 c 0
 189.666666667 238 170.666666667 249 148 249 c 0
 124.666666667 249 104.666666667 238 88 216 c 256
 71.3333333333 194 63 167.333333333 63 136 c 0
 63 105.333333333 71.3333333333 79.3333333333 88 58 c 0
 104.666666667 36 124.666666667 25 148 25 c 0
 170.666666667 25 189.666666667 36 205 58 c 0
 221 79.3333333333 229 105.333333333 229 136 c 1
 229 136 l 1
654 136 m 1
 654 97.3333333333 640.666666667 64 614 36 c 0
 588 8.66666666667 556.333333333 -5 519 -5 c 0
 478.333333333 -5 445.666666667 8 421 34 c 0
 396.333333333 59.3333333333 384 93.3333333333 384 136 c 0
 384 179.333333333 396.333333333 214 421 240 c 256
 445.666666667 266 478.333333333 279 519 279 c 0
 556.333333333 279 588 265 614 237 c 0
 640.666666667 209 654 175.333333333 654 136 c 1
 654 136 l 1
579 136 m 1
 579 167.333333333 571.333333333 194 556 216 c 0
 540 238 521 249 499 249 c 0
 475.666666667 249 455.666666667 238 439 216 c 256
 422.333333333 194 414 167.333333333 414 136 c 0
 414 105.333333333 422.333333333 79.3333333333 439 58 c 0
 455.666666667 36 475.666666667 25 499 25 c 0
 521 25 540 36 556 58 c 0
 571.333333333 79.3333333333 579 105.333333333 579 136 c 1
 579 136 l 1
479 501 m 1
 479 462.333333333 465.666666667 429 439 401 c 0
 413 373.666666667 381.333333333 360 344 360 c 0
 302.666666667 360 269.666666667 373 245 399 c 0
 220.333333333 424.333333333 208 458.333333333 208 501 c 0
 208 544.333333333 220.333333333 579 245 605 c 256
 269.666666667 631 302.666666667 644 344 644 c 0
 381.333333333 644 413 630 439 602 c 0
 465.666666667 574 479 540.333333333 479 501 c 1
 479 501 l 1
404 501 m 1
 404 532.333333333 396 559 380 581 c 0
 364.666666667 603 345.666666667 614 323 614 c 0
 299.666666667 614 279.666666667 603 263 581 c 256
 246.333333333 559 238 532.333333333 238 501 c 0
 238 470.333333333 246.333333333 444.333333333 263 423 c 0
 279.666666667 401 299.666666667 390 323 390 c 0
 345.666666667 390 364.666666667 401 380 423 c 0
 396 444.333333333 404 470.333333333 404 501 c 1
 404 501 l 1
EndSplineSet
EndChar

StartChar: uni0B85
Encoding: 260 2949 5
Width: 908
GlyphClass: 2
Flags: HW
LayerCount: 2
Back
Fore
SplineSet
12 32 m 1
 12 44.6666666667 18 55.6666666667 30 65 c 0
 42 73.6666666667 56.3333333333 78 73 78 c 2
 565 78 l 1
 586.333333333 120 597 165.666666667 597 215 c 0
 597 259.666666667 583.666666667 298 557 330 c 0
 531 361.333333333 499.333333333 377 462 377 c 1
 480.666666667 365.666666667 495.666666667 349.666666667 507 329 c 0
 517.666666667 308.333333333 523 286 523 262 c 0
 523 233.333333333 510.666666667 208.666666667 486 188 c 0
 460.666666667 168 430.333333333 158 395 158 c 0
 366.333333333 158 341.666666667 169.333333333 321 192 c 0
 300.333333333 214 290 241 290 273 c 0
 290 313.666666667 306.333333333 346 339 370 c 0
 371 394.666666667 414 407 468 407 c 0
 524 407 572 387.666666667 612 349 c 256
 652 310.333333333 672 263.666666667 672 209 c 256
 672 154.333333333 664 110.666666667 648 78 c 1
 763 78 l 1
 763 400 l 1
 838 400 l 1
 838 -134 l 1
 763 -134 l 1
 763 48 l 1
 635 48 l 1
 606.333333333 -4 561.333333333 -45 500 -75 c 256
 438.666666667 -105 369.333333333 -120 292 -120 c 256
 214.666666667 -120 148.666666667 -105 94 -75 c 0
 39.3333333333 -45.6666666667 12 -10 12 32 c 1
 12 32 l 1
448 270 m 1
 448 294 441.666666667 314.666666667 429 332 c 0
 417 349.333333333 402 358 384 358 c 256
 366 358 351 349.333333333 339 332 c 0
 326.333333333 314.666666667 320 294 320 270 c 0
 320 247.333333333 326 228 338 212 c 0
 350.666666667 196 365.666666667 188 383 188 c 0
 401 188 416.333333333 196 429 212 c 256
 441.666666667 228 448 247.333333333 448 270 c 1
 448 270 l 1
550 48 m 1
 75 48 l 2
 66.3333333333 48 59 46.6666666667 53 44 c 0
 47.6666666667 41.3333333333 44.3333333333 37.6666666667 43 33 c 0
 35.6666666667 1.66666666667 55.3333333333 -26.6666666667 102 -52 c 0
 149.333333333 -77.3333333333 205.666666667 -90 271 -90 c 0
 331 -90 385.666666667 -77.6666666667 435 -53 c 0
 485 -28.3333333333 523.333333333 5.33333333333 550 48 c 1
 550 48 l 1
EndSplineSet
EndChar

StartChar: uni0B86
Encoding: 261 2950 6
Width: 999
GlyphClass: 2
Flags: HW
LayerCount: 2
Back
Fore
SplineSet
999 -58 m 1
 999 -130.666666667 970.666666667 -188.666666667 914 -232 c 0
 857.333333333 -276 781.666666667 -298 687 -298 c 0
 615 -298 553.666666667 -287.666666667 503 -267 c 256
 452.333333333 -246.333333333 427 -221.666666667 427 -193 c 0
 427 -180.333333333 434 -169.333333333 448 -160 c 0
 461.333333333 -150.666666667 477.666666667 -146 497 -146 c 2
 612 -146 l 1
 612 -176 l 1
 495 -176 l 2
 484.333333333 -176 475.333333333 -177.666666667 468 -181 c 0
 460.666666667 -185 457 -189.333333333 457 -194 c 0
 457 -214.666666667 479.333333333 -232 524 -246 c 0
 569.333333333 -260.666666667 623.666666667 -268 687 -268 c 0
 759 -268 816.333333333 -249.333333333 859 -212 c 0
 902.333333333 -174 924 -124 924 -62 c 0
 924 -36.6666666667 918.666666667 -15 908 3 c 256
 897.333333333 21 884.333333333 30 869 30 c 0
 862.333333333 30 856.333333333 29 851 27 c 0
 845.666666667 25.6666666667 841.333333333 23.3333333333 838 20 c 1
 838 -113 l 1
 763 -113 l 1
 763 48 l 1
 635 48 l 1
 606.333333333 -4 561.333333333 -45 500 -75 c 256
 438.666666667 -105 369.333333333 -120 292 -120 c 256
 214.666666667 -120 148.666666667 -105 94 -75 c 0
 39.3333333333 -45.6666666667 12 -10 12 32 c 0
 12 44.6666666667 18 55.6666666667 30 65 c 0
 42 73.6666666667 56.3333333333 78 73 78 c 2
 564 78 l 1
 586 121.333333333 597 167 597 215 c 0
 597 259.666666667 583.666666667 298 557 330 c 0
 531 361.333333333 499.333333333 377 462 377 c 1
 480.666666667 365.666666667 495.666666667 349.666666667 507 329 c 0
 517.666666667 308.333333333 523 286 523 262 c 0
 523 233.333333333 510.666666667 208.666666667 486 188 c 0
 460.666666667 168 430.333333333 158 395 158 c 0
 366.333333333 158 341.666666667 169.333333333 321 192 c 0
 300.333333333 214 290 241 290 273 c 0
 290 313.666666667 306.333333333 346 339 370 c 0
 371 394.666666667 414 407 468 407 c 0
 524 407 572 387.666666667 612 349 c 256
 652 310.333333333 672 263.666666667 672 209 c 256
 672 154.333333333 664 110.666666667 648 78 c 1
 763 78 l 1
 763 400 l 1
 838 400 l 1
 838 48 l 1
 852 56 866.666666667 60 882 60 c 0
 914 60 941.666666667 48.3333333333 965 25 c 0
 987.666666667 2.33333333333 999 -25.3333333333 999 -58 c 1
 999 -58 l 1
448 270 m 1
 448 294 441.666666667 314.666666667 429 332 c 0
 417 349.333333333 402 358 384 358 c 256
 366 358 351 349.333333333 339 332 c 0
 326.333333333 314.666666667 320 294 320 270 c 0
 320 247.333333333 326 228 338 212 c 256
 350 196 364.666666667 188 382 188 c 0
 400 188 415.666666667 196 429 212 c 0
 441.666666667 228 448 247.333333333 448 270 c 1
 448 270 l 1
550 48 m 1
 75 48 l 2
 66.3333333333 48 59 46.6666666667 53 44 c 0
 47.6666666667 41.3333333333 44.3333333333 37.6666666667 43 33 c 0
 35.6666666667 1.66666666667 55.3333333333 -26.6666666667 102 -52 c 0
 149.333333333 -77.3333333333 205.666666667 -90 271 -90 c 0
 331 -90 385.666666667 -77.6666666667 435 -53 c 0
 485 -28.3333333333 523.333333333 5.33333333333 550 48 c 1
 550 48 l 1
EndSplineSet
EndChar

StartChar: uni0B87
Encoding: 262 2951 7
Width: 913
GlyphClass: 2
Flags: HW
LayerCount: 2
Back
Fore
SplineSet
848 -273 m 1
 818 -273 l 1
 818 189 l 2
 818 311.666666667 784.333333333 409.666666667 717 483 c 0
 650.333333333 557 561.333333333 594 450 594 c 0
 342.666666667 594 257 561.333333333 193 496 c 0
 128.333333333 430.666666667 96 344 96 236 c 0
 96 154 122 76 174 2 c 1
 238 36 319.333333333 53 418 53 c 0
 459.333333333 53 499.666666667 47.3333333333 539 36 c 1
 569.666666667 87.3333333333 585 142.333333333 585 201 c 0
 585 248.333333333 572.666666667 289 548 323 c 0
 523.333333333 356.333333333 493.333333333 373 458 373 c 1
 476.666666667 362.333333333 491.333333333 346.666666667 502 326 c 0
 512.666666667 304.666666667 518 281.333333333 518 256 c 0
 518 222.666666667 506.333333333 196 483 176 c 256
 459.666666667 156 428.666666667 146 390 146 c 0
 357.333333333 146 331 156.333333333 311 177 c 0
 291.666666667 198.333333333 282 226.333333333 282 261 c 0
 282 303.666666667 297.333333333 338 328 364 c 0
 359.333333333 390 400.666666667 403 452 403 c 0
 509.333333333 403 558.333333333 382.333333333 599 341 c 0
 639.666666667 300.333333333 660 251 660 193 c 0
 660 121.666666667 644 62.3333333333 612 15 c 1
 652 -1.66666666667 683.666666667 -24 707 -52 c 0
 731 -80 743 -109 743 -139 c 0
 743 -179 724 -213.333333333 686 -242 c 256
 648 -270.666666667 602.333333333 -285 549 -285 c 0
 477 -285 410 -264 348 -222 c 1
 288 -264 221.666666667 -285 149 -285 c 0
 113 -285 82 -275.333333333 56 -256 c 0
 30.6666666667 -236.666666667 18 -213.333333333 18 -186 c 0
 18 -152.666666667 29 -120.666666667 51 -90 c 256
 73 -59.3333333333 103 -34.3333333333 141 -15 c 1
 112.333333333 21.6666666667 90.3333333333 63.6666666667 75 111 c 0
 59.6666666667 157.666666667 52 207 52 259 c 0
 52 383.666666667 88.3333333333 483.333333333 161 558 c 0
 234.333333333 633.333333333 331.333333333 671 452 671 c 0
 572 671 668 627 740 539 c 256
 812 451 848 334 848 188 c 2
 848 -273 l 1
 848 -273 l 1
443 262 m 1
 443 286 437.333333333 306.666666667 426 324 c 0
 414 340.666666667 400 349 384 349 c 0
 364 349 347 340.666666667 333 324 c 256
 319 307.333333333 312 287.333333333 312 264 c 0
 312 240 318.666666667 219.333333333 332 202 c 256
 345.333333333 184.666666667 361.333333333 176 380 176 c 0
 397.333333333 176 412.333333333 184.333333333 425 201 c 0
 437 217.666666667 443 238 443 262 c 1
 443 262 l 1
509 -9 m 1
 476.333333333 1.66666666667 440.666666667 7 402 7 c 0
 312 7 242.666666667 -6 194 -32 c 1
 237.333333333 -90 288 -137.666666667 346 -175 c 1
 408.666666667 -133 463 -77.6666666667 509 -9 c 1
 509 -9 l 1
656 -137 m 1
 656 -113.666666667 649 -92.6666666667 635 -74 c 0
 620.333333333 -55.3333333333 601.666666667 -42.6666666667 579 -36 c 1
 527 -100.666666667 464.666666667 -154.666666667 392 -198 c 1
 430.666666667 -218.666666667 473.333333333 -229 520 -229 c 0
 557.333333333 -229 589.333333333 -220 616 -202 c 256
 642.666666667 -184 656 -162.333333333 656 -137 c 1
 656 -137 l 1
314 -198 m 1
 253.333333333 -154 201.666666667 -104.666666667 159 -50 c 1
 125 -67.3333333333 98 -88.3333333333 78 -113 c 0
 58 -137 48 -161.333333333 48 -186 c 0
 48 -205.333333333 58.3333333333 -221.666666667 79 -235 c 256
 99.6666666667 -248.333333333 124.333333333 -255 153 -255 c 0
 206.333333333 -255 260 -236 314 -198 c 1
 314 -198 l 1
EndSplineSet
EndChar

StartChar: uni0B88
Encoding: 263 2952 8
Width: 583
GlyphClass: 2
Flags: HW
LayerCount: 2
Back
Fore
SplineSet
555 370 m 1
 409 370 l 1
 409 0 l 1
 334 0 l 1
 334 370 l 1
 100 370 l 1
 100 0 l 1
 70 0 l 1
 70 400 l 1
 555 400 l 1
 555 370 l 1
 555 370 l 1
272 199 m 1
 272 185 266.333333333 173 255 163 c 0
 244.333333333 153 231 148 215 148 c 0
 199.666666667 148 186.333333333 153 175 163 c 0
 164.333333333 173 159 185 159 199 c 256
 159 213 164.333333333 224.666666667 175 234 c 0
 186.333333333 244 199.666666667 249 215 249 c 0
 231 249 244.333333333 244 255 234 c 0
 266.333333333 224.666666667 272 213 272 199 c 1
 272 199 l 1
564 199 m 1
 564 185 558.333333333 173 547 163 c 0
 536.333333333 153 523 148 507 148 c 0
 491.666666667 148 478.333333333 153 467 163 c 0
 456.333333333 173 451 185 451 199 c 256
 451 213 456.333333333 224.666666667 467 234 c 0
 478.333333333 244 491.666666667 249 507 249 c 0
 523 249 536.333333333 244 547 234 c 0
 558.333333333 224.666666667 564 213 564 199 c 1
 564 199 l 1
EndSplineSet
EndChar

StartChar: uni0B89
Encoding: 264 2953 9
Width: 709
GlyphClass: 2
Flags: HW
LayerCount: 2
Back
Fore
SplineSet
704 0 m 1
 128 0 l 2
 102.666666667 0 81 6.33333333333 63 19 c 0
 45 31 36 46 36 64 c 0
 36 80.6666666667 43.6666666667 95 59 107 c 256
 74.3333333333 119 93 125 115 125 c 2
 266 125 l 2
 294 125 318 137.333333333 338 162 c 0
 358 187.333333333 368 217.666666667 368 253 c 0
 368 285.666666667 357.666666667 313.666666667 337 337 c 256
 316.333333333 360.333333333 291.666666667 372 263 372 c 2
 192 372 l 1
 210.666666667 366.666666667 226 355.333333333 238 338 c 0
 250 321.333333333 256 302 256 280 c 0
 256 251.333333333 245.666666667 228.666666667 225 212 c 0
 203.666666667 194.666666667 175.666666667 186 141 186 c 0
 115 186 92.6666666667 195.333333333 74 214 c 0
 55.3333333333 232 46 254 46 280 c 0
 46 320 62 350.333333333 94 371 c 256
 126 391.666666667 173.333333333 402 236 402 c 256
 298.666666667 402 348.666666667 388.333333333 386 361 c 0
 424 333.666666667 443 297.333333333 443 252 c 0
 443 208.666666667 426.666666667 171.666666667 394 141 c 256
 361.333333333 110.333333333 321.666666667 95 275 95 c 2
 156 95 l 2
 143.333333333 95 132.666666667 92 124 86 c 0
 115.333333333 79.3333333333 111 71.6666666667 111 63 c 0
 111 53.6666666667 115.333333333 46 124 40 c 0
 132 33.3333333333 142 30 154 30 c 2
 704 30 l 1
 704 0 l 1
 704 0 l 1
181 286 m 1
 181 305.333333333 175.666666667 321.666666667 165 335 c 0
 154.333333333 349 141.666666667 356 127 356 c 0
 113 356 101 349 91 335 c 0
 81 321.666666667 76 305.333333333 76 286 c 256
 76 266.666666667 80.6666666667 250.333333333 90 237 c 0
 100 223 111.666666667 216 125 216 c 0
 140.333333333 216 153.666666667 223 165 237 c 0
 175.666666667 250.333333333 181 266.666666667 181 286 c 1
 181 286 l 1
EndSplineSet
EndChar

StartChar: uni0B8A
Encoding: 265 2954 10
Width: 1215
GlyphClass: 2
Flags: HW
LayerCount: 2
Back
Fore
SplineSet
1189 370 m 1
 1141 370 l 1
 1141 90 l 1
 1066 90 l 1
 1066 370 l 1
 948 370 l 1
 948 90 l 1
 873 90 l 1
 873 285 l 1
 852.333333333 311.666666667 826.666666667 332.666666667 796 348 c 0
 765.333333333 362.666666667 733.333333333 370 700 370 c 0
 657.333333333 370 620.666666667 355.666666667 590 327 c 0
 560 298.333333333 545 264 545 224 c 0
 545 204 549 185.333333333 557 168 c 0
 565.666666667 150 577.333333333 135 592 123 c 1
 586 131 581.333333333 140.666666667 578 152 c 0
 574.666666667 164 573 176.666666667 573 190 c 0
 573 221.333333333 582.333333333 246.333333333 601 265 c 0
 620.333333333 283.666666667 645.666666667 293 677 293 c 0
 709 293 734.666666667 283.666666667 754 265 c 256
 773.333333333 246.333333333 783 221.666666667 783 191 c 0
 783 158.333333333 772 132 750 112 c 0
 728 92.6666666667 698.666666667 83 662 83 c 0
 621.333333333 83 586.666666667 97 558 125 c 0
 529.333333333 153.666666667 515 188 515 228 c 0
 515 275.333333333 533 316 569 350 c 0
 605 383.333333333 648.333333333 400 699 400 c 0
 745.666666667 400 786.666666667 394.333333333 822 383 c 0
 858 371 884.666666667 354.666666667 902 334 c 1
 902 400 l 1
 1189 400 l 1
 1189 370 l 1
 1189 370 l 1
708 189 m 1
 708 209.666666667 702.666666667 227 692 241 c 0
 682 255.666666667 669.666666667 263 655 263 c 256
 640.333333333 263 628 255.666666667 618 241 c 256
 608 226.333333333 603 208.666666667 603 188 c 256
 603 167.333333333 608.333333333 149.666666667 619 135 c 0
 630.333333333 120.333333333 643.666666667 113 659 113 c 0
 672.333333333 113 684 120.333333333 694 135 c 0
 703.333333333 150.333333333 708 168.333333333 708 189 c 1
 708 189 l 1
1189 0 m 1
 128 0 l 2
 102.666666667 0 81 6.33333333333 63 19 c 0
 45 31 36 46 36 64 c 0
 36 79.3333333333 43.6666666667 92.6666666667 59 104 c 0
 74.3333333333 114.666666667 93 120 115 120 c 2
 266 120 l 2
 294 120 318 133 338 159 c 256
 358 185 368 216.333333333 368 253 c 0
 368 285 357.666666667 312.666666667 337 336 c 0
 316.333333333 358.666666667 291.666666667 370 263 370 c 2
 192 370 l 1
 210.666666667 364.666666667 226 353.666666667 238 337 c 256
 250 320.333333333 256 301.333333333 256 280 c 0
 256 251.333333333 245.666666667 228.666666667 225 212 c 0
 203.666666667 194.666666667 175.666666667 186 141 186 c 0
 115 186 92.6666666667 195.333333333 74 214 c 0
 55.3333333333 232 46 254 46 280 c 0
 46 319.333333333 62 349.333333333 94 370 c 0
 126 390 173.333333333 400 236 400 c 256
 298.666666667 400 348.666666667 386.666666667 386 360 c 0
 424 332.666666667 443 296.666666667 443 252 c 256
 443 207.333333333 426.666666667 169 394 137 c 0
 361.333333333 105.666666667 321.666666667 90 275 90 c 2
 156 90 l 2
 143.333333333 90 132.666666667 87.3333333333 124 82 c 256
 115.333333333 76.6666666667 111 70.3333333333 111 63 c 0
 111 53.6666666667 115.333333333 46 124 40 c 0
 132 33.3333333333 142 30 154 30 c 2
 1189 30 l 1
 1189 0 l 1
 1189 0 l 1
181 286 m 1
 181 305.333333333 175.666666667 321.666666667 165 335 c 0
 154.333333333 349 141.666666667 356 127 356 c 0
 113 356 101 349 91 335 c 0
 81 321.666666667 76 305.333333333 76 286 c 256
 76 266.666666667 80.6666666667 250.333333333 90 237 c 0
 100 223 111.666666667 216 125 216 c 0
 140.333333333 216 153.666666667 223 165 237 c 0
 175.666666667 250.333333333 181 266.666666667 181 286 c 1
 181 286 l 1
EndSplineSet
EndChar

StartChar: uni0B8E
Encoding: 266 2958 11
Width: 695
GlyphClass: 2
Flags: HW
LayerCount: 2
Back
Fore
SplineSet
503 0 m 1
 503 370 l 1
 246 370 l 2
 196.666666667 370 154.666666667 351.333333333 120 314 c 0
 85.3333333333 277.333333333 68 232.666666667 68 180 c 0
 68 146.666666667 74 117.666666667 86 93 c 256
 98 68.3333333333 113.666666667 52 133 44 c 1
 115 68 106 93.3333333333 106 120 c 0
 106 150.666666667 117.666666667 176.666666667 141 198 c 256
 164.333333333 219.333333333 192.666666667 230 226 230 c 256
 259.333333333 230 288 219.666666667 312 199 c 0
 335.333333333 177.666666667 347 152.333333333 347 123 c 0
 347 89 333.666666667 60 307 36 c 0
 281 12 249.333333333 0 212 0 c 0
 164 0 123 18 89 54 c 0
 55 89.3333333333 38 132.333333333 38 183 c 0
 38 243 58.3333333333 294 99 336 c 0
 139.666666667 378.666666667 188.666666667 400 246 400 c 2
 690 400 l 1
 690 370 l 1
 578 370 l 1
 578 0 l 1
 503 0 l 1
 503 0 l 1
272 119 m 1
 272 141.666666667 265.666666667 160.666666667 253 176 c 0
 239.666666667 192 224 200 206 200 c 0
 186.666666667 200 170.333333333 192 157 176 c 0
 143 159.333333333 136 139.666666667 136 117 c 0
 136 95 142.333333333 76 155 60 c 0
 167 44.6666666667 182 37 200 37 c 0
 220 37 237 45 251 61 c 256
 265 77 272 96.3333333333 272 119 c 1
 272 119 l 1
EndSplineSet
EndChar

StartChar: uni0B8F
Encoding: 267 2959 12
Width: 695
GlyphClass: 2
Flags: HW
LayerCount: 2
Back
Fore
SplineSet
260 -117 m 1
 505 -1 l 1
 505 370 l 1
 246 370 l 2
 196.666666667 370 154.666666667 351.333333333 120 314 c 0
 85.3333333333 277.333333333 68 232.666666667 68 180 c 0
 68 148.666666667 74 120.666666667 86 96 c 256
 98 71.3333333333 114 54 134 44 c 1
 124.666666667 56 117.666666667 68.6666666667 113 82 c 0
 108.333333333 94.6666666667 106 107.333333333 106 120 c 0
 106 150.666666667 117.666666667 176.666666667 141 198 c 256
 164.333333333 219.333333333 192.666666667 230 226 230 c 256
 259.333333333 230 288 219.666666667 312 199 c 0
 335.333333333 177.666666667 347 152.333333333 347 123 c 0
 347 89 333.666666667 60 307 36 c 0
 281 12 249.333333333 0 212 0 c 0
 164 0 123 18 89 54 c 0
 55 89.3333333333 38 132.333333333 38 183 c 0
 38 243 58.3333333333 294 99 336 c 0
 139.666666667 378.666666667 188.666666667 400 246 400 c 2
 690 400 l 1
 690 370 l 1
 580 370 l 1
 580 0 l 1
 277 -141 l 1
 260 -117 l 1
 260 -117 l 1
272 119 m 1
 272 141.666666667 265.666666667 160.666666667 253 176 c 0
 239.666666667 192 224 200 206 200 c 0
 186.666666667 200 170.333333333 192 157 176 c 0
 143 159.333333333 136 139.666666667 136 117 c 0
 136 95 142.333333333 76 155 60 c 0
 167 44.6666666667 182 37 200 37 c 0
 220 37 237 45 251 61 c 256
 265 77 272 96.3333333333 272 119 c 1
 272 119 l 1
EndSplineSet
EndChar

StartChar: uni0B90
Encoding: 268 2960 13
Width: 708
GlyphClass: 2
Flags: HW
LayerCount: 2
Back
Fore
SplineSet
34 258 m 1
 34 296.666666667 51 329.666666667 85 357 c 0
 118.333333333 384.333333333 159 398 207 398 c 0
 251 398 290 391 324 377 c 0
 357.333333333 363 381.666666667 344 397 320 c 1
 405.666666667 343.333333333 421.333333333 362.333333333 444 377 c 0
 466 391 491.333333333 398 520 398 c 0
 562 398 598 382 628 350 c 0
 658 317.333333333 673 278.333333333 673 233 c 0
 673 182.333333333 655 139.333333333 619 104 c 0
 582.333333333 68 538.333333333 50 487 50 c 2
 215 50 l 2
 183.666666667 50 156.666666667 39 134 17 c 0
 112 -5.66666666667 101 -32.6666666667 101 -64 c 0
 101 -98 111 -126.666666667 131 -150 c 0
 151.666666667 -174 176.333333333 -186 205 -186 c 0
 243.666666667 -186 277 -176.333333333 305 -157 c 0
 332.333333333 -137 346 -113.333333333 346 -86 c 2
 346 2 l 1
 421 2 l 1
 421 -91 l 2
 421 -117 431.333333333 -139.333333333 452 -158 c 256
 472.666666667 -176.666666667 497.333333333 -186 526 -186 c 0
 556.666666667 -186 582.666666667 -176.333333333 604 -157 c 256
 625.333333333 -137.666666667 636 -114.333333333 636 -87 c 2
 636 2 l 1
 666 2 l 1
 666 -87 l 2
 666 -122.333333333 652.666666667 -152.666666667 626 -178 c 256
 599.333333333 -203.333333333 567 -216 529 -216 c 0
 489.666666667 -216 455 -208.666666667 425 -194 c 0
 394.333333333 -179.333333333 373.333333333 -159.666666667 362 -135 c 1
 344.666666667 -160.333333333 321.666666667 -180 293 -194 c 0
 263.666666667 -208.666666667 231.666666667 -216 197 -216 c 0
 149.666666667 -216 109.333333333 -200.666666667 76 -170 c 256
 42.6666666667 -139.333333333 26 -102.333333333 26 -59 c 0
 26 -20.3333333333 43 12.3333333333 77 39 c 0
 111 66.3333333333 152 80 200 80 c 2
 478 80 l 2
 511.333333333 80 539.666666667 94.6666666667 563 124 c 256
 586.333333333 153.333333333 598 189 598 231 c 0
 598 269 589.333333333 301.333333333 572 328 c 256
 554.666666667 354.666666667 534 368 510 368 c 0
 485.333333333 368 464.333333333 358.333333333 447 339 c 0
 429.666666667 320.333333333 421 297.333333333 421 270 c 2
 421 138 l 1
 346 138 l 1
 346 259 l 2
 346 289 331.666666667 314.666666667 303 336 c 256
 274.333333333 357.333333333 239.666666667 368 199 368 c 0
 161.666666667 368 130 357 104 335 c 0
 77.3333333333 313.666666667 64 287.666666667 64 257 c 0
 64 234.333333333 69.3333333333 214 80 196 c 256
 90.6666666667 178 105 165.666666667 123 159 c 1
 114.333333333 168.333333333 107.666666667 179 103 191 c 256
 98.3333333333 203 96 215.666666667 96 229 c 0
 96 255.666666667 104.333333333 278.333333333 121 297 c 256
 137.666666667 315.666666667 158 325 182 325 c 0
 211.333333333 325 235 316 253 298 c 0
 271 279.333333333 280 255 280 225 c 0
 280 195.666666667 269.333333333 172 248 154 c 256
 226.666666667 136 198.333333333 127 163 127 c 256
 127.666666667 127 97.3333333333 139.666666667 72 165 c 0
 46.6666666667 191 34 222 34 258 c 1
 34 258 l 1
217 225 m 1
 217 244.333333333 212.666666667 260.666666667 204 274 c 0
 195.333333333 288 185 295 173 295 c 0
 160.333333333 295 149.333333333 288.666666667 140 276 c 0
 130.666666667 262.666666667 126 247 126 229 c 0
 126 209 130.333333333 192 139 178 c 256
 147.666666667 164 158 157 170 157 c 0
 182.666666667 157 193.666666667 163.666666667 203 177 c 256
 212.333333333 190.333333333 217 206.333333333 217 225 c 1
 217 225 l 1
EndSplineSet
EndChar

StartChar: uni0B92
Encoding: 269 2962 14
Width: 716
GlyphClass: 2
Flags: HW
LayerCount: 2
Back
Fore
SplineSet
37 156 m 1
 37 229.333333333 64.6666666667 288.333333333 120 333 c 0
 175.333333333 377 249 399 341 399 c 0
 443.666666667 399 526 376.666666667 588 332 c 256
 650 287.333333333 681 228 681 154 c 0
 681 114 667 79.6666666667 639 51 c 256
 611 22.3333333333 577.333333333 8 538 8 c 0
 511.333333333 8 488.666666667 17.6666666667 470 37 c 0
 451.333333333 57 442 80.6666666667 442 108 c 2
 442 131 l 1
 428.666666667 121 418 108 410 92 c 0
 402.666666667 76 399 58.6666666667 399 40 c 0
 399 8.66666666667 410.666666667 -18.3333333333 434 -41 c 0
 457.333333333 -63 485.333333333 -74 518 -74 c 2
 612 -74 l 1
 612 -104 l 1
 474 -104 l 2
 458 -104 444.333333333 -111 433 -125 c 256
 421.666666667 -139 416 -156 416 -176 c 0
 416 -208 400 -233.666666667 368 -253 c 0
 335.333333333 -272.333333333 292.333333333 -282 239 -282 c 0
 195 -282 157.666666667 -272 127 -252 c 0
 95.6666666667 -231.333333333 80 -206.666666667 80 -178 c 0
 80 -160 82.6666666667 -143.666666667 88 -129 c 0
 94 -113.666666667 102 -101.333333333 112 -92 c 1
 133 -110 l 1
 125.666666667 -118.666666667 120 -129 116 -141 c 0
 112 -152.333333333 110 -165 110 -179 c 0
 110 -201 122 -218.666666667 146 -232 c 0
 169.333333333 -245.333333333 200.666666667 -252 240 -252 c 0
 270.666666667 -252 295 -244 313 -228 c 0
 331.666666667 -212 341 -190.666666667 341 -164 c 0
 341 -140.666666667 349.666666667 -121 367 -105 c 0
 384.333333333 -88.3333333333 405 -80 429 -80 c 2
 453 -80 l 1
 427.666666667 -70.6666666667 407.333333333 -54.6666666667 392 -32 c 0
 376.666666667 -10 369 15 369 43 c 0
 369 80.3333333333 381.333333333 112 406 138 c 0
 430 164.666666667 459.333333333 178 494 178 c 1
 486.666666667 169.333333333 481.333333333 159.333333333 478 148 c 0
 474 136 472 123 472 109 c 0
 472 89.6666666667 478.333333333 73 491 59 c 0
 504.333333333 45 520 38 538 38 c 0
 556.666666667 38 572.666666667 49.3333333333 586 72 c 0
 599.333333333 94 606 121 606 153 c 0
 606 209 579.666666667 256.666666667 527 296 c 256
 474.333333333 335.333333333 410.666666667 355 336 355 c 0
 262 355 198.666666667 335.666666667 146 297 c 0
 93.3333333333 257.666666667 67 210.666666667 67 156 c 0
 67 126.666666667 74 100.333333333 88 77 c 256
 102 53.6666666667 120.333333333 37.3333333333 143 28 c 1
 132.333333333 38 124.333333333 49.6666666667 119 63 c 0
 113 76.3333333333 110 90.3333333333 110 105 c 0
 110 133.666666667 120 158 140 178 c 256
 160 198 184 208 212 208 c 0
 242.666666667 208 269 197.333333333 291 176 c 0
 313 155.333333333 324 130 324 100 c 0
 324 69.3333333333 312 43.3333333333 288 22 c 256
 264 0.666666666667 235 -10 201 -10 c 0
 155.666666667 -10 117 6.33333333333 85 39 c 0
 53 71 37 110 37 156 c 1
 37 156 l 1
249 104 m 1
 249 124.666666667 244.666666667 142 236 156 c 0
 227.333333333 170.666666667 216.666666667 178 204 178 c 0
 186 178 171 171 159 157 c 0
 146.333333333 143 140 126 140 106 c 0
 140 82 145 61.6666666667 155 45 c 0
 164.333333333 28.3333333333 176 20 190 20 c 0
 206 20 220 28.3333333333 232 45 c 0
 243.333333333 61 249 80.6666666667 249 104 c 1
 249 104 l 1
EndSplineSet
EndChar

StartChar: uni0B93
Encoding: 270 2963 15
Width: 716
GlyphClass: 2
Flags: HW
LayerCount: 2
Back
Fore
SplineSet
37 156 m 1
 37 229.333333333 64.6666666667 288.333333333 120 333 c 0
 175.333333333 377 249 399 341 399 c 0
 443.666666667 399 526 376.666666667 588 332 c 256
 650 287.333333333 681 228 681 154 c 0
 681 114 667 79.6666666667 639 51 c 256
 611 22.3333333333 577.333333333 8 538 8 c 0
 511.333333333 8 488.666666667 17.6666666667 470 37 c 0
 451.333333333 57 442 80.6666666667 442 108 c 2
 442 131 l 1
 428.666666667 121 418 108 410 92 c 0
 402.666666667 76 399 58.6666666667 399 40 c 0
 399 8.66666666667 410.666666667 -18.3333333333 434 -41 c 0
 457.333333333 -63 485.333333333 -74 518 -74 c 2
 612 -74 l 1
 612 -104 l 1
 474 -104 l 2
 458 -104 444.333333333 -111 433 -125 c 256
 421.666666667 -139 416 -156 416 -176 c 0
 416 -214 400 -244.666666667 368 -268 c 0
 335.333333333 -290.666666667 292.333333333 -302 239 -302 c 0
 195 -302 157.666666667 -289.333333333 127 -264 c 0
 95.6666666667 -238.666666667 80 -208.333333333 80 -173 c 256
 80 -137.666666667 91.6666666667 -107.333333333 115 -82 c 256
 138.333333333 -56.6666666667 166.666666667 -44 200 -44 c 0
 228.666666667 -44 253 -52 273 -68 c 0
 293 -84.6666666667 303 -104.333333333 303 -127 c 256
 303 -149.666666667 295.333333333 -169.333333333 280 -186 c 0
 264.666666667 -202 246 -210 224 -210 c 0
 204.666666667 -210 188 -202.333333333 174 -187 c 0
 160 -172.333333333 153 -154.333333333 153 -133 c 0
 153 -125 154.333333333 -118 157 -112 c 0
 159 -105.333333333 162.333333333 -99.6666666667 167 -95 c 1
 150.333333333 -97.6666666667 136.666666667 -106.666666667 126 -122 c 0
 115.333333333 -136.666666667 110 -154 110 -174 c 0
 110 -203.333333333 122 -227 146 -245 c 0
 169.333333333 -263 200.666666667 -272 240 -272 c 0
 270.666666667 -272 295 -262.333333333 313 -243 c 0
 331.666666667 -223 341 -196.666666667 341 -164 c 0
 341 -140.666666667 349.666666667 -121 367 -105 c 0
 384.333333333 -88.3333333333 405 -80 429 -80 c 2
 453 -80 l 1
 427.666666667 -70.6666666667 407.333333333 -54.6666666667 392 -32 c 0
 376.666666667 -10 369 15 369 43 c 0
 369 80.3333333333 381.333333333 112 406 138 c 0
 430 164.666666667 459.333333333 178 494 178 c 1
 486.666666667 169.333333333 481.333333333 159.333333333 478 148 c 0
 474 136 472 123 472 109 c 0
 472 89.6666666667 478.333333333 73 491 59 c 0
 504.333333333 45 520 38 538 38 c 0
 556.666666667 38 572.666666667 49.3333333333 586 72 c 0
 599.333333333 94 606 121 606 153 c 0
 606 209 579.666666667 256.666666667 527 296 c 256
 474.333333333 335.333333333 410.666666667 355 336 355 c 0
 262 355 198.666666667 335.666666667 146 297 c 0
 93.3333333333 257.666666667 67 210.666666667 67 156 c 0
 67 126.666666667 74 100.333333333 88 77 c 256
 102 53.6666666667 120.333333333 37.3333333333 143 28 c 1
 132.333333333 38 124.333333333 49.6666666667 119 63 c 0
 113 76.3333333333 110 90.3333333333 110 105 c 0
 110 133.666666667 120 158 140 178 c 256
 160 198 184 208 212 208 c 0
 242.666666667 208 269 197.333333333 291 176 c 0
 313 155.333333333 324 130 324 100 c 0
 324 69.3333333333 312 43.3333333333 288 22 c 256
 264 0.666666666667 235 -10 201 -10 c 0
 155.666666667 -10 117 6.33333333333 85 39 c 0
 53 71 37 110 37 156 c 1
 37 156 l 1
249 99 m 1
 249 121 243.666666667 139.666666667 233 155 c 256
 222.333333333 170.333333333 209.666666667 178 195 178 c 0
 179.666666667 178 166.666666667 170.333333333 156 155 c 256
 145.333333333 139.666666667 140 121 140 99 c 256
 140 77 145.333333333 58.3333333333 156 43 c 256
 166.666666667 27.6666666667 179.666666667 20 195 20 c 0
 209.666666667 20 222.333333333 27.6666666667 233 43 c 256
 243.666666667 58.3333333333 249 77 249 99 c 1
 249 99 l 1
269 -141 m 1
 269 -129 264.666666667 -118.666666667 256 -110 c 256
 247.333333333 -101.333333333 237 -97 225 -97 c 0
 213.666666667 -97 204.333333333 -101.333333333 197 -110 c 0
 189 -118.666666667 185 -129 185 -141 c 256
 185 -153 189 -163.333333333 197 -172 c 0
 204.333333333 -180.666666667 213.666666667 -185 225 -185 c 0
 237 -185 247.333333333 -180.666666667 256 -172 c 256
 264.666666667 -163.333333333 269 -153 269 -141 c 1
 269 -141 l 1
EndSplineSet
EndChar

StartChar: uni0B95
Encoding: 272 2965 17
Width: 566
GlyphClass: 2
Flags: HW
LayerCount: 2
Back
Fore
SplineSet
536 114 m 1
 536 73.3333333333 524.666666667 44 502 26 c 0
 479.333333333 8.66666666667 441.666666667 0 389 0 c 1
 389 30 l 1
 415.666666667 30 434.333333333 36 445 48 c 0
 455.666666667 60.6666666667 461 82.3333333333 461 113 c 0
 461 137 457.666666667 155 451 167 c 0
 445 179 435.666666667 185 423 185 c 2
 357 185 l 1
 357 131 l 2
 357 87 340.666666667 54 308 32 c 0
 275.333333333 9.33333333333 226.666666667 -2 162 -2 c 0
 124 -2 91.6666666667 11.3333333333 65 38 c 256
 38.3333333333 64.6666666667 25 96.6666666667 25 134 c 0
 25 158.666666667 33.6666666667 178.333333333 51 193 c 256
 68.3333333333 207.666666667 91.3333333333 215 120 215 c 2
 144 215 l 1
 144 400 l 1
 491 400 l 1
 491 370 l 1
 357 370 l 1
 357 215 l 1
 456 215 l 2
 480 215 499.333333333 205.666666667 514 187 c 0
 528.666666667 169 536 144.666666667 536 114 c 1
 536 114 l 1
282 215 m 1
 282 370 l 1
 174 370 l 1
 174 215 l 1
 282 215 l 1
 282 215 l 1
282 138 m 1
 282 185 l 1
 113 185 l 2
 95.6666666667 185 81.6666666667 180.333333333 71 171 c 0
 60.3333333333 162.333333333 55 150.333333333 55 135 c 0
 55 102.333333333 64.6666666667 76.3333333333 84 57 c 0
 104 37.6666666667 130.333333333 28 163 28 c 256
 195.666666667 28 223.666666667 38.6666666667 247 60 c 256
 270.333333333 81.3333333333 282 107.333333333 282 138 c 1
 282 138 l 1
EndSplineSet
EndChar

StartChar: uni0B99
Encoding: 273 2969 18
Width: 769
GlyphClass: 2
Flags: HW
LayerCount: 2
Back
Fore
SplineSet
699 0 m 1
 246 0 l 1
 246 30 l 1
 397 30 l 1
 417 41.3333333333 432.666666667 56.6666666667 444 76 c 0
 455.333333333 94.6666666667 461 115 461 137 c 0
 461 165.666666667 453 190 437 210 c 256
 421 230 401.666666667 240 379 240 c 0
 368.333333333 240 358 237.666666667 348 233 c 0
 338 227.666666667 329 220.666666667 321 212 c 1
 321 110 l 1
 246 110 l 1
 246 370 l 1
 100 370 l 1
 100 0 l 1
 70 0 l 1
 70 400 l 1
 504 400 l 1
 504 370 l 1
 321 370 l 1
 321 247 l 1
 331.666666667 254.333333333 344.333333333 260 359 264 c 256
 373.666666667 268 389.666666667 270 407 270 c 0
 446.333333333 270 477.666666667 258 501 234 c 0
 524.333333333 209.333333333 536 177 536 137 c 0
 536 114.333333333 528.666666667 93.3333333333 514 74 c 0
 500 54 481 39.3333333333 457 30 c 1
 624 30 l 1
 624 400 l 1
 699 400 l 1
 699 0 l 1
 699 0 l 1
EndSplineSet
EndChar

StartChar: uni0B9A
Encoding: 274 2970 19
Width: 504
GlyphClass: 2
Flags: HW
LayerCount: 2
Back
Fore
SplineSet
493 185 m 1
 358 185 l 1
 358 137 l 2
 358 91 341.666666667 56.3333333333 309 33 c 256
 276.333333333 9.66666666667 227.666666667 -2 163 -2 c 0
 121.666666667 -2 88.3333333333 10.6666666667 63 36 c 0
 38.3333333333 61.3333333333 26 95 26 137 c 0
 26 160.333333333 34.6666666667 179.333333333 52 194 c 0
 69.3333333333 208 92.3333333333 215 121 215 c 2
 135 215 l 1
 135 400 l 1
 493 400 l 1
 493 370 l 1
 358 370 l 1
 358 215 l 1
 493 215 l 1
 493 185 l 1
 493 185 l 1
283 215 m 1
 283 370 l 1
 165 370 l 1
 165 215 l 1
 283 215 l 1
 283 215 l 1
283 137 m 1
 283 185 l 1
 114 185 l 2
 96.6666666667 185 82.6666666667 180.666666667 72 172 c 256
 61.3333333333 163.333333333 56 151.666666667 56 137 c 0
 56 104.333333333 65.6666666667 78 85 58 c 0
 105 38 131.333333333 28 164 28 c 0
 200 28 228.666666667 38 250 58 c 0
 272 78 283 104.333333333 283 137 c 1
 283 137 l 1
EndSplineSet
EndChar

StartChar: uni0B9C
Encoding: 275 2972 20
Width: 718
GlyphClass: 2
Flags: HW
LayerCount: 2
Back
Fore
SplineSet
684 228 m 1
 684 178.666666667 663.666666667 136.666666667 623 102 c 0
 583 67.3333333333 534.333333333 50 477 50 c 2
 215 50 l 2
 183 50 156 39 134 17 c 0
 111.333333333 -5.66666666667 100 -32.6666666667 100 -64 c 0
 100 -98 110.333333333 -127.333333333 131 -152 c 0
 151.666666667 -176 176.333333333 -188 205 -188 c 0
 224.333333333 -188 247 -179.333333333 273 -162 c 0
 299.666666667 -144.666666667 328 -120 358 -88 c 0
 385.333333333 -58.6666666667 415 -36 447 -20 c 0
 478.333333333 -4 509.666666667 4 541 4 c 0
 584.333333333 4 619 -6.66666666667 645 -28 c 256
 671 -49.3333333333 684 -78 684 -114 c 0
 684 -148.666666667 670.666666667 -176.333333333 644 -197 c 0
 618 -217.666666667 583 -228 539 -228 c 0
 515.666666667 -228 493.666666667 -224 473 -216 c 0
 452.333333333 -207.333333333 435 -195.666666667 421 -181 c 1
 436 -157 l 1
 451.333333333 -170.333333333 467.666666667 -180.333333333 485 -187 c 0
 503 -194.333333333 521 -198 539 -198 c 0
 558.333333333 -198 574.666666667 -189.666666667 588 -173 c 0
 602 -156.333333333 609 -136.333333333 609 -113 c 0
 609 -89 601.333333333 -68.3333333333 586 -51 c 0
 570.666666667 -34.3333333333 552.333333333 -26 531 -26 c 0
 485.666666667 -26 430.666666667 -58 366 -122 c 256
 301.333333333 -186 246.333333333 -218 201 -218 c 0
 147.666666667 -218 105 -204 73 -176 c 256
 41 -148 25 -110.666666667 25 -64 c 0
 25 -24 43 10 79 38 c 256
 115 66 158.666666667 80 210 80 c 2
 478 80 l 2
 514 80 545 94.6666666667 571 124 c 0
 596.333333333 153.333333333 609 189 609 231 c 0
 609 269 599.333333333 301.333333333 580 328 c 0
 561.333333333 354.666666667 538.333333333 368 511 368 c 0
 487 368 466.333333333 358.666666667 449 340 c 0
 431.666666667 320.666666667 423 297.666666667 423 271 c 2
 423 138 l 1
 348 138 l 1
 348 259 l 2
 348 289 332.333333333 314.666666667 301 336 c 0
 270.333333333 357.333333333 233 368 189 368 c 0
 154.333333333 368 125 357.666666667 101 337 c 0
 76.3333333333 316.333333333 64 291.333333333 64 262 c 0
 64 233.333333333 70.6666666667 208.666666667 84 188 c 256
 97.3333333333 167.333333333 113.666666667 156 133 154 c 1
 121.666666667 158 112.666666667 166.666666667 106 180 c 0
 99.3333333333 194 96 210.333333333 96 229 c 0
 96 258.333333333 104.333333333 281.666666667 121 299 c 256
 137.666666667 316.333333333 160 325 188 325 c 256
 216 325 238.333333333 316 255 298 c 0
 271.666666667 279.333333333 280 255 280 225 c 0
 280 195.666666667 269.666666667 172 249 154 c 0
 229 136 202 127 168 127 c 0
 127.333333333 127 95 139 71 163 c 0
 46.3333333333 187 34 218.666666667 34 258 c 0
 34 296.666666667 51 329.666666667 85 357 c 0
 118.333333333 384.333333333 159 398 207 398 c 0
 251 398 290 391 324 377 c 0
 357.333333333 363 381.666666667 344 397 320 c 1
 405.666666667 343.333333333 422 362.333333333 446 377 c 0
 469.333333333 391 496.333333333 398 527 398 c 0
 570.333333333 398 607.333333333 381.333333333 638 348 c 256
 668.666666667 314.666666667 684 274.666666667 684 228 c 1
 684 228 l 1
217 225 m 1
 217 244.333333333 212.666666667 260.666666667 204 274 c 0
 195.333333333 288 185 295 173 295 c 0
 160.333333333 295 149.333333333 288.666666667 140 276 c 0
 130.666666667 262.666666667 126 247 126 229 c 0
 126 209 130.333333333 192 139 178 c 256
 147.666666667 164 158 157 170 157 c 0
 182.666666667 157 193.666666667 163.666666667 203 177 c 256
 212.333333333 190.333333333 217 206.333333333 217 225 c 1
 217 225 l 1
EndSplineSet
EndChar

StartChar: uni0B9E
Encoding: 276 2974 21
Width: 928
GlyphClass: 2
Flags: HW
LayerCount: 2
Back
Fore
SplineSet
897 88 m 1
 897 -22 857.666666667 -107.333333333 779 -168 c 0
 699.666666667 -228.666666667 589 -259 447 -259 c 0
 331 -259 235 -222.666666667 159 -150 c 256
 83 -77.3333333333 45 14.6666666667 45 126 c 0
 45 174 54.6666666667 220.666666667 74 266 c 0
 93.3333333333 312 120.666666667 353.333333333 156 390 c 1
 176 370 l 1
 143.333333333 335.333333333 118.333333333 296.666666667 101 254 c 0
 83.6666666667 212 75 169 75 125 c 0
 75 23 110 -61.6666666667 180 -129 c 0
 250.666666667 -195.666666667 339.666666667 -229 447 -229 c 0
 560.333333333 -229 648.666666667 -201 712 -145 c 0
 774.666666667 -89.6666666667 806 -11.6666666667 806 89 c 0
 806 123 797.333333333 152 780 176 c 256
 762.666666667 200 741.666666667 212 717 212 c 0
 703 212 690.333333333 208 679 200 c 1
 679 0 l 1
 604 0 l 1
 604 370 l 1
 434 370 l 2
 373.333333333 370 321.333333333 352 278 316 c 0
 235.333333333 280 214 236.333333333 214 185 c 0
 214 154.333333333 219.666666667 127 231 103 c 0
 241.666666667 79 256.666666667 61.3333333333 276 50 c 1
 269.333333333 58 264 67.6666666667 260 79 c 0
 256.666666667 90.3333333333 255 102.333333333 255 115 c 0
 255 151 265.666666667 179.666666667 287 201 c 256
 308.333333333 222.333333333 337 233 373 233 c 256
 409 233 437.666666667 222.333333333 459 201 c 0
 481 179.666666667 492 151 492 115 c 0
 492 80.3333333333 479 52.3333333333 453 31 c 0
 427.666666667 10.3333333333 393.666666667 0 351 0 c 0
 300.333333333 0 260 16.6666666667 230 50 c 0
 199.333333333 84 184 128.666666667 184 184 c 0
 184 246.666666667 207.666666667 298.333333333 255 339 c 0
 303 379.666666667 363.333333333 400 436 400 c 2
 800 400 l 1
 800 370 l 1
 679 370 l 1
 679 228 l 1
 699.666666667 237.333333333 717 242 731 242 c 0
 781 242 821.333333333 228 852 200 c 0
 882 172 897 134.666666667 897 88 c 1
 897 88 l 1
417 119 m 1
 417 142.333333333 410.666666667 162 398 178 c 0
 384.666666667 194.666666667 369 203 351 203 c 256
 333 203 317.333333333 194.666666667 304 178 c 0
 291.333333333 161.333333333 285 141 285 117 c 0
 285 95.6666666667 291.333333333 77.6666666667 304 63 c 0
 317.333333333 47.6666666667 333 40 351 40 c 256
 369 40 384.666666667 47.6666666667 398 63 c 0
 410.666666667 78.3333333333 417 97 417 119 c 1
 417 119 l 1
EndSplineSet
EndChar

StartChar: uni0B9F
Encoding: 277 2975 22
Width: 774
GlyphClass: 2
Flags: HW
LayerCount: 2
Back
Fore
SplineSet
769 0 m 1
 70 0 l 1
 70 400 l 1
 145 400 l 1
 145 30 l 1
 769 30 l 1
 769 0 l 1
 769 0 l 1
EndSplineSet
EndChar

StartChar: uni0BA3
Encoding: 278 2979 23
Width: 1175
GlyphClass: 2
Flags: HW
LayerCount: 2
Back
Fore
SplineSet
39 173 m 1
 39 241.666666667 63 296.333333333 111 337 c 0
 159 378.333333333 222.666666667 399 302 399 c 0
 345.333333333 399 383.666666667 394.666666667 417 386 c 0
 450.333333333 378 476.333333333 366 495 350 c 1
 514.333333333 366 536.333333333 378.333333333 561 387 c 256
 585.666666667 395.666666667 611.666666667 400 639 400 c 0
 669 400 696.666666667 396.333333333 722 389 c 0
 746.666666667 381.666666667 767.666666667 371 785 357 c 1
 823 385.666666667 863.333333333 400 906 400 c 2
 1169 400 l 1
 1169 369 l 1
 1061 369 l 1
 1061 0 l 1
 986 0 l 1
 986 369 l 1
 928 369 l 2
 903.333333333 369 881 366 861 360 c 0
 840.333333333 354.666666667 823 346.333333333 809 335 c 1
 836.333333333 308.333333333 857.666666667 278 873 244 c 0
 887.666666667 209.333333333 895 173.666666667 895 137 c 0
 895 93.6666666667 885.333333333 59 866 33 c 0
 846 7 819.666666667 -6 787 -6 c 256
 754.333333333 -6 728.333333333 7 709 33 c 256
 689.666666667 59 680 93.6666666667 680 137 c 0
 680 169.666666667 685.333333333 201.333333333 696 232 c 0
 707.333333333 262.666666667 723.333333333 290.333333333 744 315 c 1
 734 331.666666667 719 345 699 355 c 0
 679.666666667 364.333333333 657.666666667 369 633 369 c 0
 612.333333333 369 592.666666667 365.666666667 574 359 c 256
 555.333333333 352.333333333 538.333333333 342.666666667 523 330 c 1
 551 304.666666667 573 275 589 241 c 0
 604.333333333 207.666666667 612 173 612 137 c 0
 612 93.6666666667 601.666666667 59 581 33 c 0
 559.666666667 7 531.666666667 -6 497 -6 c 256
 462.333333333 -6 434.666666667 7 414 33 c 256
 393.333333333 59 383 93.6666666667 383 137 c 0
 383 169 389 200 401 230 c 0
 413.666666667 260 431.333333333 287.333333333 454 312 c 1
 433.333333333 330.666666667 408.333333333 344.666666667 379 354 c 0
 349.666666667 364 317.666666667 369 283 369 c 0
 223.666666667 369 173.333333333 350 132 312 c 0
 90 274 69 228.333333333 69 175 c 0
 69 141.666666667 75 112.666666667 87 88 c 0
 99.6666666667 63.3333333333 116 47 136 39 c 1
 128 48.3333333333 121.666666667 60 117 74 c 0
 113 87.3333333333 111 102 111 118 c 0
 111 151.333333333 120 178.333333333 138 199 c 0
 156.666666667 219 181 229 211 229 c 256
 241 229 266.666666667 218.333333333 288 197 c 256
 309.333333333 175.666666667 320 150 320 120 c 0
 320 82 308.333333333 51.3333333333 285 28 c 0
 261.666666667 5.33333333333 230.333333333 -6 191 -6 c 0
 149 -6 113.333333333 11.3333333333 84 46 c 0
 54 81.3333333333 39 123.666666667 39 173 c 1
 39 173 l 1
820 137 m 1
 820 166.333333333 815.333333333 194 806 220 c 0
 796.666666667 246.666666667 783 269.333333333 765 288 c 1
 747.666666667 270 734 247.666666667 724 221 c 0
 714.666666667 195 710 167 710 137 c 0
 710 111 715.666666667 89 727 71 c 256
 738.333333333 53 752 44 768 44 c 0
 782.666666667 44 795 53 805 71 c 256
 815 89 820 111 820 137 c 1
 820 137 l 1
537 137 m 1
 537 165.666666667 532 193 522 219 c 0
 511.333333333 245.666666667 496.666666667 269 478 289 c 1
 457.333333333 265.666666667 441.333333333 241 430 215 c 256
 418.666666667 189 413 163 413 137 c 256
 413 111 419 89 431 71 c 256
 443 53 457.333333333 44 474 44 c 0
 491.333333333 44 506.333333333 53 519 71 c 0
 531 89 537 111 537 137 c 1
 537 137 l 1
245 118 m 1
 245 137.333333333 240 154 230 168 c 256
 220 182 207.666666667 189 193 189 c 256
 178.333333333 189 166 182 156 168 c 256
 146 154 141 137 141 117 c 256
 141 97 146 79.6666666667 156 65 c 0
 166 51 178.333333333 44 193 44 c 256
 207.666666667 44 220 51.3333333333 230 66 c 0
 240 80 245 97.3333333333 245 118 c 1
 245 118 l 1
EndSplineSet
EndChar

StartChar: uni0BA4
Encoding: 279 2980 24
Width: 583
GlyphClass: 2
Flags: HW
LayerCount: 2
Back
Fore
SplineSet
556 85 m 1
 556 29.6666666667 535 -14.6666666667 493 -48 c 0
 450.333333333 -81.3333333333 394 -98 324 -98 c 2
 103 -98 l 2
 87 -98 73.3333333333 -101.666666667 62 -109 c 0
 50.6666666667 -117 45 -126.333333333 45 -137 c 1
 54 -135 l 2
 65.3333333333 -135 75 -139.333333333 83 -148 c 0
 91 -156 95 -166 95 -178 c 256
 95 -190 90.6666666667 -200.333333333 82 -209 c 0
 72.6666666667 -217.666666667 61.6666666667 -222 49 -222 c 0
 35.6666666667 -222 24 -216.666666667 14 -206 c 0
 4.66666666667 -196 0 -183.666666667 0 -169 c 0
 0 -141 10.3333333333 -117.333333333 31 -98 c 0
 52.3333333333 -78 77.6666666667 -68 107 -68 c 2
 328 -68 l 2
 370 -68 406 -52.6666666667 436 -22 c 0
 466 8 481 44.6666666667 481 88 c 0
 481 114.666666667 473.666666667 137.666666667 459 157 c 0
 444.333333333 175.666666667 426.666666667 185 406 185 c 2
 357 185 l 1
 357 131 l 2
 357 87 340.666666667 54 308 32 c 0
 274.666666667 9.33333333333 225.666666667 -2 161 -2 c 0
 123.666666667 -2 91.6666666667 11.3333333333 65 38 c 256
 38.3333333333 64.6666666667 25 96.6666666667 25 134 c 0
 25 158.666666667 33.6666666667 178.333333333 51 193 c 0
 67.6666666667 207.666666667 90.3333333333 215 119 215 c 2
 144 215 l 1
 144 400 l 1
 491 400 l 1
 491 370 l 1
 357 370 l 1
 357 215 l 1
 406 215 l 2
 447.333333333 215 482.666666667 202.333333333 512 177 c 256
 541.333333333 151.666666667 556 121 556 85 c 1
 556 85 l 1
282 215 m 1
 282 370 l 1
 174 370 l 1
 174 215 l 1
 282 215 l 1
 282 215 l 1
282 138 m 1
 282 185 l 1
 113 185 l 2
 97 185 83.3333333333 180 72 170 c 0
 60.6666666667 160.666666667 55 149 55 135 c 0
 55 102.333333333 64.6666666667 76.3333333333 84 57 c 256
 103.333333333 37.6666666667 129.333333333 28 162 28 c 0
 195.333333333 28 223.666666667 38.6666666667 247 60 c 256
 270.333333333 81.3333333333 282 107.333333333 282 138 c 1
 282 138 l 1
EndSplineSet
EndChar

StartChar: uni0BA8
Encoding: 280 2984 25
Width: 562
GlyphClass: 2
Flags: HW
LayerCount: 2
Back
Fore
SplineSet
526 103 m 1
 526 39.6666666667 507.333333333 -9.66666666667 470 -45 c 256
 432.666666667 -80.3333333333 380 -98 312 -98 c 2
 137 -98 l 2
 119.666666667 -98 104.666666667 -101.666666667 92 -109 c 0
 80 -117 74 -126.333333333 74 -137 c 1
 84 -136 l 2
 86.6666666667 -135.333333333 88.3333333333 -135 89 -135 c 0
 100.333333333 -135 109.666666667 -139.333333333 117 -148 c 0
 125 -157.333333333 129 -168.333333333 129 -181 c 0
 129 -191.666666667 124.666666667 -201 116 -209 c 0
 106.666666667 -216.333333333 95.6666666667 -220 83 -220 c 0
 69.6666666667 -220 58 -215 48 -205 c 0
 38.6666666667 -195 34 -183 34 -169 c 0
 34 -141 44.3333333333 -117.333333333 65 -98 c 0
 86.3333333333 -78 111.666666667 -68 141 -68 c 2
 315 -68 l 2
 361.666666667 -68 396 -54 418 -26 c 256
 440 2 451 45.6666666667 451 105 c 0
 451 135.666666667 443 162 427 184 c 0
 411.666666667 206 392.666666667 217 370 217 c 0
 362 217 353.666666667 215 345 211 c 256
 336.333333333 207 328.333333333 201.333333333 321 194 c 1
 321 0 l 1
 246 0 l 1
 246 370 l 1
 100 370 l 1
 100 0 l 1
 70 0 l 1
 70 400 l 1
 504 400 l 1
 504 370 l 1
 321 370 l 1
 321 230 l 1
 328.333333333 235.333333333 338 239.666666667 350 243 c 0
 362 245.666666667 376 247 392 247 c 0
 429.333333333 247 461 233 487 205 c 256
 513 177 526 143 526 103 c 1
 526 103 l 1
EndSplineSet
EndChar

StartChar: uni0BA9
Encoding: 281 2985 26
Width: 882
GlyphClass: 2
Flags: HW
LayerCount: 2
Back
Fore
SplineSet
876 367 m 1
 768 367 l 1
 768 0 l 1
 693 0 l 1
 693 367 l 1
 635 367 l 2
 606.333333333 367 581 363.666666667 559 357 c 0
 537.666666667 349.666666667 521.333333333 339.666666667 510 327 c 1
 537.333333333 303 558.666666667 274.333333333 574 241 c 256
 589.333333333 207.666666667 597 173 597 137 c 0
 597 97.6666666667 586.666666667 64.3333333333 566 37 c 0
 544.666666667 9 519.333333333 -5 490 -5 c 256
 460.666666667 -5 435.333333333 9 414 37 c 0
 393.333333333 64.3333333333 383 97.6666666667 383 137 c 0
 383 172.333333333 389 205.333333333 401 236 c 0
 413.666666667 266.666666667 431 292 453 312 c 1
 431.666666667 330 406.333333333 343.666666667 377 353 c 256
 347.666666667 362.333333333 316 367 282 367 c 0
 222.666666667 367 172 348 130 310 c 256
 88 272 67 226 67 172 c 0
 67 138 74 108.333333333 88 83 c 0
 101.333333333 57.6666666667 119 41.6666666667 141 35 c 1
 131 41.6666666667 123 52.3333333333 117 67 c 256
 111 81.6666666667 108 98.3333333333 108 117 c 0
 108 151 117.333333333 178 136 198 c 0
 155.333333333 218.666666667 180.666666667 229 212 229 c 0
 240.666666667 229 265.333333333 218.333333333 286 197 c 256
 306.666666667 175.666666667 317 150 317 120 c 0
 317 82 305 51.6666666667 281 29 c 256
 257 6.33333333333 225 -5 185 -5 c 0
 144.333333333 -5 109.333333333 12 80 46 c 0
 51.3333333333 80.6666666667 37 122 37 170 c 0
 37 232.666666667 62.3333333333 286.333333333 113 331 c 0
 163 375 223.666666667 397 295 397 c 0
 338.333333333 397 376.666666667 392.666666667 410 384 c 0
 444 376 470.666666667 364 490 348 c 1
 504 364.666666667 523.666666667 377.333333333 549 386 c 0
 574.333333333 395.333333333 603.333333333 400 636 400 c 2
 876 400 l 1
 876 367 l 1
 876 367 l 1
522 137 m 1
 522 169.666666667 517.666666667 198.666666667 509 224 c 0
 499.666666667 250 487 270 471 284 c 1
 453 270 438.666666667 250 428 224 c 0
 418 198 413 169 413 137 c 0
 413 112.333333333 418.333333333 91 429 73 c 0
 439.666666667 55.6666666667 452.666666667 47 468 47 c 0
 482.666666667 47 495.333333333 55.6666666667 506 73 c 0
 516.666666667 91 522 112.333333333 522 137 c 1
 522 137 l 1
242 120 m 1
 242 139.333333333 237 155.666666667 227 169 c 256
 217 182.333333333 204.666666667 189 190 189 c 256
 175.333333333 189 163 182.333333333 153 169 c 0
 143 156.333333333 138 140.666666667 138 122 c 0
 138 101.333333333 142.666666667 83.6666666667 152 69 c 0
 162 54.3333333333 173.666666667 47 187 47 c 0
 202.333333333 47 215.333333333 54 226 68 c 0
 236.666666667 82.6666666667 242 100 242 120 c 1
 242 120 l 1
EndSplineSet
EndChar

StartChar: uni0BAA
Encoding: 282 2986 27
Width: 665
GlyphClass: 2
Flags: HW
LayerCount: 2
Back
Fore
SplineSet
595 0 m 1
 70 0 l 1
 70 400 l 1
 145 400 l 1
 145 30 l 1
 520 30 l 1
 520 400 l 1
 595 400 l 1
 595 0 l 1
 595 0 l 1
EndSplineSet
EndChar

StartChar: uni0BAE
Encoding: 283 2990 28
Width: 682
GlyphClass: 2
Flags: HW
LayerCount: 2
Back
Fore
SplineSet
331 272 m 1
 331 307.333333333 345.333333333 337.666666667 374 363 c 256
 402.666666667 388.333333333 437 401 477 401 c 0
 525 401 563.666666667 380.666666667 593 340 c 0
 621.666666667 299.333333333 636 245.333333333 636 178 c 0
 636 124 625 81 603 49 c 0
 581 16.3333333333 551.666666667 0 515 0 c 2
 70 0 l 1
 70 400 l 1
 145 400 l 1
 145 30 l 1
 331 30 l 1
 331 272 l 1
 331 272 l 1
406 275 m 1
 406 30 l 1
 505 30 l 2
 535.666666667 30 560 43.6666666667 578 71 c 0
 596.666666667 98.3333333333 606 134.666666667 606 180 c 0
 606 238 595 284.333333333 573 319 c 0
 550.333333333 353.666666667 520.666666667 371 484 371 c 0
 462.666666667 371 444.333333333 361.666666667 429 343 c 256
 413.666666667 324.333333333 406 301.666666667 406 275 c 1
 406 275 l 1
EndSplineSet
EndChar

StartChar: uni0BAF
Encoding: 284 2991 29
Width: 683
GlyphClass: 2
Flags: HW
LayerCount: 2
Back
Fore
SplineSet
613 0 m 1
 261 0 l 1
 261 66 l 1
 256.333333333 46.6666666667 245 31 227 19 c 256
 209 7 188 1 164 1 c 0
 136.666666667 1 113 12.6666666667 93 36 c 0
 73.6666666667 58.6666666667 64 86.3333333333 64 119 c 2
 64 400 l 1
 139 400 l 1
 139 113 l 2
 139 90.3333333333 144 71 154 55 c 256
 164 39 176.333333333 31 191 31 c 256
 205.666666667 31 218 39 228 55 c 0
 238.666666667 70.3333333333 244 89.3333333333 244 112 c 2
 244 400 l 1
 319 400 l 1
 319 30 l 1
 538 30 l 1
 538 400 l 1
 613 400 l 1
 613 0 l 1
 613 0 l 1
EndSplineSet
EndChar

StartChar: uni0BB0
Encoding: 285 2992 30
Width: 450
GlyphClass: 2
Flags: HW
LayerCount: 2
Back
Fore
SplineSet
445 370 m 1
 323 370 l 1
 323 14 l 1
 63 -165 l 1
 46 -142 l 1
 248 0 l 1
 248 370 l 1
 100 370 l 1
 100 0 l 1
 70 0 l 1
 70 400 l 1
 445 400 l 1
 445 370 l 1
 445 370 l 1
EndSplineSet
EndChar

StartChar: uni0BB1
Encoding: 286 2993 31
Width: 637
GlyphClass: 2
Flags: HW
LayerCount: 2
Back
Fore
SplineSet
591 172 m 1
 591 97.3333333333 568.666666667 33.6666666667 524 -19 c 256
 479.333333333 -71.6666666667 425.333333333 -98 362 -98 c 2
 153 -98 l 2
 136.333333333 -98 122 -101.666666667 110 -109 c 0
 97.3333333333 -116.333333333 89.6666666667 -125.666666667 87 -137 c 1
 105 -135 l 2
 116.333333333 -135 125.666666667 -139.333333333 133 -148 c 0
 141 -157.333333333 145 -168.333333333 145 -181 c 0
 145 -191.666666667 140.666666667 -201 132 -209 c 0
 122.666666667 -216.333333333 111.666666667 -220 99 -220 c 0
 85.6666666667 -220 74 -215 64 -205 c 0
 54.6666666667 -195 50 -183 50 -169 c 0
 50 -141 60 -117.333333333 80 -98 c 0
 100 -78 124 -68 152 -68 c 2
 359 -68 l 2
 402.333333333 -68 439.333333333 -44.6666666667 470 2 c 0
 500.666666667 49.3333333333 516 106 516 172 c 0
 516 228 505.333333333 275.666666667 484 315 c 256
 462.666666667 354.333333333 436.666666667 374 406 374 c 0
 382 374 361.666666667 363.333333333 345 342 c 0
 328.333333333 321.333333333 320 296 320 266 c 2
 320 0 l 1
 245 0 l 1
 245 310 l 2
 245 328 237.666666667 343 223 355 c 0
 209 367.666666667 191.666666667 374 171 374 c 256
 150.333333333 374 132.333333333 367 117 353 c 0
 102.333333333 339.666666667 95 323.333333333 95 304 c 2
 95 0 l 1
 65 0 l 1
 65 302 l 2
 65 330 76 354 98 374 c 256
 120 394 146.333333333 404 177 404 c 0
 206.333333333 404 232.666666667 397.333333333 256 384 c 0
 278.666666667 370.666666667 294 353 302 331 c 1
 310.666666667 353 325.333333333 370.666666667 346 384 c 256
 366.666666667 397.333333333 389.333333333 404 414 404 c 0
 462.666666667 404 504.333333333 381.333333333 539 336 c 256
 573.666666667 290.666666667 591 236 591 172 c 1
 591 172 l 1
EndSplineSet
EndChar

StartChar: uni0BB2
Encoding: 287 2994 32
Width: 736
GlyphClass: 2
Flags: HW
LayerCount: 2
Back
Fore
SplineSet
686 204 m 1
 686 137.333333333 672.333333333 86.6666666667 645 52 c 0
 617 18 576 1 522 1 c 0
 478.666666667 1 444 11.3333333333 418 32 c 256
 392 52.6666666667 379 80 379 114 c 2
 379 247 l 2
 379 283.666666667 368 313.333333333 346 336 c 0
 324 358 295 369 259 369 c 0
 206.333333333 369 161.333333333 350.666666667 124 314 c 256
 86.6666666667 277.333333333 68 233.333333333 68 182 c 0
 68 152.666666667 73.6666666667 125.666666667 85 101 c 0
 97 77 113 58 133 44 c 1
 125 52 118.666666667 63 114 77 c 0
 110 90.3333333333 108 105.666666667 108 123 c 0
 108 151.666666667 117.333333333 176.333333333 136 197 c 0
 154 217.666666667 176 228 202 228 c 0
 236 228 263 218.333333333 283 199 c 0
 303.666666667 179 314 152.666666667 314 120 c 0
 314 84 302.666666667 55.3333333333 280 34 c 0
 258 12 228.333333333 1 191 1 c 0
 149 1 113 18.3333333333 83 53 c 0
 53 88.3333333333 38 130.666666667 38 180 c 0
 38 240.666666667 60 292.666666667 104 336 c 0
 147.333333333 378.666666667 200 400 262 400 c 0
 320 400 366.666666667 386 402 358 c 0
 436.666666667 330 454 292.666666667 454 246 c 2
 454 117 l 2
 454 93 460.333333333 72.6666666667 473 56 c 256
 485.666666667 39.3333333333 501 31 519 31 c 0
 560.333333333 31 593.666666667 46.6666666667 619 78 c 0
 643.666666667 110 656 152 656 204 c 0
 656 226 648.666666667 250.333333333 634 277 c 0
 619.333333333 304.333333333 598.333333333 332 571 360 c 0
 566.333333333 364.666666667 562.666666667 370 560 376 c 0
 557.333333333 381.333333333 556 386.666666667 556 392 c 0
 556 400 559.333333333 407 566 413 c 0
 572 419 579.666666667 422 589 422 c 0
 615.666666667 422 638.666666667 400.666666667 658 358 c 0
 676.666666667 315.333333333 686 264 686 204 c 1
 686 204 l 1
239 114 m 1
 239 137.333333333 234.333333333 157 225 173 c 0
 215.666666667 189.666666667 204.333333333 198 191 198 c 0
 176.333333333 198 164 189.666666667 154 173 c 0
 143.333333333 157 138 137.333333333 138 114 c 0
 138 91.3333333333 143 71.6666666667 153 55 c 0
 162.333333333 39 174 31 188 31 c 256
 202 31 214 39 224 55 c 0
 234 71.6666666667 239 91.3333333333 239 114 c 1
 239 114 l 1
EndSplineSet
EndChar

StartChar: uni0BB3
Encoding: 288 2995 33
Width: 805
GlyphClass: 2
Flags: HW
LayerCount: 2
Back
Fore
SplineSet
799 367 m 1
 705 367 l 1
 705 0 l 1
 630 0 l 1
 630 367 l 1
 484 367 l 1
 484 0 l 1
 409 0 l 1
 409 238 l 1
 395.666666667 276.666666667 375.333333333 307.666666667 348 331 c 0
 320.666666667 355 291.333333333 367 260 367 c 0
 206.666666667 367 161.333333333 347.666666667 124 309 c 0
 86 271 67 224.666666667 67 170 c 0
 67 139.333333333 73.6666666667 112.333333333 87 89 c 0
 101 65 119 49 141 41 c 1
 134.333333333 48.3333333333 129 59.3333333333 125 74 c 0
 121.666666667 89.3333333333 120 107 120 127 c 0
 120 159.666666667 128.333333333 186 145 206 c 0
 162.333333333 225.333333333 185 235 213 235 c 0
 249 235 277.666666667 224.666666667 299 204 c 256
 320.333333333 183.333333333 331 156 331 122 c 0
 331 84.6666666667 319 55 295 33 c 0
 271 10.3333333333 239 -1 199 -1 c 0
 154.333333333 -1 116 15.3333333333 84 48 c 0
 52.6666666667 81.3333333333 37 121.333333333 37 168 c 0
 37 231.333333333 58.6666666667 285.333333333 102 330 c 0
 146 374.666666667 198.666666667 397 260 397 c 0
 297.333333333 397 331 391 361 379 c 256
 391 367 414.333333333 350.333333333 431 329 c 1
 431 400 l 1
 799 400 l 1
 799 367 l 1
 799 367 l 1
256 119 m 1
 256 138.333333333 250.666666667 155 240 169 c 0
 230 183 217.666666667 190 203 190 c 256
 188.333333333 190 176 183 166 169 c 0
 155.333333333 155 150 138 150 118 c 0
 150 97.3333333333 155 80 165 66 c 0
 175 51.3333333333 187.333333333 44 202 44 c 256
 216.666666667 44 229.333333333 51.3333333333 240 66 c 256
 250.666666667 80.6666666667 256 98.3333333333 256 119 c 1
 256 119 l 1
EndSplineSet
EndChar

StartChar: uni0BB4
Encoding: 289 2996 34
Width: 680
GlyphClass: 2
Flags: HW
LayerCount: 2
Back
Fore
SplineSet
70 0 m 1
 70 400 l 1
 145 400 l 1
 145 30 l 1
 331 30 l 1
 331 267 l 2
 331 302.333333333 345.333333333 332.666666667 374 358 c 256
 402.666666667 383.333333333 437 396 477 396 c 0
 521 396 558.333333333 376.333333333 589 337 c 0
 620.333333333 297 636 249 636 193 c 0
 636 134.333333333 625 87.6666666667 603 53 c 0
 580.333333333 17.6666666667 550.666666667 0 514 0 c 2
 405 0 l 1
 405 -19.3333333333 409.333333333 -36 418 -50 c 256
 426.666666667 -64 437 -71 449 -71 c 2
 533 -71 l 1
 533 -101 l 1
 425 -101 l 2
 405.666666667 -101 389.333333333 -109.333333333 376 -126 c 0
 362.666666667 -142 356 -161.666666667 356 -185 c 0
 356 -211 339.666666667 -233.333333333 307 -252 c 0
 275 -270.666666667 236 -280 190 -280 c 0
 147.333333333 -280 113.333333333 -270.333333333 88 -251 c 256
 62.6666666667 -231.666666667 50 -205.666666667 50 -173 c 0
 50 -145 61.6666666667 -121 85 -101 c 256
 108.333333333 -81 136.333333333 -71 169 -71 c 0
 182.333333333 -71 194 -76 204 -86 c 0
 213.333333333 -95.3333333333 218 -107 218 -121 c 0
 218 -132.333333333 214.333333333 -142.333333333 207 -151 c 0
 199.666666667 -159 190.666666667 -163 180 -163 c 0
 170 -163 161.333333333 -159.333333333 154 -152 c 256
 146.666666667 -144.666666667 143 -136 143 -126 c 0
 142.333333333 -122 142.666666667 -118 144 -114 c 0
 146 -110 148.666666667 -107 152 -105 c 1
 132 -105 115 -111.666666667 101 -125 c 256
 87 -138.333333333 80 -154.666666667 80 -174 c 0
 80 -194.666666667 90.6666666667 -212.666666667 112 -228 c 0
 133.333333333 -242.666666667 159 -250 189 -250 c 0
 214.333333333 -250 236 -241.333333333 254 -224 c 0
 272 -206 281 -184.666666667 281 -160 c 256
 281 -135.333333333 292 -114.333333333 314 -97 c 0
 334.666666667 -79.6666666667 360 -71 390 -71 c 1
 373.333333333 -68.3333333333 359.333333333 -60.6666666667 348 -48 c 0
 336.666666667 -34.6666666667 331 -18.6666666667 331 0 c 1
 70 0 l 1
406 30 m 1
 515 30 l 2
 540.333333333 30 561.666666667 46 579 78 c 0
 597 110.666666667 606 149.666666667 606 195 c 0
 606 242.333333333 594 282.666666667 570 316 c 0
 546.666666667 349.333333333 518 366 484 366 c 0
 462.666666667 366 444.333333333 356.666666667 429 338 c 256
 413.666666667 319.333333333 406 297 406 271 c 2
 406 30 l 1
EndSplineSet
EndChar

StartChar: uni0BB5
Encoding: 290 2997 35
Width: 757
GlyphClass: 2
Flags: HW
LayerCount: 2
Back
Fore
SplineSet
687 0 m 1
 347 0 l 1
 347 27 l 1
 371.666666667 39.6666666667 391 61 405 91 c 0
 419.666666667 121.666666667 427 156.666666667 427 196 c 0
 427 242.666666667 409.333333333 282.666666667 374 316 c 0
 339.333333333 349.333333333 297 366 247 366 c 0
 197.666666667 366 155.333333333 348 120 312 c 0
 85.3333333333 276 68 232.666666667 68 182 c 0
 68 152.666666667 73.6666666667 125.666666667 85 101 c 0
 97 77 113 58 133 44 c 1
 125 54 118.666666667 65.6666666667 114 79 c 0
 110 93 108 107.666666667 108 123 c 0
 108 155 116.666666667 180.333333333 134 199 c 0
 152 218.333333333 175.666666667 228 205 228 c 0
 237.666666667 228 264 218.333333333 284 199 c 256
 304 179.666666667 314 154 314 122 c 0
 314 85.3333333333 303.333333333 56 282 34 c 256
 260.666666667 12 232 1 196 1 c 0
 148 1 109.666666667 17.3333333333 81 50 c 0
 52.3333333333 83.3333333333 38 127.333333333 38 182 c 0
 38 241.333333333 60 291.666666667 104 333 c 0
 147.333333333 375 200 396 262 396 c 0
 328 396 384.666666667 375.666666667 432 335 c 0
 478.666666667 294.333333333 502 245.333333333 502 188 c 0
 502 152.666666667 496.666666667 121 486 93 c 256
 475.333333333 65 460.666666667 44 442 30 c 1
 612 30 l 1
 612 400 l 1
 687 400 l 1
 687 0 l 1
 687 0 l 1
239 119 m 1
 239 141 234.333333333 159.666666667 225 175 c 256
 215.666666667 190.333333333 204.333333333 198 191 198 c 0
 176.333333333 198 164 190.333333333 154 175 c 0
 143.333333333 159.666666667 138 141.333333333 138 120 c 0
 138 95.3333333333 143 74.3333333333 153 57 c 0
 162.333333333 39.6666666667 174 31 188 31 c 256
 202 31 214 39.6666666667 224 57 c 256
 234 74.3333333333 239 95 239 119 c 1
 239 119 l 1
EndSplineSet
EndChar

StartChar: uni0BB7
Encoding: 291 2999 36
Width: 999
GlyphClass: 2
Flags: HW
LayerCount: 2
Back
Fore
SplineSet
946 0 m 1
 766 0 l 1
 766 -242 l 1
 691 -242 l 1
 691 0 l 1
 351 0 l 1
 351 27 l 1
 375.666666667 41 395.333333333 63.3333333333 410 94 c 0
 424 124 431 158 431 196 c 0
 431 241.333333333 414.666666667 279.666666667 382 311 c 0
 349.333333333 343 310 359 264 359 c 0
 209.333333333 359 163 341.666666667 125 307 c 0
 86.3333333333 272.333333333 67 230.666666667 67 182 c 0
 67 153.333333333 73.3333333333 127 86 103 c 0
 98 78.3333333333 115 58.6666666667 137 44 c 1
 129 54 122.666666667 65.3333333333 118 78 c 0
 114 90.6666666667 112 104 112 118 c 0
 112 154 121 183 139 205 c 0
 157.666666667 227 182 238 212 238 c 0
 244 238 269.666666667 227.333333333 289 206 c 0
 308.333333333 185.333333333 318 157.333333333 318 122 c 0
 318 84 306.666666667 53.3333333333 284 30 c 0
 262 7.33333333333 232.333333333 -4 195 -4 c 0
 151.666666667 -4 114.333333333 14.3333333333 83 51 c 0
 52.3333333333 88.3333333333 37 133 37 185 c 0
 37 241 59.3333333333 289 104 329 c 256
 148.666666667 369 202.666666667 389 266 389 c 0
 332 389 388.666666667 369.666666667 436 331 c 0
 482.666666667 291.666666667 506 244.666666667 506 190 c 0
 506 154.666666667 500.333333333 123 489 95 c 0
 478.333333333 66.3333333333 463 44.6666666667 443 30 c 1
 691 30 l 1
 691 164 l 1
 652.333333333 164 621.666666667 174.666666667 599 196 c 0
 575.666666667 217.333333333 564 245.666666667 564 281 c 0
 564 313.666666667 574 340 594 360 c 0
 614.666666667 379.333333333 641.666666667 389 675 389 c 0
 700.333333333 389 721.666666667 380.666666667 739 364 c 0
 757 347.333333333 766 327.333333333 766 304 c 2
 766 193 l 1
 800 193 832 203 862 223 c 256
 892 243 915.333333333 270 932 304 c 1
 946 304 l 1
 946 0 l 1
 946 0 l 1
691 188 m 1
 691 302 l 2
 691 318 687 331.333333333 679 342 c 0
 671 353.333333333 661.333333333 359 650 359 c 0
 634.666666667 359 621.333333333 351.333333333 610 336 c 0
 599.333333333 320.666666667 594 302.333333333 594 281 c 0
 594 255 603.333333333 233 622 215 c 0
 641.333333333 197 664.333333333 188 691 188 c 1
 691 188 l 1
243 119 m 1
 243 138.333333333 238 154.666666667 228 168 c 256
 218 181.333333333 206 188 192 188 c 256
 178 188 166.333333333 181.333333333 157 168 c 0
 147 154.666666667 142 138.333333333 142 119 c 0
 142 100.333333333 147 84.3333333333 157 71 c 0
 166.333333333 57.6666666667 178 51 192 51 c 256
 206 51 218 57.6666666667 228 71 c 256
 238 84.3333333333 243 100.333333333 243 119 c 1
 243 119 l 1
871 30 m 1
 871 194 l 1
 857.666666667 184 842 176.666666667 824 172 c 0
 806 166.666666667 786.666666667 164 766 164 c 1
 766 30 l 1
 871 30 l 1
 871 30 l 1
EndSplineSet
EndChar

StartChar: uni0BB8
Encoding: 292 3000 37
Width: 1038
GlyphClass: 2
Flags: HW
LayerCount: 2
Back
Fore
SplineSet
989 204 m 1
 989 140.666666667 974 89.6666666667 944 51 c 0
 914 13 874.333333333 -6 825 -6 c 0
 783 -6 749.666666667 5 725 27 c 0
 699.666666667 49 687 78 687 114 c 2
 687 257 l 2
 687 287 677.333333333 312.333333333 658 333 c 0
 639.333333333 354.333333333 616.333333333 365 589 365 c 0
 565 365 544.333333333 355.666666667 527 337 c 256
 509.666666667 318.333333333 501 295.666666667 501 269 c 2
 501 0 l 1
 426 0 l 1
 426 235 l 2
 426 272.333333333 410.333333333 304.333333333 379 331 c 256
 347.666666667 357.666666667 309.666666667 371 265 371 c 0
 210.333333333 371 164 351.333333333 126 312 c 0
 87.3333333333 272.666666667 68 225.333333333 68 170 c 0
 68 139.333333333 74.6666666667 112.333333333 88 89 c 0
 102 65 120 49 142 41 c 1
 133.333333333 51 127 63 123 77 c 0
 118.333333333 91.6666666667 116 107.333333333 116 124 c 0
 116 157.333333333 125.666666667 184.333333333 145 205 c 0
 165 225 191.333333333 235 224 235 c 256
 256.666666667 235 283 224.666666667 303 204 c 0
 322.333333333 183.333333333 332 156 332 122 c 0
 332 86.6666666667 319 56.3333333333 293 31 c 0
 267.666666667 6.33333333333 236.666666667 -6 200 -6 c 0
 155.333333333 -6 117 11 85 45 c 0
 53.6666666667 79 38 120 38 168 c 0
 38 232.666666667 60.3333333333 287.666666667 105 333 c 256
 149.666666667 378.333333333 203.333333333 401 266 401 c 0
 315.333333333 401 359 392.333333333 397 375 c 256
 435 357.666666667 461 334.333333333 475 305 c 1
 481.666666667 331.666666667 496.666666667 353.333333333 520 370 c 0
 542.666666667 386.666666667 569 395 599 395 c 0
 644.333333333 395 682.666666667 381.333333333 714 354 c 0
 746 327.333333333 762 294.666666667 762 256 c 2
 762 117 l 2
 762 91 768.666666667 69 782 51 c 256
 795.333333333 33 811.333333333 24 830 24 c 0
 869.333333333 24 900.666666667 40.3333333333 924 73 c 256
 947.333333333 105.666666667 959 149.333333333 959 204 c 0
 959 232 950 260 932 288 c 0
 919.333333333 308.666666667 899.666666667 332.666666667 873 360 c 0
 868.333333333 364.666666667 865 370 863 376 c 0
 860.333333333 381.333333333 859 386.666666667 859 392 c 0
 859 400 862.333333333 407 869 413 c 0
 875 419 882.666666667 422 892 422 c 0
 918.666666667 422 941.666666667 400.666666667 961 358 c 0
 979.666666667 315.333333333 989 264 989 204 c 1
 989 204 l 1
257 119 m 1
 257 138.333333333 251.666666667 155 241 169 c 0
 229.666666667 183 216.333333333 190 201 190 c 256
 185.666666667 190 172.666666667 183 162 169 c 256
 151.333333333 155 146 138.333333333 146 119 c 0
 146 97 151.333333333 78 162 62 c 0
 172.666666667 46.6666666667 185.666666667 39 201 39 c 256
 216.333333333 39 229.666666667 46.6666666667 241 62 c 0
 251.666666667 78 257 97 257 119 c 1
 257 119 l 1
EndSplineSet
EndChar

StartChar: uni0BB9
Encoding: 293 3001 38
Width: 1162
GlyphClass: 2
Flags: HW
LayerCount: 2
Back
Fore
SplineSet
1115 172 m 1
 1115 98.6666666667 1091.66666667 36 1045 -16 c 0
 999 -68 943 -94 877 -94 c 2
 141 -94 l 2
 121 -94 103.666666667 -98.3333333333 89 -107 c 0
 75 -115.666666667 68 -126.333333333 68 -139 c 1
 93 -135 l 2
 104.333333333 -135 113.666666667 -139.333333333 121 -148 c 0
 129 -157.333333333 133 -168.333333333 133 -181 c 0
 133 -191.666666667 128.666666667 -201 120 -209 c 0
 110.666666667 -216.333333333 99.6666666667 -220 87 -220 c 0
 73.6666666667 -220 62 -214.666666667 52 -204 c 0
 42.6666666667 -192.666666667 38 -179.333333333 38 -164 c 0
 38 -136.666666667 48 -113 68 -93 c 0
 88 -73.6666666667 112 -64 140 -64 c 2
 872 -64 l 2
 918.666666667 -64 958.333333333 -41 991 5 c 0
 1023.66666667 50.3333333333 1040 105.333333333 1040 170 c 0
 1040 228.666666667 1030 275.666666667 1010 311 c 256
 990 346.333333333 963.333333333 364 930 364 c 0
 908.666666667 364 890.333333333 354.666666667 875 336 c 256
 859.666666667 317.333333333 852 295 852 269 c 2
 852 0 l 1
 777 0 l 1
 777 295 l 2
 777 314.333333333 771.666666667 330.666666667 761 344 c 256
 750.333333333 357.333333333 737.666666667 364 723 364 c 0
 707.666666667 364 694.333333333 357 683 343 c 0
 672.333333333 329.666666667 667 313.333333333 667 294 c 2
 667 0 l 1
 348 0 l 1
 348 27 l 1
 372.666666667 41 392.333333333 63.3333333333 407 94 c 0
 421 124 428 158 428 196 c 0
 428 244 411.666666667 285.333333333 379 320 c 0
 346.333333333 354 307 371 261 371 c 0
 207.666666667 371 162.333333333 352.666666667 125 316 c 0
 87 278.666666667 68 234 68 182 c 0
 68 152.666666667 74 126 86 102 c 0
 97.3333333333 77.3333333333 113.333333333 58 134 44 c 1
 126 52 119.666666667 63 115 77 c 0
 111 90.3333333333 109 105.666666667 109 123 c 0
 109 155 118 180.333333333 136 199 c 0
 154.666666667 218.333333333 179 228 209 228 c 0
 241 228 266.666666667 218.333333333 286 199 c 256
 305.333333333 179.666666667 315 154 315 122 c 0
 315 84 303.666666667 53.3333333333 281 30 c 0
 259 7.33333333333 229.333333333 -4 192 -4 c 0
 149.333333333 -4 113 14 83 50 c 256
 53 86 38 129.333333333 38 180 c 0
 38 241.333333333 60 293.333333333 104 336 c 0
 148 379.333333333 201 401 263 401 c 0
 329 401 385.666666667 380.333333333 433 339 c 0
 479.666666667 297.666666667 503 248 503 190 c 0
 503 154.666666667 497.333333333 123 486 95 c 0
 475.333333333 66.3333333333 460 44.6666666667 440 30 c 1
 637 30 l 1
 637 292 l 2
 637 320 646 344 664 364 c 256
 682 384 703.666666667 394 729 394 c 0
 753.666666667 394 775.666666667 388.333333333 795 377 c 0
 814.333333333 365 827.333333333 349.666666667 834 331 c 1
 840 349.666666667 852.666666667 365 872 377 c 0
 891.333333333 388.333333333 913.333333333 394 938 394 c 0
 996.666666667 394 1040.66666667 375.333333333 1070 338 c 0
 1100 300.666666667 1115 245.333333333 1115 172 c 1
 1115 172 l 1
240 114 m 1
 240 133.333333333 235.333333333 149.666666667 226 163 c 256
 216.666666667 176.333333333 205.333333333 183 192 183 c 0
 177.333333333 183 165 176.333333333 155 163 c 0
 144.333333333 149.666666667 139 133.333333333 139 114 c 0
 139 95.3333333333 144 79.3333333333 154 66 c 0
 163.333333333 52.6666666667 175 46 189 46 c 256
 203 46 215 52.6666666667 225 66 c 256
 235 79.3333333333 240 95.3333333333 240 114 c 1
 240 114 l 1
EndSplineSet
EndChar

StartChar: uni0BBE
Encoding: 294 3006 39
Width: 450
GlyphClass: 2
Flags: HW
LayerCount: 2
Back
Fore
SplineSet
445 370 m 1
 323 370 l 1
 323 0 l 1
 248 0 l 1
 248 370 l 1
 100 370 l 1
 100 0 l 1
 70 0 l 1
 70 400 l 1
 445 400 l 1
 445 370 l 1
 445 370 l 1
EndSplineSet
EndChar

StartChar: uni0BBF
Encoding: 295 3007 40
Width: 432
GlyphClass: 2
Flags: HW
LayerCount: 2
Back
Fore
SplineSet
91 400 m 1
 77 426 70 456 70 490 c 0
 70 536.666666667 84.3333333333 576.666666667 113 610 c 0
 142.333333333 643.333333333 177.333333333 660 218 660 c 0
 258 660 292 643.333333333 320 610 c 256
 348 576.666666667 362 536.333333333 362 489 c 2
 362 0 l 1
 332 0 l 1
 332 487 l 2
 332 515.666666667 320.333333333 540.333333333 297 561 c 0
 273.666666667 581 245.666666667 591 213 591 c 0
 182.333333333 591 156.333333333 580.333333333 135 559 c 0
 113 537.666666667 102 511.666666667 102 481 c 0
 102 463.666666667 104 448.333333333 108 435 c 0
 112 421 117.666666667 409.333333333 125 400 c 1
 91 400 l 1
 91 400 l 1
EndSplineSet
EndChar

StartChar: uni0BC0
Encoding: 296 3008 41
Width: 478
GlyphClass: 2
Flags: HW
LayerCount: 2
Back
Fore
SplineSet
332 535 m 1
 332 554.333333333 327.666666667 570.666666667 319 584 c 0
 310.333333333 598 300 605 288 605 c 256
 276 605 266 598.333333333 258 585 c 0
 249.333333333 571.666666667 245 555.333333333 245 536 c 0
 245 517.333333333 249 501.333333333 257 488 c 0
 265.666666667 474.666666667 275.666666667 468 287 468 c 0
 299.666666667 468 310.333333333 474.666666667 319 488 c 0
 327.666666667 500.666666667 332 516.333333333 332 535 c 1
 332 535 l 1
70 494 m 1
 70 538 87.6666666667 575.666666667 123 607 c 256
 158.333333333 638.333333333 201 654 251 654 c 0
 298.333333333 654 336.333333333 643.333333333 365 622 c 256
 393.666666667 600.666666667 408 572.333333333 408 537 c 0
 408 506.333333333 398.666666667 482 380 464 c 0
 360.666666667 445.333333333 335.333333333 436 304 436 c 0
 276 436 253.333333333 444.666666667 236 462 c 0
 219.333333333 478.666666667 211 501.333333333 211 530 c 0
 211 547.333333333 213.666666667 563 219 577 c 0
 225 591 233 602 243 610 c 1
 203.666666667 610 170.333333333 598.666666667 143 576 c 0
 115 552.666666667 101 525 101 493 c 0
 101 473.666666667 103.666666667 456 109 440 c 256
 114.333333333 424 122 410.666666667 132 400 c 1
 96 400 l 1
 78.6666666667 428 70 459.333333333 70 494 c 1
 70 494 l 1
EndSplineSet
EndChar

StartChar: uni0BC1
Encoding: 297 3009 42
Width: 299
GlyphClass: 4
Flags: HW
LayerCount: 2
Back
Fore
SplineSet
-135 370 m 1
 -135 400 l 1
 274 400 l 1
 274 320 l 2
 274 294 263.666666667 272 243 254 c 0
 221.666666667 235.333333333 196.333333333 226 167 226 c 0
 138.333333333 226 113.666666667 235.333333333 93 254 c 0
 73 272 63 294 63 320 c 2
 63 370 l 1
 -135 370 l 1
 -135 370 l 1
199 321 m 1
 199 370 l 1
 93 370 l 1
 93 320 l 2
 93 302 98.3333333333 287 109 275 c 0
 120.333333333 262.333333333 133.666666667 256 149 256 c 0
 163 256 174.666666667 262.333333333 184 275 c 0
 194 287.666666667 199 303 199 321 c 1
 199 321 l 1
EndSplineSet
Substitution2: "Single Substitution lookup 7 subtable" uni0BC1.abvs
EndChar

StartChar: uni0BC2
Encoding: 298 3010 43
Width: 593
GlyphClass: 4
Flags: HW
LayerCount: 2
Back
Fore
SplineSet
553 289 m 1
 553 213.666666667 528.666666667 153 480 107 c 0
 430.666666667 61.6666666667 365.333333333 39 284 39 c 0
 214 39 158 59 116 99 c 256
 74 139 53 192.333333333 53 259 c 1
 89 259 l 1
 89 201.666666667 106.666666667 155.666666667 142 121 c 256
 177.333333333 86.3333333333 224.333333333 69 283 69 c 256
 341.666666667 69 389 89 425 129 c 0
 460.333333333 169 478 222 478 288 c 0
 478 354.666666667 464 408.333333333 436 449 c 0
 408 489 370.666666667 509 324 509 c 0
 289.333333333 509 260 498.333333333 236 477 c 0
 211.333333333 455.666666667 199 430 199 400 c 1
 374 400 l 1
 374 320 l 2
 374 294 363.666666667 271.666666667 343 253 c 256
 322.333333333 234.333333333 297.333333333 225 268 225 c 0
 239.333333333 225 215 234.333333333 195 253 c 0
 175 272.333333333 165 295.333333333 165 322 c 2
 165 370 l 1
 -135 370 l 1
 -135 400 l 1
 166 400 l 1
 166 438.666666667 181.666666667 471.333333333 213 498 c 0
 244.333333333 525.333333333 282 539 326 539 c 0
 394.666666667 539 449.666666667 516.333333333 491 471 c 0
 532.333333333 425 553 364.333333333 553 289 c 1
 553 289 l 1
299 321 m 1
 299 370 l 1
 195 370 l 1
 195 320 l 2
 195 302 200.333333333 286.666666667 211 274 c 256
 221.666666667 261.333333333 234.666666667 255 250 255 c 0
 263.333333333 255 275 261.333333333 285 274 c 0
 294.333333333 287.333333333 299 303 299 321 c 1
 299 321 l 1
EndSplineSet
Substitution2: "Single Substitution lookup 7 subtable" uni0BC2.abvs
EndChar

StartChar: uni0BC6
Encoding: 299 3014 44
Width: 713
GlyphClass: 2
Flags: HW
LayerCount: 2
Back
Fore
SplineSet
643 0 m 1
 613 0 l 1
 613 349 l 2
 613 418.333333333 587 477.333333333 535 526 c 0
 483.666666667 574.666666667 421.333333333 599 348 599 c 0
 264.666666667 599 197.666666667 572.666666667 147 520 c 0
 97 468 72 398.333333333 72 311 c 0
 72 226.333333333 94.3333333333 158.666666667 139 108 c 0
 184.333333333 57.3333333333 244.333333333 32 319 32 c 0
 325.666666667 32 333.333333333 31.6666666667 342 31 c 0
 348 30.3333333333 352 30.3333333333 354 31 c 1
 332 41.6666666667 314.333333333 59.3333333333 301 84 c 256
 287.666666667 108.666666667 281 136.666666667 281 168 c 0
 281 204.666666667 292 236 314 262 c 0
 336.666666667 288 363.666666667 301 395 301 c 0
 436.333333333 301 469.333333333 289 494 265 c 0
 518.666666667 241.666666667 531 210.333333333 531 171 c 0
 531 119.666666667 512 78.6666666667 474 48 c 0
 436.666666667 17.3333333333 386.666666667 2 324 2 c 0
 238.666666667 2 170.333333333 30.3333333333 119 87 c 0
 67.6666666667 143 42 218 42 312 c 0
 42 420 70.3333333333 506.333333333 127 571 c 0
 184.333333333 635.666666667 260.333333333 668 355 668 c 0
 442.333333333 668 512 639 564 581 c 0
 616.666666667 523 643 445.666666667 643 349 c 2
 643 0 l 1
 643 0 l 1
456 159 m 1
 456 185 449.333333333 207.333333333 436 226 c 256
 422.666666667 244.666666667 406.333333333 254 387 254 c 0
 366.333333333 254 348.333333333 245.333333333 333 228 c 0
 318.333333333 210 311 188.666666667 311 164 c 0
 311 137.333333333 317.333333333 113.333333333 330 92 c 256
 342.666666667 70.6666666667 359.666666667 55.3333333333 381 46 c 1
 403.666666667 54.6666666667 421.666666667 69.3333333333 435 90 c 0
 449 110.666666667 456 133.666666667 456 159 c 1
 456 159 l 1
EndSplineSet
EndChar

StartChar: uni0BC7
Encoding: 300 3015 45
Width: 629
GlyphClass: 2
Flags: HW
LayerCount: 2
Back
Fore
SplineSet
601 170 m 1
 601 122.666666667 575 82.3333333333 523 49 c 256
 471 15.6666666667 408.333333333 -1 335 -1 c 0
 253 -1 183 31.3333333333 125 96 c 256
 67 160.666666667 38 238.666666667 38 330 c 0
 38 422 67 500.333333333 125 565 c 0
 183 630.333333333 253 663 335 663 c 0
 408.333333333 663 471 645.666666667 523 611 c 0
 575 577 601 535.666666667 601 487 c 0
 601 454.333333333 590.666666667 428 570 408 c 0
 550 388.666666667 523 379 489 379 c 0
 459 379 435 388.666666667 417 408 c 256
 399 427.333333333 390 453 390 485 c 0
 390 506.333333333 397 526 411 544 c 0
 425 562.666666667 443.333333333 576 466 584 c 1
 429.333333333 602.666666667 383.333333333 612 328 612 c 0
 256 612 194.666666667 584.666666667 144 530 c 0
 93.3333333333 474.666666667 68 408.333333333 68 331 c 0
 68 252.333333333 93 185 143 129 c 0
 193.666666667 73.6666666667 254.333333333 46 325 46 c 0
 357.666666667 46 386 48.3333333333 410 53 c 0
 433.333333333 57.6666666667 451.666666667 64.6666666667 465 74 c 1
 443 78.6666666667 425 90.3333333333 411 109 c 0
 397 128.333333333 390 150.333333333 390 175 c 0
 390 203.666666667 400 228.333333333 420 249 c 0
 440.666666667 269 465.333333333 279 494 279 c 0
 526.666666667 279 552.666666667 269 572 249 c 256
 591.333333333 229 601 202.666666667 601 170 c 1
 601 170 l 1
526 482 m 1
 526 502 521.333333333 519 512 533 c 0
 502 547 490.333333333 554 477 554 c 0
 461 554 447.666666667 547 437 533 c 0
 425.666666667 519 420 502 420 482 c 256
 420 462 425.333333333 444.666666667 436 430 c 0
 447.333333333 416 460.666666667 409 476 409 c 0
 490 409 501.666666667 416 511 430 c 0
 521 444.666666667 526 462 526 482 c 1
 526 482 l 1
526 174 m 1
 526 194.666666667 521 212 511 226 c 0
 501 240.666666667 489 248 475 248 c 0
 459.666666667 248 446.666666667 240.666666667 436 226 c 0
 425.333333333 212 420 194.666666667 420 174 c 256
 420 153.333333333 425.666666667 136 437 122 c 0
 448.333333333 107.333333333 462 100 478 100 c 0
 491.333333333 100 502.666666667 107.333333333 512 122 c 0
 521.333333333 136 526 153.333333333 526 174 c 1
 526 174 l 1
EndSplineSet
EndChar

StartChar: uni0BC8
Encoding: 301 3016 46
Width: 862
GlyphClass: 2
Flags: HW
LayerCount: 2
Back
Fore
SplineSet
822 203 m 1
 822 159.666666667 813.333333333 120 796 84 c 0
 779.333333333 48.6666666667 756 21.6666666667 726 3 c 1
 697 25 l 1
 730.333333333 72.3333333333 747 131.333333333 747 202 c 0
 747 247.333333333 733.333333333 286.333333333 706 319 c 0
 679.333333333 351 646.666666667 367 608 367 c 256
 569.333333333 367 535.333333333 355 506 331 c 1
 535.333333333 304.333333333 558.333333333 274 575 240 c 0
 591 206.666666667 599 172.333333333 599 137 c 0
 599 94.3333333333 589 60.3333333333 569 35 c 256
 549 9.66666666667 522.333333333 -3 489 -3 c 0
 456.333333333 -3 430 9.66666666667 410 35 c 256
 390 60.3333333333 380 94.3333333333 380 137 c 0
 380 167 386 197.333333333 398 228 c 256
 410 258.666666667 427.333333333 288 450 316 c 1
 431.333333333 332.666666667 407.333333333 345.333333333 378 354 c 256
 348.666666667 362.666666667 316.333333333 367 281 367 c 0
 221.666666667 367 171.333333333 348 130 310 c 0
 88 272 67 226 67 172 c 0
 67 138 74 108.333333333 88 83 c 0
 101.333333333 57.6666666667 119 41.6666666667 141 35 c 1
 131 41.6666666667 123 53 117 69 c 0
 111 84.3333333333 108 102 108 122 c 0
 108 154.666666667 117.333333333 180.666666667 136 200 c 0
 155.333333333 219.333333333 180.666666667 229 212 229 c 0
 244 229 269.333333333 219 288 199 c 0
 307.333333333 179 317 152.666666667 317 120 c 0
 317 82.6666666667 305 53 281 31 c 0
 257 8.33333333333 225 -3 185 -3 c 0
 144.333333333 -3 109.333333333 14 80 48 c 0
 51.3333333333 81.3333333333 37 122 37 170 c 0
 37 232.666666667 62.3333333333 286.333333333 113 331 c 0
 163 375 223.666666667 397 295 397 c 0
 335.666666667 397 372 393 404 385 c 0
 436 376.333333333 462 364.333333333 482 349 c 1
 496.666666667 364.333333333 515.666666667 376.333333333 539 385 c 0
 561.666666667 393 586.666666667 397 614 397 c 0
 671.333333333 397 720.333333333 378 761 340 c 256
 801.666666667 302 822 256.333333333 822 203 c 1
 822 203 l 1
524 137 m 1
 524 169.666666667 519.333333333 199.333333333 510 226 c 0
 500 253.333333333 486.333333333 275.333333333 469 292 c 1
 449.666666667 270 435 245.666666667 425 219 c 256
 415 192.333333333 410 165 410 137 c 0
 410 103.666666667 415.333333333 77 426 57 c 0
 437.333333333 37 452 27 470 27 c 0
 486.666666667 27 499.666666667 37 509 57 c 0
 519 77 524 103.666666667 524 137 c 1
 524 137 l 1
242 120 m 1
 242 142 236.666666667 160.666666667 226 176 c 0
 216 191.333333333 203.666666667 199 189 199 c 0
 175 199 163 191.333333333 153 176 c 256
 143 160.666666667 138 142 138 120 c 0
 138 98.6666666667 143 80.3333333333 153 65 c 256
 163 49.6666666667 175 42 189 42 c 0
 203.666666667 42 216 49.6666666667 226 65 c 0
 236.666666667 80.3333333333 242 98.6666666667 242 120 c 1
 242 120 l 1
EndSplineSet
EndChar

StartChar: uni0BCD
Encoding: 305 3021 50
Width: 256
GlyphClass: 2
Flags: HW
LayerCount: 2
Back
Fore
SplineSet
195 598 m 1
 195 581.333333333 188.333333333 567 175 555 c 0
 162.333333333 543 146.666666667 537 128 537 c 0
 110 537 94.3333333333 543 81 555 c 0
 68.3333333333 567 62 581.333333333 62 598 c 256
 62 614.666666667 68.3333333333 628.666666667 81 640 c 0
 94.3333333333 652 110 658 128 658 c 0
 146.666666667 658 162.333333333 652 175 640 c 0
 188.333333333 628.666666667 195 614.666666667 195 598 c 1
 195 598 l 1
EndSplineSet
EndChar

StartChar: uni0BE6
Encoding: 307 3046 52
Width: 448
GlyphClass: 2
Flags: HW
LayerCount: 2
Back
Fore
SplineSet
398 200 m 1
 398 138 382 88.6666666667 350 52 c 0
 318 14.6666666667 275.333333333 -4 222 -4 c 0
 170 -4 128.333333333 14.3333333333 97 51 c 0
 65.6666666667 88.3333333333 50 137.666666667 50 199 c 0
 50 261 65.6666666667 311 97 349 c 0
 128.333333333 386.333333333 170 405 222 405 c 0
 275.333333333 405 318 386.333333333 350 349 c 256
 382 311.666666667 398 262 398 200 c 1
 398 200 l 1
331 202 m 1
 331 253.333333333 320.666666667 297.333333333 300 334 c 0
 279.333333333 370 254.333333333 388 225 388 c 0
 194.333333333 388 168 369.333333333 146 332 c 256
 124 294.666666667 113 249.333333333 113 196 c 0
 113 147.333333333 123.666666667 105.666666667 145 71 c 0
 165.666666667 36.3333333333 191 19 221 19 c 0
 251.666666667 19 277.666666667 37 299 73 c 0
 320.333333333 108.333333333 331 151.333333333 331 202 c 1
 331 202 l 1
EndSplineSet
EndChar

StartChar: uni0BE7
Encoding: 308 3047 53
Width: 591
GlyphClass: 2
Flags: HW
LayerCount: 2
Back
Fore
SplineSet
541 109 m 1
 541 70.3333333333 529.666666667 42.3333333333 507 25 c 0
 484.333333333 8.33333333333 446.666666667 0 394 0 c 1
 394 30 l 1
 420.666666667 30 439.333333333 36.3333333333 450 49 c 0
 460.666666667 62.3333333333 466 85.3333333333 466 118 c 0
 466 140 462.666666667 156.666666667 456 168 c 0
 450 179.333333333 440.666666667 185 428 185 c 2
 382 185 l 1
 382 131 l 2
 382 87 365.666666667 54 333 32 c 0
 300.333333333 9.33333333333 251.666666667 -2 187 -2 c 0
 149 -2 116.666666667 11.3333333333 90 38 c 256
 63.3333333333 64.6666666667 50 96.6666666667 50 134 c 0
 50 158.666666667 58.6666666667 178.333333333 76 193 c 256
 93.3333333333 207.666666667 116.333333333 215 145 215 c 2
 169 215 l 1
 169 400 l 1
 516 400 l 1
 516 370 l 1
 382 370 l 1
 382 215 l 1
 461 215 l 2
 485 215 504.333333333 205.333333333 519 186 c 256
 533.666666667 166.666666667 541 141 541 109 c 1
 541 109 l 1
307 215 m 1
 307 370 l 1
 199 370 l 1
 199 215 l 1
 307 215 l 1
 307 215 l 1
307 138 m 1
 307 185 l 1
 138 185 l 2
 120.666666667 185 106.666666667 180.333333333 96 171 c 0
 85.3333333333 162.333333333 80 150.333333333 80 135 c 0
 80 102.333333333 89.6666666667 76.3333333333 109 57 c 0
 129 37.6666666667 155.333333333 28 188 28 c 256
 220.666666667 28 248.666666667 38.6666666667 272 60 c 256
 295.333333333 81.3333333333 307 107.333333333 307 138 c 1
 307 138 l 1
EndSplineSet
EndChar

StartChar: uni0BE8
Encoding: 309 3048 54
Width: 573
GlyphClass: 2
Flags: HW
LayerCount: 2
Back
Fore
SplineSet
523 0 m 1
 142 0 l 2
 116.666666667 0 95 6.33333333333 77 19 c 0
 59 31 50 46 50 64 c 0
 50 80.6666666667 57.6666666667 95 73 107 c 256
 88.3333333333 119 107 125 129 125 c 2
 280 125 l 2
 308 125 332 137.333333333 352 162 c 0
 372 187.333333333 382 217.666666667 382 253 c 0
 382 285.666666667 371 313.666666667 349 337 c 256
 327 360.333333333 300.333333333 372 269 372 c 2
 206 372 l 1
 224.666666667 368 240.333333333 357.666666667 253 341 c 0
 265 323.666666667 271 303.333333333 271 280 c 0
 271 254 260.666666667 232 240 214 c 0
 219.333333333 195.333333333 194.333333333 186 165 186 c 0
 136.333333333 186 111.666666667 195.333333333 91 214 c 0
 70.3333333333 232 60 254 60 280 c 0
 60 316.666666667 77.3333333333 346.333333333 112 369 c 0
 146.666666667 391 192.666666667 402 250 402 c 0
 314 402 365 388.333333333 403 361 c 0
 441.666666667 333.666666667 461 297.333333333 461 252 c 0
 461 208.666666667 443.666666667 171.666666667 409 141 c 256
 374.333333333 110.333333333 332.666666667 95 284 95 c 2
 150 95 l 2
 140.666666667 95 132.333333333 92 125 86 c 0
 118.333333333 79.3333333333 115 71.6666666667 115 63 c 0
 115 53.6666666667 118.666666667 46 126 40 c 0
 133.333333333 33.3333333333 142.333333333 30 153 30 c 2
 523 30 l 1
 523 0 l 1
 523 0 l 1
170 283 m 1
 170 297.666666667 166 310 158 320 c 0
 149.333333333 330.666666667 139.333333333 336 128 336 c 256
 116.666666667 336 107 330.333333333 99 319 c 256
 91 307.666666667 87 294 87 278 c 0
 87 264.666666667 91 253 99 243 c 0
 107.666666667 233.666666667 117.666666667 229 129 229 c 256
 140.333333333 229 150 234.333333333 158 245 c 256
 166 255.666666667 170 268.333333333 170 283 c 1
 170 283 l 1
EndSplineSet
EndChar

StartChar: uni0BE9
Encoding: 310 3049 55
Width: 664
GlyphClass: 2
Flags: HW
LayerCount: 2
Back
Fore
SplineSet
614 0 m 1
 236 0 l 1
 236 30 l 1
 387 30 l 1
 407 41.3333333333 422.666666667 56.6666666667 434 76 c 0
 445.333333333 96 451 117 451 139 c 0
 451 167 443 190.666666667 427 210 c 0
 411 230 391.666666667 240 369 240 c 0
 358.333333333 240 348 237.666666667 338 233 c 0
 328 227.666666667 319 220.666666667 311 212 c 1
 311 110 l 1
 236 110 l 1
 236 370 l 1
 80 370 l 1
 80 0 l 1
 50 0 l 1
 50 400 l 1
 494 400 l 1
 494 370 l 1
 311 370 l 1
 311 247 l 1
 321.666666667 254.333333333 334.333333333 260 349 264 c 256
 363.666666667 268 379.666666667 270 397 270 c 0
 436.333333333 270 467.666666667 258.666666667 491 236 c 256
 514.333333333 213.333333333 526 183.333333333 526 146 c 0
 526 120.666666667 518.666666667 97.3333333333 504 76 c 0
 490 54.6666666667 471 39.3333333333 447 30 c 1
 614 30 l 1
 614 0 l 1
 614 0 l 1
EndSplineSet
EndChar

StartChar: uni0BEA
Encoding: 311 3050 56
Width: 656
GlyphClass: 2
Flags: HW
LayerCount: 2
Back
Fore
SplineSet
606 185 m 1
 382 185 l 1
 382 141 l 2
 382 93.6666666667 366.333333333 58 335 34 c 0
 304.333333333 10 258.333333333 -2 197 -2 c 0
 152.333333333 -2 116.666666667 10.3333333333 90 35 c 256
 63.3333333333 59.6666666667 50 92.6666666667 50 134 c 0
 50 158.666666667 58.6666666667 178.333333333 76 193 c 256
 93.3333333333 207.666666667 116.333333333 215 145 215 c 2
 159 215 l 1
 159 400 l 1
 507 400 l 1
 507 370 l 1
 382 370 l 1
 382 215 l 1
 531 215 l 1
 531 264 l 1
 606 264 l 1
 606 185 l 1
 606 185 l 1
307 215 m 1
 307 370 l 1
 189 370 l 1
 189 215 l 1
 307 215 l 1
 307 215 l 1
307 138 m 1
 307 185 l 1
 138 185 l 2
 120.666666667 185 106.666666667 180.333333333 96 171 c 0
 85.3333333333 162.333333333 80 150.333333333 80 135 c 0
 80 102.333333333 89.6666666667 76.3333333333 109 57 c 0
 129 37.6666666667 155.333333333 28 188 28 c 0
 224 28 252.666666667 38 274 58 c 0
 296 78 307 104.666666667 307 138 c 1
 307 138 l 1
EndSplineSet
EndChar

StartChar: uni0BEB
Encoding: 312 3051 57
Width: 777
GlyphClass: 2
Flags: HW
LayerCount: 2
Back
Fore
SplineSet
50 200 m 1
 50 310.666666667 86.3333333333 405.333333333 159 484 c 0
 231 562 318.333333333 601 421 601 c 0
 486.333333333 601 542.333333333 584.333333333 589 551 c 0
 635 517.666666667 658 477.666666667 658 431 c 1
 631 431 l 1
 624.333333333 471 601.333333333 504.333333333 562 531 c 0
 522 557.666666667 475 571 421 571 c 0
 339 571 269.333333333 534.666666667 212 462 c 0
 154 390 125 302.666666667 125 200 c 0
 125 90.6666666667 151.666666667 3 205 -63 c 256
 258.333333333 -129 329.333333333 -162 418 -162 c 0
 482.666666667 -162 537.666666667 -140.333333333 583 -97 c 0
 629 -53.6666666667 652 -1.33333333333 652 60 c 0
 652 98 643.333333333 130.666666667 626 158 c 0
 608 184.666666667 586.666666667 198 562 198 c 0
 541.333333333 198 523.666666667 193 509 183 c 1
 509 0 l 1
 434 0 l 1
 434 370 l 1
 287 370 l 1
 287 0 l 1
 257 0 l 1
 257 400 l 1
 634 400 l 1
 634 370 l 1
 509 370 l 1
 509 214 l 1
 529.666666667 223.333333333 548 228 564 228 c 0
 609.333333333 228 647.666666667 211.333333333 679 178 c 0
 711 144.666666667 727 104.666666667 727 58 c 0
 727 -11.3333333333 696.666666667 -70.3333333333 636 -119 c 256
 575.333333333 -167.666666667 502.333333333 -192 417 -192 c 0
 305.666666667 -192 216.666666667 -156.333333333 150 -85 c 256
 83.3333333333 -13.6666666667 50 81.3333333333 50 200 c 1
 50 200 l 1
EndSplineSet
EndChar

StartChar: uni0BEC
Encoding: 313 3052 58
Width: 810
GlyphClass: 2
Flags: HW
LayerCount: 2
Back
Fore
SplineSet
50 134 m 1
 50 158.666666667 58.6666666667 178.333333333 76 193 c 256
 93.3333333333 207.666666667 116.333333333 215 145 215 c 2
 159 215 l 1
 159 400 l 1
 555 400 l 1
 555 370 l 1
 382 370 l 1
 382 215 l 1
 760 215 l 1
 760 185 l 1
 715 185 l 1
 715 0 l 1
 640 0 l 1
 640 185 l 1
 540 185 l 1
 540 0 l 1
 465 0 l 1
 465 185 l 1
 382 185 l 1
 382 131 l 2
 382 87 365.666666667 54 333 32 c 0
 300.333333333 9.33333333333 251.666666667 -2 187 -2 c 0
 145.666666667 -2 112.333333333 10.3333333333 87 35 c 0
 62.3333333333 59.6666666667 50 92.6666666667 50 134 c 1
 50 134 l 1
307 215 m 1
 307 370 l 1
 189 370 l 1
 189 215 l 1
 307 215 l 1
 307 215 l 1
307 138 m 1
 307 185 l 1
 138 185 l 2
 120.666666667 185 106.666666667 180.333333333 96 171 c 0
 85.3333333333 162.333333333 80 150.333333333 80 135 c 0
 80 102.333333333 89.6666666667 76.3333333333 109 57 c 0
 129 37.6666666667 155.333333333 28 188 28 c 0
 224 28 252.666666667 38 274 58 c 0
 296 78 307 104.666666667 307 138 c 1
 307 138 l 1
EndSplineSet
EndChar

StartChar: uni0BED
Encoding: 314 3053 59
Width: 742
GlyphClass: 2
Flags: HW
LayerCount: 2
Back
Fore
SplineSet
515 0 m 1
 515 370 l 1
 258 370 l 2
 208.666666667 370 166.666666667 351.333333333 132 314 c 0
 97.3333333333 277.333333333 80 232.666666667 80 180 c 0
 80 146.666666667 86 117.666666667 98 93 c 256
 110 68.3333333333 125.666666667 52 145 44 c 1
 127 68 118 93.3333333333 118 120 c 0
 118 150.666666667 129.666666667 176.666666667 153 198 c 256
 176.333333333 219.333333333 204.666666667 230 238 230 c 256
 271.333333333 230 300 219.666666667 324 199 c 0
 347.333333333 177.666666667 359 152.333333333 359 123 c 0
 359 89 345.666666667 60 319 36 c 0
 293 12 261.333333333 0 224 0 c 0
 176 0 135 18 101 54 c 0
 67 89.3333333333 50 132.333333333 50 183 c 0
 50 243 70.3333333333 294 111 336 c 0
 151.666666667 378.666666667 200.666666667 400 258 400 c 2
 692 400 l 1
 692 370 l 1
 590 370 l 1
 590 0 l 1
 515 0 l 1
 515 0 l 1
284 119 m 1
 284 141.666666667 277.666666667 160.666666667 265 176 c 0
 251.666666667 192 236 200 218 200 c 0
 198.666666667 200 182.333333333 192 169 176 c 0
 155 159.333333333 148 139.666666667 148 117 c 0
 148 95 154.333333333 76 167 60 c 0
 179 44.6666666667 194 37 212 37 c 0
 232 37 249 45 263 61 c 256
 277 77 284 96.3333333333 284 119 c 1
 284 119 l 1
EndSplineSet
EndChar

StartChar: uni0BEE
Encoding: 315 3054 60
Width: 926
GlyphClass: 2
Flags: HW
LayerCount: 2
Back
Fore
SplineSet
50 32 m 1
 50 44.6666666667 56 55.6666666667 68 65 c 0
 80 73.6666666667 94.3333333333 78 111 78 c 2
 603 78 l 1
 624.333333333 120 635 165.666666667 635 215 c 0
 635 259.666666667 621.666666667 298 595 330 c 0
 569 361.333333333 537.333333333 377 500 377 c 1
 518.666666667 365.666666667 533.666666667 350.666666667 545 332 c 0
 555.666666667 313.333333333 561 293.333333333 561 272 c 0
 561 240.666666667 546.666666667 213.666666667 518 191 c 0
 489.333333333 169 454.666666667 158 414 158 c 0
 379.333333333 158 350 169.333333333 326 192 c 0
 301.333333333 214 289 241 289 273 c 0
 289 313.666666667 308.666666667 346 348 370 c 0
 388 394.666666667 440.666666667 407 506 407 c 0
 562 407 610 387.666666667 650 349 c 256
 690 310.333333333 710 263.666666667 710 209 c 0
 710 161 700.333333333 117.333333333 681 78 c 1
 801 78 l 1
 801 400 l 1
 876 400 l 1
 876 -134 l 1
 801 -134 l 1
 801 48 l 1
 673 48 l 1
 644.333333333 -4 599.333333333 -45 538 -75 c 256
 476.666666667 -105 407.333333333 -120 330 -120 c 256
 252.666666667 -120 186.666666667 -105 132 -75 c 0
 77.3333333333 -45.6666666667 50 -10 50 32 c 1
 50 32 l 1
486 270 m 1
 486 294 478 314.666666667 462 332 c 0
 445.333333333 349.333333333 425.666666667 358 403 358 c 0
 379.666666667 358 360 349.333333333 344 332 c 0
 327.333333333 314.666666667 319 294 319 270 c 0
 319 247.333333333 327 228 343 212 c 256
 359 196 378.333333333 188 401 188 c 0
 424.333333333 188 444.333333333 196 461 212 c 256
 477.666666667 228 486 247.333333333 486 270 c 1
 486 270 l 1
588 48 m 1
 113 48 l 2
 104.333333333 48 97 46.6666666667 91 44 c 0
 85.6666666667 41.3333333333 82.3333333333 37.6666666667 81 33 c 0
 73.6666666667 1.66666666667 93.3333333333 -26.6666666667 140 -52 c 0
 187.333333333 -77.3333333333 243.666666667 -90 309 -90 c 0
 369 -90 423.666666667 -77.6666666667 473 -53 c 0
 523 -28.3333333333 561.333333333 5.33333333333 588 48 c 1
 588 48 l 1
EndSplineSet
EndChar

StartChar: uni0BEF
Encoding: 316 3055 61
Width: 817
GlyphClass: 2
Flags: HW
LayerCount: 2
Back
Fore
SplineSet
50 134 m 1
 50 156.666666667 58.6666666667 175.666666667 76 191 c 0
 94 207 115.333333333 215 140 215 c 2
 169 215 l 1
 169 400 l 1
 517 400 l 1
 517 370 l 1
 382 370 l 1
 382 215 l 1
 502 215 l 1
 510.666666667 222.333333333 523.666666667 227.666666667 541 231 c 0
 558.333333333 235 579 237 603 237 c 0
 648.333333333 237 687 224.333333333 719 199 c 256
 751 173.666666667 767 143.333333333 767 108 c 0
 767 86 763.666666667 65.6666666667 757 47 c 0
 749.666666667 28.3333333333 739.666666667 12.6666666667 727 0 c 1
 658 0 l 1
 658 30 l 1
 668.666666667 38 677 48.6666666667 683 62 c 256
 689 75.3333333333 692 90 692 106 c 0
 692 134 682.333333333 157.666666667 663 177 c 0
 644.333333333 197 621.333333333 207 594 207 c 0
 586 207 578.666666667 205.666666667 572 203 c 1
 594 191.666666667 611.333333333 176.666666667 624 158 c 0
 636.666666667 140 643 121 643 101 c 0
 643 71 633.333333333 45.3333333333 614 24 c 256
 594.666666667 2.66666666667 571.333333333 -8 544 -8 c 256
 516.666666667 -8 493.333333333 2.66666666667 474 24 c 0
 454.666666667 44.6666666667 445 70 445 100 c 0
 445 117.333333333 448.333333333 133.333333333 455 148 c 0
 461 163.333333333 470 175.666666667 482 185 c 1
 382 185 l 1
 382 136 l 2
 382 96.6666666667 364.333333333 63 329 35 c 0
 294.333333333 7 252 -7 202 -7 c 0
 160 -7 124.333333333 6.66666666667 95 34 c 0
 65 62 50 95.3333333333 50 134 c 1
 50 134 l 1
307 215 m 1
 307 370 l 1
 199 370 l 1
 199 215 l 1
 307 215 l 1
 307 215 l 1
307 138 m 1
 307 185 l 1
 138 185 l 2
 122 185 108.333333333 180 97 170 c 0
 85.6666666667 160.666666667 80 149 80 135 c 0
 80 105.666666667 90.3333333333 80.6666666667 111 60 c 0
 132.333333333 39.3333333333 157.666666667 29 187 29 c 0
 220.333333333 29 248.666666667 39.6666666667 272 61 c 256
 295.333333333 82.3333333333 307 108 307 138 c 1
 307 138 l 1
568 102 m 1
 568 122 563.666666667 139 555 153 c 0
 545.666666667 167 534.666666667 174 522 174 c 256
 509.333333333 174 498.333333333 166.666666667 489 152 c 0
 479.666666667 136.666666667 475 118.666666667 475 98 c 0
 475 80 479.333333333 64.3333333333 488 51 c 0
 496.666666667 38.3333333333 507 32 519 32 c 0
 532.333333333 32 544 39 554 53 c 0
 563.333333333 66.3333333333 568 82.6666666667 568 102 c 1
 568 102 l 1
EndSplineSet
EndChar

StartChar: uni0BF0
Encoding: 317 3056 62
Width: 571
GlyphClass: 2
Flags: HW
LayerCount: 2
Back
Fore
SplineSet
525 230 m 1
 525 165.333333333 508.333333333 110 475 64 c 256
 441.666666667 18 401.666666667 -5 355 -5 c 0
 335 -4.33333333333 316 2.33333333333 298 15 c 256
 280 27.6666666667 266 44.6666666667 256 66 c 1
 249.333333333 45.3333333333 237.333333333 28.3333333333 220 15 c 0
 203.333333333 2.33333333333 184.333333333 -4.33333333333 163 -5 c 0
 135.666666667 -4.33333333333 112.666666667 6.33333333333 94 27 c 0
 74.6666666667 48.3333333333 65 73.6666666667 65 103 c 2
 65 400 l 1
 95 400 l 1
 95 98 l 2
 95 80 100 64.3333333333 110 51 c 0
 120.666666667 37.6666666667 134 30.3333333333 150 29 c 0
 162 29.6666666667 172 37.3333333333 180 52 c 0
 188 66 192 83 192 103 c 2
 192 400 l 1
 267 400 l 1
 267 127 l 2
 267.666666667 99 276 75 292 55 c 256
 308 35 327.333333333 25 350 25 c 0
 377.333333333 25 401 45 421 85 c 0
 440.333333333 125.666666667 450 174.333333333 450 231 c 0
 450 292.333333333 436.333333333 344.666666667 409 388 c 0
 382.333333333 431.333333333 349.666666667 453 311 453 c 2
 65 453 l 1
 65 483 l 1
 320 483 l 2
 376 485 424.333333333 461 465 411 c 0
 505 361.666666667 525 301.333333333 525 230 c 1
 525 230 l 1
EndSplineSet
EndChar

StartChar: uni0BF1
Encoding: 318 3057 63
Width: 619
GlyphClass: 2
Flags: HW
LayerCount: 2
Back
Fore
SplineSet
65 0 m 1
 65 309 l 2
 65 334.333333333 75.3333333333 355.666666667 96 373 c 0
 116.666666667 391 141.666666667 400 171 400 c 0
 199.666666667 400 224.666666667 394 246 382 c 0
 268 370 281.666666667 354.333333333 287 335 c 1
 295.666666667 355 307.333333333 370.666666667 322 382 c 0
 336.666666667 394 352.333333333 400 369 400 c 2
 614 400 l 1
 614 370 l 1
 528 370 l 1
 528 0 l 1
 453 0 l 1
 453 370 l 1
 374 370 l 2
 356 370 340.666666667 360.666666667 328 342 c 0
 315.333333333 324 309 302 309 276 c 2
 309 0 l 1
 234 0 l 1
 234 305 l 2
 234 323 227 338.333333333 213 351 c 0
 199.666666667 363.666666667 183.333333333 370 164 370 c 256
 144.666666667 370 128.333333333 364 115 352 c 256
 101.666666667 340 95 325.666666667 95 309 c 2
 95 0 l 1
 65 0 l 1
 65 0 l 1
EndSplineSet
EndChar

StartChar: uni0BF2
Encoding: 319 3058 64
Width: 695
GlyphClass: 2
Flags: HW
LayerCount: 2
Back
Fore
SplineSet
24 127 m 1
 24.6666666667 150.333333333 33.3333333333 170 50 186 c 256
 66.6666666667 202 86.6666666667 210 110 210 c 2
 132 210 l 1
 132 400 l 1
 488 400 l 1
 488 370 l 1
 329 370 l 1
 329 210 l 1
 580 210 l 1
 580 180 l 1
 510 180 l 1
 510 107 l 1
 514 109 520.666666667 110.666666667 530 112 c 256
 539.333333333 113.333333333 550.666666667 114 564 114 c 0
 596 114 623.666666667 104 647 84 c 0
 669.666666667 63.3333333333 681 38.6666666667 681 10 c 0
 681 -30.6666666667 658.666666667 -65.3333333333 614 -94 c 256
 569.333333333 -122.666666667 515.333333333 -137 452 -137 c 2
 167 -137 l 2
 149.666666667 -137 134.666666667 -139.333333333 122 -144 c 0
 109.333333333 -149.333333333 101.666666667 -156 99 -164 c 1
 106.333333333 -161.333333333 113.333333333 -162.666666667 120 -168 c 256
 126.666666667 -173.333333333 130 -180.666666667 130 -190 c 0
 130 -197.333333333 126.666666667 -203.333333333 120 -208 c 0
 114 -213.333333333 106.333333333 -216 97 -216 c 0
 85.6666666667 -216 75.6666666667 -212.333333333 67 -205 c 0
 59 -197 55 -187.666666667 55 -177 c 0
 55 -157.666666667 66 -141.333333333 88 -128 c 0
 110 -114 136.333333333 -107 167 -107 c 2
 455 -107 l 2
 497 -107 532.666666667 -95.6666666667 562 -73 c 0
 591.333333333 -49.6666666667 606 -22 606 10 c 0
 606 30.6666666667 600.666666667 48 590 62 c 0
 580 76.6666666667 567.666666667 84 553 84 c 0
 535.666666667 84 521.333333333 80.6666666667 510 74 c 1
 510 0 l 1
 435 0 l 1
 435 180 l 1
 329 180 l 1
 329 124 l 2
 329.666666667 90 315.666666667 60.6666666667 287 36 c 0
 257.666666667 12 222.666666667 0 182 0 c 0
 138.666666667 0 101.333333333 12.3333333333 70 37 c 0
 39.3333333333 61.6666666667 24 91.6666666667 24 127 c 1
 24 127 l 1
254 210 m 1
 254 370 l 1
 162 370 l 1
 162 210 l 1
 254 210 l 1
 254 210 l 1
254 132 m 1
 254 180 l 1
 106 180 l 2
 91.3333333333 180 79 174.666666667 69 164 c 0
 59 152.666666667 54 139.333333333 54 124 c 0
 54 102 61 82.3333333333 75 65 c 0
 89.6666666667 47.6666666667 108 36.3333333333 130 31 c 0
 162 23.6666666667 190.666666667 30.3333333333 216 51 c 256
 241.333333333 71.6666666667 254 98.6666666667 254 132 c 1
 254 132 l 1
EndSplineSet
EndChar

StartChar: uni0BF3
Encoding: 320 3059 65
Width: 692
GlyphClass: 2
Flags: HW
LayerCount: 2
Back
Fore
SplineSet
38 182 m 1
 38 241.333333333 60 291.666666667 104 333 c 0
 147.333333333 375 200 396 262 396 c 0
 328 396 384.666666667 375.666666667 432 335 c 0
 478.666666667 294.333333333 502 245.333333333 502 188 c 0
 502 152.666666667 496.666666667 121 486 93 c 256
 475.333333333 65 460.666666667 44 442 30 c 1
 687 30 l 1
 687 0 l 1
 347 0 l 1
 347 27 l 1
 371.666666667 39.6666666667 391 61 405 91 c 0
 419.666666667 121.666666667 427 156.666666667 427 196 c 0
 427 242.666666667 409.333333333 282.666666667 374 316 c 0
 339.333333333 349.333333333 297 366 247 366 c 0
 197.666666667 366 155.333333333 348 120 312 c 0
 85.3333333333 276 68 232.666666667 68 182 c 0
 68 152.666666667 73.6666666667 125.666666667 85 101 c 0
 97 77 113 58 133 44 c 1
 125 54 118.666666667 65.6666666667 114 79 c 0
 110 93 108 107.666666667 108 123 c 0
 108 155 116.666666667 180.333333333 134 199 c 0
 152 218.333333333 175.666666667 228 205 228 c 0
 237.666666667 228 264 218.333333333 284 199 c 256
 304 179.666666667 314 154 314 122 c 0
 314 85.3333333333 303.333333333 56 282 34 c 256
 260.666666667 12 232 1 196 1 c 0
 148 1 109.666666667 17.3333333333 81 50 c 0
 52.3333333333 83.3333333333 38 127.333333333 38 182 c 1
 38 182 l 1
239 119 m 1
 239 141 234.333333333 159.666666667 225 175 c 256
 215.666666667 190.333333333 204.333333333 198 191 198 c 0
 176.333333333 198 164 190.333333333 154 175 c 0
 143.333333333 159.666666667 138 141.333333333 138 120 c 0
 138 95.3333333333 143 74.3333333333 153 57 c 0
 162.333333333 39.6666666667 174 31 188 31 c 256
 202 31 214 39.6666666667 224 57 c 256
 234 74.3333333333 239 95 239 119 c 1
 239 119 l 1
EndSplineSet
EndChar

StartChar: uni0BF4
Encoding: 321 3060 66
Width: 681
GlyphClass: 2
Flags: HW
LayerCount: 2
Back
Fore
SplineSet
394 467 m 1
 394 494.333333333 407.333333333 517.666666667 434 537 c 0
 461.333333333 556.333333333 494 566 532 566 c 1
 548 582 569.666666667 594.666666667 597 604 c 0
 623.666666667 612.666666667 653.333333333 617 686 617 c 0
 692.666666667 617 708.666666667 613 734 605 c 2
 763 596 l 1
 786.333333333 610 811 617 837 617 c 0
 849 617 860 614.666666667 870 610 c 0
 880.666666667 605.333333333 889.333333333 599 896 591 c 1
 886 573 l 1
 870 582.333333333 856.333333333 587 845 587 c 0
 835.666666667 587 828 586.666666667 822 586 c 0
 816 584.666666667 811.333333333 583.333333333 808 582 c 1
 822 575.333333333 833.333333333 567 842 557 c 0
 850 547 854 537 854 527 c 0
 854 509.666666667 845.666666667 495 829 483 c 256
 812.333333333 471 792.333333333 465 769 465 c 0
 746.333333333 465 726.666666667 471.666666667 710 485 c 0
 694 497.666666667 686 513.333333333 686 532 c 0
 686 540 689.333333333 548.333333333 696 557 c 0
 702 565 710.666666667 572 722 578 c 1
 718.666666667 580.666666667 713.666666667 583 707 585 c 0
 700.333333333 586.333333333 692.333333333 587 683 587 c 0
 659.666666667 587 640 585 624 581 c 0
 607.333333333 577 596 571.333333333 590 564 c 1
 612 564 630.666666667 557.666666667 646 545 c 0
 661.333333333 533 669 518 669 500 c 256
 669 482 659.666666667 467 641 455 c 0
 623 442.333333333 601 436 575 436 c 0
 551.666666667 436 531.666666667 442 515 454 c 256
 498.333333333 466 490 480.666666667 490 498 c 0
 490 507.333333333 491.666666667 515.666666667 495 523 c 256
 498.333333333 530.333333333 503 536.333333333 509 541 c 1
 485.666666667 541 465.666666667 533.666666667 449 519 c 256
 432.333333333 504.333333333 424 486.666666667 424 466 c 0
 424 452.666666667 426 440.333333333 430 429 c 256
 434 417.666666667 439.666666667 408.333333333 447 401 c 0
 449 401.666666667 453 401.666666667 459 401 c 2
 477 401 l 2
 525 401 563.333333333 380.666666667 592 340 c 0
 620.666666667 300 635 246.333333333 635 179 c 0
 635 125 624 81.6666666667 602 49 c 256
 580 16.3333333333 551 0 515 0 c 2
 70 0 l 1
 70 400 l 1
 145 400 l 1
 145 30 l 1
 331 30 l 1
 331 271 l 2
 331 299.666666667 339 325.333333333 355 348 c 0
 371 371.333333333 391.666666667 387 417 395 c 1
 409.666666667 404.333333333 404 415.333333333 400 428 c 0
 396 440 394 453 394 467 c 1
 394 467 l 1
594 500 m 1
 594 510 589.666666667 518.333333333 581 525 c 0
 573 532.333333333 563 536 551 536 c 1
 541.666666667 533.333333333 534.333333333 529 529 523 c 0
 523 516.333333333 520 509 520 501 c 0
 520 491.666666667 524 483.333333333 532 476 c 0
 539.333333333 469.333333333 548.666666667 466 560 466 c 0
 569.333333333 466 577.333333333 469.333333333 584 476 c 256
 590.666666667 482.666666667 594 490.666666667 594 500 c 1
 594 500 l 1
797 527 m 1
 797 537 794 545.333333333 788 552 c 0
 782 559.333333333 775 563 767 563 c 256
 759 563 752 559.333333333 746 552 c 0
 740 545.333333333 737 537 737 527 c 0
 737 518.333333333 740 510.666666667 746 504 c 0
 752 498 759 495 767 495 c 256
 775 495 782 498 788 504 c 0
 794 510.666666667 797 518.333333333 797 527 c 1
 797 527 l 1
406 275 m 1
 406 30 l 1
 505 30 l 2
 535 30 559.333333333 43.6666666667 578 71 c 0
 596 98.3333333333 605 134.666666667 605 180 c 0
 605 238 594 284.333333333 572 319 c 256
 550 353.666666667 520.666666667 371 484 371 c 0
 462.666666667 371 444.333333333 361.666666667 429 343 c 256
 413.666666667 324.333333333 406 301.666666667 406 275 c 1
 406 275 l 1
EndSplineSet
EndChar

StartChar: uni0BF5
Encoding: 322 3061 67
Width: 1340
GlyphClass: 2
Flags: HW
LayerCount: 2
Back
Fore
SplineSet
165 182 m 1
 165 242 185.666666667 293.333333333 227 336 c 256
 268.333333333 378.666666667 318.333333333 400 377 400 c 0
 433.666666667 400 482.333333333 379.333333333 523 338 c 0
 563 296.666666667 583 247 583 189 c 0
 583 151 578.333333333 118 569 90 c 0
 560.333333333 62 548 42.3333333333 532 31 c 1
 686 31 l 1
 686 400 l 1
 1064 400 l 1
 1064 370 l 1
 936 370 l 1
 936 205 l 1
 954.666666667 216.333333333 977 222 1003 222 c 0
 1040.33333333 222 1072.33333333 206.333333333 1099 175 c 256
 1125.66666667 143.666666667 1139 106 1139 62 c 0
 1139 -22 1090.66666667 -89 994 -139 c 0
 897.333333333 -189.666666667 769 -215 609 -215 c 0
 440.333333333 -215 305.333333333 -175.333333333 204 -96 c 256
 102.666666667 -16.6666666667 52 88.6666666667 52 220 c 0
 52 343.333333333 109.333333333 442 224 516 c 256
 338.666666667 590 491 627 681 627 c 0
 825 627 940 608 1026 570 c 0
 1112.66666667 532 1156 481.333333333 1156 418 c 2
 1156 333 l 2
 1156 321.666666667 1158.33333333 312.333333333 1163 305 c 0
 1168.33333333 297 1174.33333333 293 1181 293 c 2
 1214 293 l 2
 1222 293 1228.66666667 297 1234 305 c 0
 1239.33333333 313.666666667 1242 323.666666667 1242 335 c 2
 1242 400 l 1
 1317 400 l 1
 1317 335 l 2
 1317 315 1313 298 1305 284 c 0
 1297.66666667 270 1288.33333333 263 1277 263 c 2
 1177 263 l 2
 1163 263 1151 268.666666667 1141 280 c 256
 1131 291.333333333 1126 305 1126 321 c 2
 1126 418 l 2
 1126 472 1085.66666667 515.333333333 1005 548 c 0
 925 580.666666667 818 597 684 597 c 0
 502 597 356 562.666666667 246 494 c 0
 136.666666667 425.333333333 82 333.666666667 82 219 c 0
 82 97 130 -1 226 -75 c 0
 322 -148.333333333 449.666666667 -185 609 -185 c 0
 746.333333333 -185 856.666666667 -163.333333333 940 -120 c 0
 1022.66666667 -76.6666666667 1064 -19 1064 53 c 0
 1064 91.6666666667 1056.66666667 124.333333333 1042 151 c 0
 1026.66666667 178.333333333 1008.66666667 192 988 192 c 0
 975.333333333 192 958 186.666666667 936 176 c 1
 936 0 l 1
 861 0 l 1
 861 370 l 1
 716 370 l 1
 716 0 l 1
 457 0 l 1
 457 30 l 1
 473 42 485.666666667 62.6666666667 495 92 c 0
 503.666666667 121.333333333 508 156.333333333 508 197 c 0
 508 245 495 285.666666667 469 319 c 0
 443.666666667 353 412.666666667 370 376 370 c 0
 326 370 283.333333333 352 248 316 c 0
 212.666666667 279.333333333 195 235.333333333 195 184 c 0
 195 150 200.666666667 120.333333333 212 95 c 0
 222.666666667 69.6666666667 237.666666667 52 257 42 c 1
 249.666666667 50 244 61 240 75 c 0
 236 88.3333333333 234 103.333333333 234 120 c 0
 234 150.666666667 242.666666667 177 260 199 c 256
 277.333333333 221 298 232 322 232 c 0
 350.666666667 232 375 220.666666667 395 198 c 256
 415 175.333333333 425 148 425 116 c 256
 425 84 414 56.6666666667 392 34 c 256
 370 11.3333333333 343.666666667 0 313 0 c 0
 272.333333333 0 237.333333333 17.6666666667 208 53 c 0
 179.333333333 89 165 132 165 182 c 1
 165 182 l 1
350 114 m 1
 350 134 346.333333333 151 339 165 c 256
 331.666666667 179 322.666666667 186 312 186 c 0
 298.666666667 186 287.333333333 179.333333333 278 166 c 0
 268.666666667 153.333333333 264 137.666666667 264 119 c 0
 264 97.6666666667 268.333333333 79.6666666667 277 65 c 0
 286.333333333 49.6666666667 297.333333333 42 310 42 c 0
 321.333333333 42 330.666666667 49 338 63 c 0
 346 77 350 94 350 114 c 1
 350 114 l 1
EndSplineSet
EndChar

StartChar: uni0BF6
Encoding: 323 3062 68
Width: 794
GlyphClass: 2
Flags: HW
LayerCount: 2
Back
Fore
SplineSet
401 -98 m 1
 139 -98 l 2
 128.333333333 -98 119 -100 111 -104 c 0
 103.666666667 -108 100 -112.666666667 100 -118 c 0
 93.3333333333 -133.333333333 106 -147.666666667 138 -161 c 0
 170 -175 206.666666667 -182 248 -182 c 0
 286.666666667 -182 320 -174.333333333 348 -159 c 0
 376.666666667 -143 394.333333333 -122.666666667 401 -98 c 1
 401 -98 l 1
70 0 m 1
 70 400 l 1
 145 400 l 1
 145 32 l 1
 402 32 l 1
 402 400 l 1
 477 400 l 1
 477 -68 l 1
 649 -68 l 1
 649 400 l 1
 724 400 l 1
 724 -98 l 1
 473 -98 l 1
 473 -129.333333333 451 -156.333333333 407 -179 c 0
 363 -201 310 -212 248 -212 c 0
 198.666666667 -212 156.666666667 -203 122 -185 c 256
 87.3333333333 -167 70 -145.333333333 70 -120 c 0
 70 -105.333333333 77 -93 91 -83 c 256
 105 -73 121.666666667 -68 141 -68 c 2
 402 -68 l 1
 402 0 l 1
 70 0 l 1
 70 0 l 1
EndSplineSet
EndChar

StartChar: uni0BF7
Encoding: 324 3063 69
Width: 1082
GlyphClass: 2
Flags: HW
LayerCount: 2
Back
Fore
SplineSet
671 370 m 1
 560 370 l 1
 560 213 l 1
 704 213 l 2
 715.333333333 213 725.333333333 207.666666667 734 197 c 0
 742 186.333333333 746 173.333333333 746 158 c 1
 754 174.666666667 767.333333333 188 786 198 c 256
 804.666666667 208 825.666666667 213 849 213 c 0
 880.333333333 213 907 203.666666667 929 185 c 0
 951 167 962 145 962 119 c 0
 962 99 958 81 950 65 c 256
 942 49 931.333333333 37 918 29 c 1
 1077 29 l 1
 1077 0 l 1
 823 0 l 1
 823 29 l 1
 841.666666667 33.6666666667 857 44 869 60 c 0
 881 75.3333333333 887 93 887 113 c 0
 887 132.333333333 881 148.666666667 869 162 c 0
 857.666666667 176 843.666666667 183 827 183 c 256
 810.333333333 183 794.666666667 176.666666667 780 164 c 0
 764.666666667 151.333333333 753.333333333 134.333333333 746 113 c 1
 746 0 l 1
 671 0 l 1
 671 183 l 1
 560 183 l 1
 560 0 l 1
 485 0 l 1
 485 370 l 1
 287 370 l 2
 226.333333333 370 174.333333333 352 131 316 c 0
 88.3333333333 280 67 236.333333333 67 185 c 0
 67 154.333333333 72.6666666667 127 84 103 c 256
 95.3333333333 79 111 61.3333333333 131 50 c 1
 123.666666667 58.6666666667 118 70 114 84 c 0
 110 97.3333333333 108 112.333333333 108 129 c 0
 108 157.666666667 119 182.333333333 141 203 c 0
 163 223 189.666666667 233 221 233 c 0
 255 233 284 221.333333333 308 198 c 0
 332 175.333333333 344 147.666666667 344 115 c 0
 344 81.6666666667 330.333333333 53.3333333333 303 30 c 0
 275 6.66666666667 241.666666667 -5 203 -5 c 0
 157 -5 118 13.3333333333 86 50 c 0
 53.3333333333 87.3333333333 37 132 37 184 c 0
 37 243.333333333 61.3333333333 294.333333333 110 337 c 0
 158.666666667 379 217.333333333 400 286 400 c 2
 671 400 l 1
 671 370 l 1
 671 370 l 1
269 119 m 1
 269 142.333333333 263 162 251 178 c 0
 239.666666667 194.666666667 225.666666667 203 209 203 c 0
 189.666666667 203 173 194.666666667 159 178 c 256
 145 161.333333333 138 141 138 117 c 0
 138 95.6666666667 144.666666667 77.6666666667 158 63 c 0
 171.333333333 47.6666666667 187.333333333 40 206 40 c 0
 223.333333333 40 238.333333333 47.6666666667 251 63 c 0
 263 78.3333333333 269 97 269 119 c 1
 269 119 l 1
EndSplineSet
EndChar

StartChar: uni0BF8
Encoding: 325 3064 70
Width: 1193
GlyphClass: 2
Flags: HW
LayerCount: 2
Back
Fore
SplineSet
48 274 m 1
 48 364.666666667 70.6666666667 442.333333333 116 507 c 0
 161.333333333 571 216 603 280 603 c 0
 342.666666667 603 397.666666667 575 445 519 c 256
 492.333333333 463 519.666666667 393.666666667 527 311 c 1
 539 316.333333333 557.666666667 319 583 319 c 0
 629.666666667 319 669.666666667 303 703 271 c 0
 735.666666667 238.333333333 752 199.333333333 752 154 c 0
 752 130 747.333333333 107.666666667 738 87 c 256
 728.666666667 66.3333333333 715.333333333 49.6666666667 698 37 c 1
 927 37 l 1
 895.666666667 54.3333333333 870.666666667 80 852 114 c 0
 834 148.666666667 825 186.666666667 825 228 c 0
 825 276.666666667 838 318 864 352 c 0
 889.333333333 386.666666667 920.333333333 404 957 404 c 0
 983 404 1005 392 1023 368 c 0
 1041.66666667 343.333333333 1051 314 1051 280 c 2
 1051 37 l 1
 1186 37 l 1
 1186 0 l 1
 1051 0 l 1
 1051 -209 l 1
 976 -209 l 1
 976 0 l 1
 614 0 l 1
 614 38 l 1
 633.333333333 46.6666666667 648.666666667 61.6666666667 660 83 c 256
 671.333333333 104.333333333 677 128.666666667 677 156 c 0
 677 192.666666667 667 224 647 250 c 256
 627 276 603 289 575 289 c 0
 562.333333333 289 548.333333333 286.333333333 533 281 c 1
 541.666666667 248.333333333 546 197.333333333 546 128 c 0
 546 92.6666666667 536.666666667 62.3333333333 518 37 c 0
 499.333333333 12.3333333333 477 0 451 0 c 0
 428.333333333 0 409.333333333 11.3333333333 394 34 c 0
 378 57.3333333333 370 85 370 117 c 0
 370 153 378 186.333333333 394 217 c 256
 410 247.666666667 432 272 460 290 c 1
 448 368 423.666666667 432.333333333 387 483 c 0
 351 534.333333333 311.666666667 560 269 560 c 0
 216.333333333 560 171.333333333 532.333333333 134 477 c 256
 96.6666666667 421.666666667 78 354.666666667 78 276 c 0
 78 227.333333333 83.3333333333 184.666666667 94 148 c 0
 104.666666667 110.666666667 119.666666667 82.3333333333 139 63 c 1
 129.666666667 83 125 106.666666667 125 134 c 0
 125 165.333333333 134 192.333333333 152 215 c 0
 170 237 192 248 218 248 c 0
 246 248 270 236.333333333 290 213 c 256
 310 189.666666667 320 161.666666667 320 129 c 0
 320 93.6666666667 309 63.3333333333 287 38 c 0
 264.333333333 12.6666666667 237.333333333 0 206 0 c 0
 162.666666667 0 125.333333333 26.6666666667 94 80 c 0
 63.3333333333 134 48 198.666666667 48 274 c 1
 48 274 l 1
245 118 m 1
 245 142 241 162.666666667 233 180 c 0
 225 196.666666667 215.333333333 205 204 205 c 0
 190.666666667 205 179 197 169 181 c 0
 159.666666667 165.666666667 155 146.666666667 155 124 c 0
 155 100 159.333333333 79.3333333333 168 62 c 0
 176 45.3333333333 186 37 198 37 c 0
 210.666666667 37 221.666666667 45 231 61 c 0
 240.333333333 76.3333333333 245 95.3333333333 245 118 c 1
 245 118 l 1
471 125 m 1
 471 152 l 2
 471 206.666666667 469 239.666666667 465 251 c 1
 445 237.666666667 429 219 417 195 c 0
 405.666666667 171 400 144.666666667 400 116 c 0
 400 94 403.666666667 75.3333333333 411 60 c 0
 419 44.6666666667 428.333333333 37 439 37 c 0
 447.666666667 37 455.333333333 45.6666666667 462 63 c 0
 468 80.3333333333 471 101 471 125 c 1
 471 125 l 1
976 41 m 1
 976 286 l 2
 976 306.666666667 972.333333333 324.666666667 965 340 c 0
 957 354.666666667 947.666666667 362 937 362 c 0
 914.333333333 362 895 348.333333333 879 321 c 0
 863 293 855 259.666666667 855 221 c 0
 855 180.333333333 866 143.333333333 888 110 c 0
 910.666666667 77.3333333333 940 54.3333333333 976 41 c 1
 976 41 l 1
EndSplineSet
EndChar

StartChar: uni0BF9
Encoding: 326 3065 71
Width: 997
GlyphClass: 2
Flags: HW
LayerCount: 2
Back
Fore
SplineSet
55 200 m 1
 55 310.666666667 91.3333333333 405.333333333 164 484 c 0
 236 562 323.333333333 601 426 601 c 0
 490.666666667 601 547 587.666666667 595 561 c 0
 643.666666667 534.333333333 675 499.666666667 689 457 c 1
 696.333333333 479 709.333333333 497 728 511 c 0
 746.666666667 524.333333333 767 531 789 531 c 0
 825 531 856 519.666666667 882 497 c 0
 907.333333333 475 920 448 920 416 c 1
 995 416 l 1
 995 390 l 1
 856 390 l 1
 856 420.666666667 849 446.666666667 835 468 c 0
 820.333333333 490 803 501 783 501 c 0
 765.666666667 501 750 492.333333333 736 475 c 256
 722 457.666666667 713 436 709 410 c 1
 676 410 l 1
 668.666666667 456.666666667 641.333333333 495 594 525 c 0
 546.666666667 555.666666667 490.666666667 571 426 571 c 0
 344 571 274.333333333 534.666666667 217 462 c 0
 159 390 130 302.666666667 130 200 c 0
 130 90.6666666667 156.666666667 3 210 -63 c 256
 263.333333333 -129 334.333333333 -162 423 -162 c 0
 487.666666667 -162 542.666666667 -140.333333333 588 -97 c 0
 634 -53.6666666667 657 -1.33333333333 657 60 c 0
 658.333333333 98 650 130.333333333 632 157 c 0
 614.666666667 184.333333333 593 198 567 198 c 0
 559.666666667 198 551.333333333 196.333333333 542 193 c 256
 532.666666667 189.666666667 523.333333333 184.666666667 514 178 c 1
 514 0 l 1
 439 0 l 1
 439 370 l 1
 292 370 l 1
 292 0 l 1
 262 0 l 1
 262 400 l 1
 639 400 l 1
 639 370 l 1
 514 370 l 1
 514 214 l 1
 534.666666667 223.333333333 553 228 569 228 c 0
 614.333333333 228 652.666666667 211.333333333 684 178 c 0
 716 144.666666667 732 104.666666667 732 58 c 0
 732 -11.3333333333 701.666666667 -70.3333333333 641 -119 c 256
 580.333333333 -167.666666667 507.333333333 -192 422 -192 c 0
 310.666666667 -192 221.666666667 -156.333333333 155 -85 c 256
 88.3333333333 -13.6666666667 55 81.3333333333 55 200 c 1
 55 200 l 1
EndSplineSet
EndChar

StartChar: uni0BFA
Encoding: 327 3066 72
Width: 1024
GlyphClass: 2
Flags: HW
LayerCount: 2
Back
Fore
SplineSet
70 0 m 1
 70 400 l 1
 297 400 l 1
 283 412 272 426 264 442 c 256
 256 458 252 474.333333333 252 491 c 0
 252 523 270.666666667 550 308 572 c 0
 344.666666667 594.666666667 389.333333333 606 442 606 c 0
 516 606 580.666666667 586.333333333 636 547 c 0
 690.666666667 508.333333333 722.666666667 459.333333333 732 400 c 1
 784.666666667 400 829.666666667 382.333333333 867 347 c 0
 904.333333333 311 923 268 923 218 c 0
 923 173.333333333 910.666666667 133.666666667 886 99 c 0
 860.666666667 64.3333333333 828.333333333 41.6666666667 789 31 c 1
 1018 31 l 1
 1018 0 l 1
 665 0 l 1
 665 29 l 1
 715.666666667 29 758.666666667 46.6666666667 794 82 c 0
 830 118 848 161 848 211 c 0
 848 255 837 292.333333333 815 323 c 0
 793 354.333333333 766.666666667 370 736 370 c 1
 742 344 745 316.333333333 745 287 c 0
 745 251 735 220.333333333 715 195 c 256
 695 169.666666667 670.666666667 157 642 157 c 0
 611.333333333 157 585.333333333 168.666666667 564 192 c 256
 542.666666667 215.333333333 532 243.666666667 532 277 c 0
 532 311 548.333333333 340 581 364 c 256
 613.666666667 388 653 400 699 400 c 1
 688.333333333 446 660.333333333 483.666666667 615 513 c 0
 569 542.333333333 515.666666667 557 455 557 c 0
 412.333333333 557 376 547.333333333 346 528 c 256
 316 508.666666667 301 485.333333333 301 458 c 0
 301 446 303.333333333 435 308 425 c 0
 312 415 318 406.666666667 326 400 c 1
 502 400 l 1
 502 370 l 1
 317 370 l 1
 317 236 l 1
 328.333333333 244.666666667 340 251 352 255 c 0
 364 259.666666667 376 262 388 262 c 0
 423.333333333 262 453.666666667 250 479 226 c 256
 504.333333333 202 517 173 517 139 c 0
 517 100.333333333 504.666666667 67.6666666667 480 41 c 0
 456 13.6666666667 426.666666667 0 392 0 c 2
 242 0 l 1
 242 31 l 1
 348 31 l 2
 374 31 396 41.6666666667 414 63 c 0
 432.666666667 83.6666666667 442 109 442 139 c 0
 442 165 435.333333333 187 422 205 c 256
 408.666666667 223 392.666666667 232 374 232 c 0
 360.666666667 232 349 228.666666667 339 222 c 0
 328.333333333 215.333333333 321 206.333333333 317 195 c 1
 317 106 l 1
 242 106 l 1
 242 370 l 1
 100 370 l 1
 100 0 l 1
 70 0 l 1
 70 0 l 1
715 285 m 1
 715 327 711.333333333 355.333333333 704 370 c 1
 677.333333333 370 654.333333333 361 635 343 c 0
 616.333333333 325 607 303.333333333 607 278 c 0
 607 259.333333333 611.666666667 243.333333333 621 230 c 256
 630.333333333 216.666666667 641.666666667 210 655 210 c 0
 671.666666667 210 685.666666667 217.333333333 697 232 c 0
 709 246.666666667 715 264.333333333 715 285 c 1
 715 285 l 1
EndSplineSet
EndChar

StartChar: uni0964
Encoding: 328 2404 73
Width: 285
GlyphClass: 2
Flags: HW
LayerCount: 2
Back
Fore
SplineSet
215 0 m 1
 140 0 l 1
 140 400 l 1
 215 400 l 1
 215 0 l 1
 215 0 l 1
EndSplineSet
EndChar

StartChar: uni0965
Encoding: 329 2405 74
Width: 461
GlyphClass: 2
Flags: HW
LayerCount: 2
Back
Fore
SplineSet
391 0 m 1
 316 0 l 1
 316 400 l 1
 391 400 l 1
 391 0 l 1
 391 0 l 1
215 0 m 1
 140 0 l 1
 140 400 l 1
 215 400 l 1
 215 0 l 1
 215 0 l 1
EndSplineSet
EndChar

StartChar: uni0BB6
Encoding: 330 2998 75
Width: 731
GlyphClass: 2
Flags: HW
LayerCount: 2
Back
Fore
SplineSet
63 115 m 1
 63 400 l 1
 93 400 l 1
 93 115 l 2
 93 96.3333333333 100 80.3333333333 114 67 c 0
 127.333333333 53.6666666667 143.666666667 47 163 47 c 256
 182.333333333 47 199 53.6666666667 213 67 c 256
 227 80.3333333333 234 96.3333333333 234 115 c 2
 234 400 l 1
 668 400 l 1
 668 116 l 2
 668 84 655.666666667 56.6666666667 631 34 c 256
 606.333333333 11.3333333333 576.333333333 0 541 0 c 0
 508.333333333 0 480.333333333 11.3333333333 457 34 c 256
 433.666666667 56.6666666667 422 84 422 116 c 2
 422 370 l 1
 309 370 l 1
 309 118 l 2
 309 85.3333333333 296.666666667 57.6666666667 272 35 c 0
 247.333333333 11.6666666667 217.666666667 0 183 0 c 0
 149.666666667 0 121.333333333 11.3333333333 98 34 c 0
 74.6666666667 56 63 83 63 115 c 1
 63 115 l 1
452 370 m 1
 452 116 l 2
 452 96.6666666667 459 80.3333333333 473 67 c 0
 486.333333333 53.6666666667 502.666666667 47 522 47 c 256
 541.333333333 47 558 53.6666666667 572 67 c 256
 586 80.3333333333 593 96.6666666667 593 116 c 2
 593 370 l 1
 452 370 l 1
 452 370 l 1
EndSplineSet
EndChar

StartChar: uni0BD0
Encoding: 331 3024 76
Width: 721
GlyphClass: 2
Flags: HW
LayerCount: 2
Back
Fore
SplineSet
37 156 m 0
 37 229.333333333 65 288.333333333 121 333 c 0
 177.666666667 377 252.666666667 399 346 399 c 0
 448.666666667 399 531 376.666666667 593 332 c 256
 655 287.333333333 686 228 686 154 c 0
 686 114 672 79.6666666667 644 51 c 256
 616 22.3333333333 582.333333333 8 543 8 c 0
 516.333333333 8 493.666666667 17.6666666667 475 37 c 0
 456.333333333 57 447 80.6666666667 447 108 c 2
 447 131 l 1
 436.333333333 123.666666667 428.333333333 112 423 96 c 0
 417 80 414 61.3333333333 414 40 c 0
 414 8.66666666667 429.333333333 -18.3333333333 460 -41 c 0
 491.333333333 -63 528.666666667 -74 572 -74 c 2
 666 -74 l 1
 666 -104 l 1
 528 -104 l 2
 512 -104 498 -111 486 -125 c 0
 474.666666667 -139 469 -156 469 -176 c 0
 469 -208 448.666666667 -233.666666667 408 -253 c 0
 366.666666667 -272.333333333 312 -282 244 -282 c 0
 179.333333333 -282 127.666666667 -268 89 -240 c 0
 50.3333333333 -212.666666667 31 -176 31 -130 c 0
 31 -108 36.6666666667 -89 48 -73 c 0
 59.3333333333 -57.6666666667 73 -50 89 -50 c 0
 103 -50 114.666666667 -55 124 -65 c 0
 134 -74.3333333333 139 -86 139 -100 c 2
 139 -153 l 1
 233 -153 l 1
 233 -111 l 2
 233 -96.3333333333 239.333333333 -84 252 -74 c 256
 264.666666667 -64 280 -59 298 -59 c 0
 316.666666667 -59 332.666666667 -64.3333333333 346 -75 c 256
 359.333333333 -85.6666666667 366 -98.3333333333 366 -113 c 2
 366 -183 l 1
 109 -183 l 1
 109 -105 l 2
 109 -98.3333333333 107 -92.3333333333 103 -87 c 0
 99 -82.3333333333 94.3333333333 -80 89 -80 c 0
 81 -80 74.3333333333 -84.6666666667 69 -94 c 0
 63.6666666667 -104 61 -115.666666667 61 -129 c 0
 61 -166.333333333 77.6666666667 -196 111 -218 c 0
 145 -240.666666667 189.666666667 -252 245 -252 c 0
 290.333333333 -252 326.333333333 -244 353 -228 c 0
 380.333333333 -212 394 -190.666666667 394 -164 c 0
 394 -140.666666667 402.666666667 -121 420 -105 c 0
 437.333333333 -88.3333333333 458.333333333 -80 483 -80 c 1
 453.666666667 -72 430 -56.6666666667 412 -34 c 0
 393.333333333 -11.3333333333 384 14.3333333333 384 43 c 0
 384 80.3333333333 395.333333333 112 418 138 c 0
 440 164.666666667 467 178 499 178 c 1
 491.666666667 169.333333333 486.333333333 159.333333333 483 148 c 0
 479 136 477 123 477 109 c 0
 477 89.6666666667 483.333333333 73 496 59 c 0
 509.333333333 45 525 38 543 38 c 0
 561.666666667 38 577.666666667 49.3333333333 591 72 c 0
 604.333333333 94 611 121 611 153 c 0
 611 209 584.666666667 256.666666667 532 296 c 256
 479.333333333 335.333333333 415.666666667 355 341 355 c 0
 265.666666667 355 201 335.666666667 147 297 c 0
 93.6666666667 257.666666667 67 210.666666667 67 156 c 0
 67 127.333333333 74.3333333333 101.333333333 89 78 c 0
 103 54.6666666667 122.333333333 38 147 28 c 1
 138.333333333 36.6666666667 131.666666667 47.6666666667 127 61 c 0
 121.666666667 74.3333333333 119 89 119 105 c 0
 119 133.666666667 128.666666667 158 148 178 c 0
 166.666666667 198 189.666666667 208 217 208 c 0
 247.666666667 208 274 197.333333333 296 176 c 0
 318 155.333333333 329 130 329 100 c 0
 329 69.3333333333 317 43.3333333333 293 22 c 256
 269 0.666666666667 240 -10 206 -10 c 0
 159.333333333 -10 119.333333333 6.33333333333 86 39 c 0
 53.3333333333 71 37 110 37 156 c 0
254 104 m 0
 254 124.666666667 249.666666667 142 241 156 c 0
 232.333333333 170.666666667 221.666666667 178 209 178 c 0
 192.333333333 178 178.333333333 171 167 157 c 0
 155 143 149 126 149 106 c 0
 149 82 153.333333333 61.6666666667 162 45 c 0
 171.333333333 28.3333333333 182.333333333 20 195 20 c 0
 211 20 225 28.3333333333 237 45 c 0
 248.333333333 61 254 80.6666666667 254 104 c 0
362 -9 m 256
 362 -17.6666666667 358.666666667 -25.3333333333 352 -32 c 0
 346 -38 338.333333333 -41 329 -41 c 0
 317.666666667 -41 307.666666667 -37.6666666667 299 -31 c 0
 291 -25 287 -17.3333333333 287 -8 c 0
 287 0.666666666667 291 8 299 14 c 0
 307.666666667 20 317.666666667 23 329 23 c 0
 338.333333333 23 346 20 352 14 c 0
 358.666666667 7.33333333333 362 -0.333333333333 362 -9 c 256
322 -109 m 2
 322 -103.666666667 319.333333333 -99 314 -95 c 0
 309.333333333 -91 303.333333333 -89 296 -89 c 0
 290.666666667 -89 286.333333333 -91 283 -95 c 0
 279 -99 277 -103.666666667 277 -109 c 2
 277 -153 l 1
 322 -153 l 1
 322 -109 l 2
EndSplineSet
EndChar

StartChar: uni20B9
Encoding: 332 8377 77
Width: 557
GlyphClass: 2
Flags: HW
LayerCount: 2
Back
Fore
SplineSet
70 450 m 1
 70 480 l 1
 487 480 l 1
 487 450 l 1
 281 450 l 1
 301.666666667 438.666666667 318.666666667 424 332 406 c 0
 344.666666667 388.666666667 352 369.666666667 354 349 c 1
 487 349 l 1
 487 318 l 1
 351 318 l 1
 345.666666667 284 325 255.666666667 289 233 c 0
 252.333333333 210.333333333 209.333333333 199 160 199 c 1
 187.333333333 147 219.666666667 105.666666667 257 75 c 0
 293.666666667 45 330 30 366 30 c 0
 377.333333333 30 389 32.3333333333 401 37 c 0
 413 41 424.666666667 47.3333333333 436 56 c 1
 453 35 l 1
 441 21.6666666667 424.666666667 11.3333333333 404 4 c 256
 383.333333333 -3.33333333333 360.333333333 -7 335 -7 c 0
 283.666666667 -7 234.333333333 12.6666666667 187 52 c 0
 139 90.6666666667 101.333333333 142.666666667 74 208 c 1
 74 223 l 1
 124 223 167 232 203 250 c 0
 239 267.333333333 260.333333333 290 267 318 c 1
 70 318 l 1
 70 349 l 1
 269 349 l 1
 266.333333333 377.666666667 257 401.666666667 241 421 c 256
 225 440.333333333 206.333333333 450 185 450 c 2
 70 450 l 1
 70 450 l 1
EndSplineSet
EndChar

StartChar: uni0B95_uni0BBF
Encoding: 333 -1 78
Width: 702
GlyphClass: 2
Flags: HW
LayerCount: 2
Back
Fore
SplineSet
547 114 m 1
 547 73.3333333333 535.666666667 44 513 26 c 0
 490.333333333 8.66666666667 452.666666667 0 400 0 c 1
 400 30 l 1
 426.666666667 30 445.333333333 36 456 48 c 0
 466.666666667 60.6666666667 472 82.3333333333 472 113 c 0
 472 137 468.666666667 155 462 167 c 0
 456 179 446.666666667 185 434 185 c 2
 368 185 l 1
 368 131 l 2
 368 87 351.666666667 54 319 32 c 0
 286.333333333 9.33333333333 237.666666667 -2 173 -2 c 0
 135 -2 102.666666667 11.3333333333 76 38 c 256
 49.3333333333 64.6666666667 36 96.6666666667 36 134 c 0
 36 158.666666667 44.6666666667 178.333333333 62 193 c 0
 78.6666666667 207.666666667 101.333333333 215 130 215 c 1
 109.333333333 237.666666667 93.6666666667 264 83 294 c 0
 71.6666666667 324 66 355.333333333 66 388 c 0
 66 470.666666667 91.6666666667 536.666666667 143 586 c 0
 195 636 263.666666667 661 349 661 c 256
 434.333333333 661 503 635 555 583 c 0
 606.333333333 530.333333333 632 460.666666667 632 374 c 2
 632 0 l 1
 602 0 l 1
 602 375 l 2
 602 435.666666667 577.333333333 487.333333333 528 530 c 256
 478.666666667 572.666666667 419 594 349 594 c 256
 279 594 219.333333333 573 170 531 c 0
 120.666666667 488.333333333 96 437.333333333 96 378 c 0
 96 350 101 322.333333333 111 295 c 256
 121 267.666666667 135.666666667 242.333333333 155 219 c 1
 155 400 l 1
 501 400 l 1
 501 370 l 1
 368 370 l 1
 368 215 l 1
 467 215 l 2
 491 215 510.333333333 205.666666667 525 187 c 0
 539.666666667 169 547 144.666666667 547 114 c 1
 547 114 l 1
293 215 m 1
 293 370 l 1
 185 370 l 1
 185 215 l 1
 293 215 l 1
 293 215 l 1
293 138 m 1
 293 185 l 1
 124 185 l 2
 106.666666667 185 92.6666666667 180.333333333 82 171 c 0
 71.3333333333 162.333333333 66 150.333333333 66 135 c 0
 66 102.333333333 75.6666666667 76.3333333333 95 57 c 0
 115 37.6666666667 141.333333333 28 174 28 c 256
 206.666666667 28 234.666666667 38.6666666667 258 60 c 256
 281.333333333 81.3333333333 293 107.333333333 293 138 c 1
 293 138 l 1
EndSplineSet
Ligature2: "'abvs' Above Base Substitutions in Tamil lookup 2 subtable" uni0B95 uni0BBF
EndChar

StartChar: uni0B99_uni0BBF
Encoding: 334 -1 79
Width: 913
GlyphClass: 2
Flags: HW
LayerCount: 2
Back
Fore
SplineSet
699 0 m 1
 246 0 l 1
 246 30 l 1
 397 30 l 1
 417 41.3333333333 432.666666667 56.6666666667 444 76 c 0
 455.333333333 94.6666666667 461 115 461 137 c 0
 461 165.666666667 453 190 437 210 c 256
 421 230 401.666666667 240 379 240 c 0
 367.666666667 240 357 237.666666667 347 233 c 0
 337 229 328.333333333 223 321 215 c 1
 321 110 l 1
 246 110 l 1
 246 370 l 1
 100 370 l 1
 100 0 l 1
 70 0 l 1
 70 400 l 1
 434 400 l 1
 434 370 l 1
 321 370 l 1
 321 247 l 1
 331.666666667 254.333333333 344.333333333 260 359 264 c 256
 373.666666667 268 389.666666667 270 407 270 c 0
 446.333333333 270 477.666666667 258 501 234 c 0
 524.333333333 209.333333333 536 177 536 137 c 0
 536 114.333333333 528.666666667 93.3333333333 514 74 c 0
 500 54 481 39.3333333333 457 30 c 1
 624 30 l 1
 624 308 l 1
 591.333333333 314 564.333333333 331.666666667 543 361 c 0
 521.666666667 391 511 425.666666667 511 465 c 0
 511 521.666666667 527 568.333333333 559 605 c 0
 591 642.333333333 631.333333333 661 680 661 c 0
 731.333333333 661 771.333333333 642 800 604 c 0
 828.666666667 566.666666667 843 514 843 446 c 2
 843 0 l 1
 813 0 l 1
 813 434 l 2
 813 482.666666667 801 521.333333333 777 550 c 0
 752.333333333 579.333333333 720 594 680 594 c 0
 638 594 604.333333333 581.666666667 579 557 c 0
 553.666666667 531.666666667 541 498.333333333 541 457 c 0
 541 427.666666667 549.666666667 400.666666667 567 376 c 256
 584.333333333 351.333333333 603.333333333 339 624 339 c 1
 624 400 l 1
 699 400 l 1
 699 0 l 1
 699 0 l 1
EndSplineSet
Ligature2: "'abvs' Above Base Substitutions in Tamil lookup 2 subtable" uni0B99 uni0BBF
EndChar

StartChar: uni0B9A_uni0BBF
Encoding: 335 -1 80
Width: 647
GlyphClass: 2
Flags: HW
LayerCount: 2
Back
Fore
SplineSet
496 185 m 1
 371 185 l 1
 371 137 l 2
 371 91.6666666667 356.333333333 57.6666666667 327 35 c 0
 297.666666667 11.6666666667 254 0 196 0 c 0
 148.666666667 0 110.666666667 12.3333333333 82 37 c 0
 53.3333333333 62.3333333333 39 95.6666666667 39 137 c 0
 39 160.333333333 47.6666666667 179.333333333 65 194 c 0
 82.3333333333 208 105.333333333 215 134 215 c 1
 112 228.333333333 94.6666666667 250.333333333 82 281 c 0
 69.3333333333 312.333333333 63 348.333333333 63 389 c 0
 63 471 86.3333333333 537 133 587 c 0
 179.666666667 636.333333333 242 661 320 661 c 0
 404.666666667 661 468.666666667 636.666666667 512 588 c 0
 555.333333333 538.666666667 577 466 577 370 c 2
 577 0 l 1
 547 0 l 1
 547 370 l 2
 547 438 526.333333333 492.333333333 485 533 c 256
 443.666666667 573.666666667 388.666666667 594 320 594 c 256
 251.333333333 594 196.333333333 574.666666667 155 536 c 0
 113.666666667 496.666666667 93 444.666666667 93 380 c 0
 93 344.666666667 98 313.666666667 108 287 c 0
 117.333333333 260.333333333 130.666666667 241.333333333 148 230 c 1
 148 400 l 1
 496 400 l 1
 496 370 l 1
 371 370 l 1
 371 215 l 1
 496 215 l 1
 496 185 l 1
 496 185 l 1
296 215 m 1
 296 370 l 1
 178 370 l 1
 178 215 l 1
 296 215 l 1
 296 215 l 1
296 137 m 1
 296 185 l 1
 127 185 l 2
 109.666666667 185 95.6666666667 180.666666667 85 172 c 256
 74.3333333333 163.333333333 69 151.666666667 69 137 c 0
 69 104.333333333 80.6666666667 78.3333333333 104 59 c 256
 127.333333333 39.6666666667 158.333333333 30 197 30 c 0
 227 30 251 39.6666666667 269 59 c 256
 287 78.3333333333 296 104.333333333 296 137 c 1
 296 137 l 1
EndSplineSet
Ligature2: "'abvs' Above Base Substitutions in Tamil lookup 2 subtable" uni0B9A uni0BBF
EndChar

StartChar: uni0B9C_uni0BBF
Encoding: 336 -1 81
Width: 900
GlyphClass: 2
Flags: HW
LayerCount: 2
Back
Fore
SplineSet
830 0 m 1
 800 0 l 1
 800 477 l 2
 800 509 786 536.666666667 758 560 c 0
 729.333333333 582.666666667 695 594 655 594 c 0
 619 594 588 583 562 561 c 0
 536.666666667 539 524 512.666666667 524 482 c 256
 524 451.333333333 529.333333333 424.666666667 540 402 c 1
 580.666666667 398.666666667 615 380.333333333 643 347 c 0
 670.333333333 313 684 273.333333333 684 228 c 0
 684 178.666666667 663.666666667 136.666666667 623 102 c 0
 583 67.3333333333 534.333333333 50 477 50 c 2
 215 50 l 2
 183 50 156 39 134 17 c 0
 111.333333333 -5.66666666667 100 -32.6666666667 100 -64 c 0
 100 -98 110.333333333 -127.333333333 131 -152 c 0
 151.666666667 -176 176.333333333 -188 205 -188 c 0
 224.333333333 -188 247 -179.333333333 273 -162 c 0
 299.666666667 -144.666666667 328 -120 358 -88 c 0
 385.333333333 -58.6666666667 415 -36 447 -20 c 0
 478.333333333 -4 509.666666667 4 541 4 c 0
 584.333333333 4 619 -6.66666666667 645 -28 c 256
 671 -49.3333333333 684 -78 684 -114 c 0
 684 -148.666666667 670.666666667 -176.333333333 644 -197 c 0
 618 -217.666666667 583 -228 539 -228 c 0
 515.666666667 -228 493.666666667 -224 473 -216 c 0
 452.333333333 -207.333333333 435 -195.666666667 421 -181 c 1
 436 -157 l 1
 451.333333333 -170.333333333 467.666666667 -180.333333333 485 -187 c 0
 503 -194.333333333 521 -198 539 -198 c 0
 558.333333333 -198 574.666666667 -189.666666667 588 -173 c 0
 602 -156.333333333 609 -136.333333333 609 -113 c 0
 609 -89 601.333333333 -68.3333333333 586 -51 c 0
 570.666666667 -34.3333333333 552.333333333 -26 531 -26 c 0
 485.666666667 -26 430.666666667 -58 366 -122 c 256
 301.333333333 -186 246.333333333 -218 201 -218 c 0
 147.666666667 -218 105 -204 73 -176 c 256
 41 -148 25 -110.666666667 25 -64 c 0
 25 -24 43 10 79 38 c 256
 115 66 158.666666667 80 210 80 c 2
 478 80 l 2
 514 80 545 94.6666666667 571 124 c 0
 596.333333333 153.333333333 609 189 609 231 c 0
 609 269 599.333333333 301.333333333 580 328 c 0
 561.333333333 354.666666667 538.333333333 368 511 368 c 0
 487 368 466.333333333 358.666666667 449 340 c 0
 431.666666667 320.666666667 423 297.666666667 423 271 c 2
 423 138 l 1
 348 138 l 1
 348 259 l 2
 348 289 332.333333333 314.666666667 301 336 c 0
 270.333333333 357.333333333 233 368 189 368 c 0
 154.333333333 368 125 357.666666667 101 337 c 0
 76.3333333333 316.333333333 64 291.333333333 64 262 c 0
 64 233.333333333 70.6666666667 208.666666667 84 188 c 256
 97.3333333333 167.333333333 113.666666667 156 133 154 c 1
 121.666666667 158 112.666666667 166.666666667 106 180 c 0
 99.3333333333 194 96 210.333333333 96 229 c 0
 96 258.333333333 104.333333333 281.666666667 121 299 c 256
 137.666666667 316.333333333 160 325 188 325 c 256
 216 325 238.333333333 316 255 298 c 0
 271.666666667 279.333333333 280 255 280 225 c 0
 280 195.666666667 269.666666667 172 249 154 c 0
 229 136 202 127 168 127 c 0
 127.333333333 127 95 139 71 163 c 0
 46.3333333333 187 34 218.666666667 34 258 c 0
 34 296.666666667 51 329.666666667 85 357 c 0
 118.333333333 384.333333333 159 398 207 398 c 0
 251 398 290 391 324 377 c 0
 357.333333333 363 381.666666667 344 397 320 c 1
 405 342 419 360.333333333 439 375 c 256
 459 389.666666667 482 398.666666667 508 402 c 1
 498.666666667 430.666666667 494 459 494 487 c 0
 494 535 510.333333333 576 543 610 c 0
 575 644 614 661 660 661 c 0
 706.666666667 661 746.666666667 643.333333333 780 608 c 0
 813.333333333 572 830 529 830 479 c 2
 830 0 l 1
 830 0 l 1
217 225 m 1
 217 244.333333333 212.666666667 260.666666667 204 274 c 0
 195.333333333 288 185 295 173 295 c 0
 160.333333333 295 149.333333333 288.666666667 140 276 c 0
 130.666666667 262.666666667 126 247 126 229 c 0
 126 209 130.333333333 192 139 178 c 256
 147.666666667 164 158 157 170 157 c 0
 182.666666667 157 193.666666667 163.666666667 203 177 c 256
 212.333333333 190.333333333 217 206.333333333 217 225 c 1
 217 225 l 1
EndSplineSet
Ligature2: "'abvs' Above Base Substitutions in Tamil lookup 2 subtable" uni0B9C uni0BBF
EndChar

StartChar: uni0B9E_uni0BBF
Encoding: 337 -1 82
Width: 1091
GlyphClass: 2
Flags: HW
LayerCount: 2
Back
Fore
SplineSet
898 88 m 1
 898 -22 858.666666667 -107.333333333 780 -168 c 0
 700.666666667 -228.666666667 590 -259 448 -259 c 0
 332 -259 236 -222.666666667 160 -150 c 256
 84 -77.3333333333 46 14.6666666667 46 126 c 0
 46 175.333333333 55.6666666667 223.333333333 75 270 c 256
 94.3333333333 316.666666667 121.666666667 358.333333333 157 395 c 1
 177 373 l 1
 144.333333333 338.333333333 119.333333333 299.666666667 102 257 c 0
 84.6666666667 213.666666667 76 169.666666667 76 125 c 0
 76 23 111 -61.6666666667 181 -129 c 0
 251.666666667 -195.666666667 340.666666667 -229 448 -229 c 0
 561.333333333 -229 649.666666667 -201 713 -145 c 0
 775.666666667 -89.6666666667 807 -11.6666666667 807 89 c 0
 807 123.666666667 798.333333333 153.333333333 781 178 c 256
 763.666666667 202.666666667 742.666666667 215 718 215 c 0
 712.666666667 215 706.666666667 213.666666667 700 211 c 256
 693.333333333 208.333333333 686.666666667 204.666666667 680 200 c 1
 680 0 l 1
 605 0 l 1
 605 370 l 1
 435 370 l 2
 374.333333333 370 322.333333333 352 279 316 c 0
 236.333333333 280 215 236.333333333 215 185 c 0
 215 154.333333333 220.666666667 127 232 103 c 0
 242.666666667 79 257.666666667 61.3333333333 277 50 c 1
 270.333333333 58 265 67.6666666667 261 79 c 0
 257.666666667 90.3333333333 256 102.333333333 256 115 c 0
 256 151 265.666666667 179.666666667 285 201 c 0
 305 222.333333333 331.333333333 233 364 233 c 0
 403.333333333 233 434.666666667 222.333333333 458 201 c 256
 481.333333333 179.666666667 493 151 493 115 c 256
 493 79 480 50.3333333333 454 29 c 0
 428.666666667 7.66666666667 394.666666667 -3 352 -3 c 0
 301.333333333 -3 261 14 231 48 c 0
 200.333333333 82.6666666667 185 128.333333333 185 185 c 0
 185 247 208.666666667 298.333333333 256 339 c 0
 304 379.666666667 364.333333333 400 437 400 c 2
 618 400 l 1
 604.666666667 424 598 451 598 481 c 0
 598 531 617.666666667 573.333333333 657 608 c 0
 696.333333333 643.333333333 744 661 800 661 c 0
 876 661 931.666666667 639.333333333 967 596 c 0
 1003 553.333333333 1021 486 1021 394 c 2
 1021 0 l 1
 991 0 l 1
 991 397 l 2
 991 462.333333333 974.666666667 511.333333333 942 544 c 0
 909.333333333 577.333333333 861 594 797 594 c 0
 750.333333333 594 710.333333333 582.333333333 677 559 c 0
 644.333333333 535.666666667 628 507.333333333 628 474 c 0
 628 460 630.333333333 446.666666667 635 434 c 0
 640.333333333 420.666666667 647.333333333 409.333333333 656 400 c 1
 801 400 l 1
 801 370 l 1
 680 370 l 1
 680 228 l 1
 700.666666667 237.333333333 718 242 732 242 c 0
 782 242 822.333333333 228 853 200 c 0
 883 172 898 134.666666667 898 88 c 1
 898 88 l 1
418 119 m 1
 418 141 411.666666667 159.666666667 399 175 c 0
 385.666666667 190.333333333 370 198 352 198 c 256
 334 198 318.333333333 190 305 174 c 0
 292.333333333 158.666666667 286 139.666666667 286 117 c 0
 286 96.3333333333 292.333333333 78.6666666667 305 64 c 0
 318.333333333 49.3333333333 334 42 352 42 c 256
 370 42 385.666666667 49.6666666667 399 65 c 0
 411.666666667 79.6666666667 418 97.6666666667 418 119 c 1
 418 119 l 1
EndSplineSet
Ligature2: "'abvs' Above Base Substitutions in Tamil lookup 2 subtable" uni0B9E uni0BBF
EndChar

StartChar: uni0B9F_uni0BBF
Encoding: 338 -1 83
Width: 750
GlyphClass: 2
Flags: HW
LayerCount: 2
Back
Fore
SplineSet
745 0 m 1
 541 0 l 1
 541 -231 l 1
 466 -231 l 1
 466 0 l 1
 70 0 l 1
 70 400 l 1
 145 400 l 1
 145 30 l 1
 414 30 l 1
 384 44 360 67.6666666667 342 101 c 0
 324 133.666666667 315 171 315 213 c 0
 315 265.666666667 326 306.666666667 348 336 c 256
 370 365.333333333 401 380 441 380 c 0
 468.333333333 380 492 370 512 350 c 0
 531.333333333 330 541 306 541 278 c 2
 541 30 l 1
 745 30 l 1
 745 0 l 1
 745 0 l 1
466 32 m 1
 466 282 l 2
 466 302.666666667 461.666666667 319 453 331 c 0
 443.666666667 343.666666667 431.666666667 350 417 350 c 0
 397 350 380 336.666666667 366 310 c 0
 352 284 345 252.333333333 345 215 c 0
 345 175.666666667 356 139.333333333 378 106 c 0
 400 73.3333333333 429.333333333 48.6666666667 466 32 c 1
 466 32 l 1
EndSplineSet
Ligature2: "'abvs' Above Base Substitutions in Tamil lookup 2 subtable" uni0B9F uni0BBF
EndChar

StartChar: uni0BA3_uni0BBF
Encoding: 339 -1 84
Width: 1336
GlyphClass: 2
Flags: HW
LayerCount: 2
Back
Fore
SplineSet
39 173 m 1
 39 241.666666667 63 296.333333333 111 337 c 0
 159 378.333333333 222.666666667 399 302 399 c 0
 345.333333333 399 383.666666667 394.666666667 417 386 c 0
 450.333333333 378 476.333333333 366 495 350 c 1
 513.666666667 366 535.333333333 378 560 386 c 0
 585.333333333 394.666666667 611.666666667 399 639 399 c 0
 669.666666667 399 697.333333333 395.333333333 722 388 c 0
 747.333333333 380.666666667 768.333333333 370.333333333 785 357 c 1
 823 385.666666667 863.333333333 400 906 400 c 2
 997 400 l 1
 982.333333333 426.666666667 975 456.666666667 975 490 c 0
 975 542 988 583.333333333 1014 614 c 0
 1040 645.333333333 1074.66666667 661 1118 661 c 0
 1166.66666667 661 1203.66666667 641.333333333 1229 602 c 0
 1253.66666667 562.666666667 1266 504.666666667 1266 428 c 2
 1266 0 l 1
 1236 0 l 1
 1236 402 l 2
 1236 465.333333333 1226 513.333333333 1206 546 c 0
 1186 578 1156.66666667 594 1118 594 c 0
 1084 594 1056.66666667 584.333333333 1036 565 c 0
 1015.33333333 545 1005 518.666666667 1005 486 c 0
 1005 451.333333333 1013 422.666666667 1029 400 c 1
 1169 400 l 1
 1169 369 l 1
 1061 369 l 1
 1061 0 l 1
 986 0 l 1
 986 369 l 1
 928 369 l 2
 903.333333333 369 881 366 861 360 c 0
 840.333333333 354.666666667 823 346.333333333 809 335 c 1
 836.333333333 308.333333333 857.666666667 278 873 244 c 0
 887.666666667 209.333333333 895 173.666666667 895 137 c 0
 895 93.6666666667 885.333333333 59 866 33 c 256
 846.666666667 7 821 -6 789 -6 c 0
 756.333333333 -6 730 7 710 33 c 256
 690 59 680 93.6666666667 680 137 c 0
 680 169.666666667 685.333333333 201.333333333 696 232 c 0
 707.333333333 262.666666667 723.333333333 290.333333333 744 315 c 1
 729.333333333 332.333333333 712.333333333 345.666666667 693 355 c 256
 673.666666667 364.333333333 653.666666667 369 633 369 c 256
 612.333333333 369 592.666666667 365.666666667 574 359 c 256
 555.333333333 352.333333333 538.333333333 342.666666667 523 330 c 1
 551.666666667 304 573.666666667 274.333333333 589 241 c 0
 605 207 613 172.333333333 613 137 c 0
 613 93.6666666667 602.333333333 59 581 33 c 256
 559.666666667 7 531.333333333 -6 496 -6 c 0
 462 -6 434.666666667 7 414 33 c 256
 393.333333333 59 383 93.6666666667 383 137 c 0
 383 169 389 200 401 230 c 0
 413.666666667 260 431.333333333 287.333333333 454 312 c 1
 433.333333333 330.666666667 408.333333333 344.666666667 379 354 c 0
 350.333333333 364 318.666666667 369 284 369 c 0
 224.666666667 369 174 350 132 312 c 256
 90 274 69 228.333333333 69 175 c 0
 69 141.666666667 75.3333333333 112.666666667 88 88 c 0
 100 63.3333333333 116.333333333 47 137 39 c 1
 128.333333333 49 122 60.6666666667 118 74 c 0
 113.333333333 88 111 102.666666667 111 118 c 0
 111 151.333333333 120.333333333 178.333333333 139 199 c 0
 157 219 181.333333333 229 212 229 c 0
 242 229 267.666666667 218.333333333 289 197 c 256
 310.333333333 175.666666667 321 150 321 120 c 0
 321 82 309 51.3333333333 285 28 c 0
 261.666666667 5.33333333333 230.333333333 -6 191 -6 c 0
 149 -6 113.333333333 11.3333333333 84 46 c 0
 54 81.3333333333 39 123.666666667 39 173 c 1
 39 173 l 1
820 137 m 1
 820 166.333333333 815.333333333 194 806 220 c 0
 796.666666667 246.666666667 783 269.333333333 765 288 c 1
 747.666666667 270 734 247.666666667 724 221 c 0
 714.666666667 195 710 167 710 137 c 0
 710 111 715.666666667 89 727 71 c 256
 738.333333333 53 752 44 768 44 c 0
 782.666666667 44 795 53 805 71 c 256
 815 89 820 111 820 137 c 1
 820 137 l 1
538 137 m 1
 538 165 532.666666667 192.333333333 522 219 c 0
 512 245 497.333333333 268.333333333 478 289 c 1
 457.333333333 265.666666667 441.333333333 241 430 215 c 256
 418.666666667 189 413 163 413 137 c 256
 413 111 419 89 431 71 c 256
 443 53 457.333333333 44 474 44 c 0
 492 44 507 53 519 71 c 0
 531.666666667 89 538 111 538 137 c 1
 538 137 l 1
246 118 m 1
 246 137.333333333 240.666666667 154 230 168 c 256
 219.333333333 182 206.666666667 189 192 189 c 0
 178 189 166 182 156 168 c 256
 146 154 141 137 141 117 c 256
 141 97 146 79.6666666667 156 65 c 0
 166 51 178.333333333 44 193 44 c 256
 207.666666667 44 220 51.3333333333 230 66 c 0
 240.666666667 80 246 97.3333333333 246 118 c 1
 246 118 l 1
EndSplineSet
Ligature2: "'abvs' Above Base Substitutions in Tamil lookup 2 subtable" uni0BA3 uni0BBF
EndChar

StartChar: uni0BA4_uni0BBF
Encoding: 340 -1 85
Width: 710
GlyphClass: 2
Flags: HW
LayerCount: 2
Back
Fore
SplineSet
546 85 m 1
 546 29.6666666667 526.666666667 -14.6666666667 488 -48 c 256
 449.333333333 -81.3333333333 397.666666667 -98 333 -98 c 2
 102 -98 l 2
 84.6666666667 -98 69.6666666667 -101.666666667 57 -109 c 0
 45 -117 39 -126.333333333 39 -137 c 1
 54 -135 l 2
 65.3333333333 -135 75 -139.333333333 83 -148 c 0
 91 -156 95 -166 95 -178 c 256
 95 -190 90.3333333333 -200.333333333 81 -209 c 256
 71.6666666667 -217.666666667 60.6666666667 -222 48 -222 c 0
 34.6666666667 -222 23 -216.666666667 13 -206 c 0
 3.66666666667 -196 -1 -183.666666667 -1 -169 c 0
 -1 -141 9.33333333333 -117.333333333 30 -98 c 0
 51.3333333333 -78 76.6666666667 -68 106 -68 c 2
 337 -68 l 2
 374.333333333 -68 406 -52.6666666667 432 -22 c 0
 458 8 471 44.6666666667 471 88 c 0
 471 114.666666667 464.666666667 137.666666667 452 157 c 0
 438.666666667 175.666666667 423 185 405 185 c 2
 366 185 l 1
 366 137 l 2
 366 91 349.666666667 56.3333333333 317 33 c 256
 284.333333333 9.66666666667 235.666666667 -2 171 -2 c 0
 133 -2 100.666666667 11.6666666667 74 39 c 0
 47.3333333333 65.6666666667 34 98.3333333333 34 137 c 0
 34 160.333333333 42.6666666667 179.333333333 60 194 c 0
 77.3333333333 208 100.333333333 215 129 215 c 1
 110.333333333 232.333333333 96 256 86 286 c 256
 76 316 71 350 71 388 c 0
 71 470.666666667 97.3333333333 536.666666667 150 586 c 0
 202.666666667 636 273 661 361 661 c 256
 449 661 517.666666667 635.333333333 567 584 c 0
 615.666666667 533.333333333 640 461.666666667 640 369 c 2
 640 0 l 1
 610 0 l 1
 610 375 l 2
 610 432.333333333 584.333333333 483 533 527 c 0
 481.666666667 571.666666667 422.666666667 594 356 594 c 0
 278.666666667 594 217 574.333333333 171 535 c 0
 124.333333333 495.666666667 101 443.333333333 101 378 c 0
 101 344 105.666666667 314 115 288 c 0
 123.666666667 262 136.333333333 242.333333333 153 229 c 1
 153 400 l 1
 500 400 l 1
 500 370 l 1
 366 370 l 1
 366 215 l 1
 416 215 l 2
 452 215 482.666666667 202.333333333 508 177 c 256
 533.333333333 151.666666667 546 121 546 85 c 1
 546 85 l 1
291 215 m 1
 291 370 l 1
 183 370 l 1
 183 215 l 1
 291 215 l 1
 291 215 l 1
291 137 m 1
 291 185 l 1
 122 185 l 2
 106 185 92.3333333333 180.333333333 81 171 c 256
 69.6666666667 161.666666667 64 150.333333333 64 137 c 0
 64 104.333333333 73.6666666667 78 93 58 c 0
 113 38 139.333333333 28 172 28 c 256
 204.666666667 28 232.666666667 38.6666666667 256 60 c 256
 279.333333333 81.3333333333 291 107 291 137 c 1
 291 137 l 1
EndSplineSet
Ligature2: "'abvs' Above Base Substitutions in Tamil lookup 2 subtable" uni0BA4 uni0BBF
EndChar

StartChar: uni0BA8_uni0BBF
Encoding: 341 -1 86
Width: 720
GlyphClass: 2
Flags: HW
LayerCount: 2
Back
Fore
SplineSet
526 103 m 1
 526 39.6666666667 507.333333333 -9.66666666667 470 -45 c 256
 432.666666667 -80.3333333333 380 -98 312 -98 c 2
 132 -98 l 2
 114.666666667 -98 99.6666666667 -101.666666667 87 -109 c 0
 75 -117 69 -126.333333333 69 -137 c 1
 84 -135 l 2
 95.3333333333 -135 104.666666667 -139.333333333 112 -148 c 0
 120 -157.333333333 124 -168.333333333 124 -181 c 0
 124 -191.666666667 119.666666667 -201 111 -209 c 0
 101.666666667 -216.333333333 90.6666666667 -220 78 -220 c 0
 64.6666666667 -220 53 -215 43 -205 c 0
 33.6666666667 -195 29 -183 29 -169 c 0
 29 -141 39.3333333333 -117.333333333 60 -98 c 0
 81.3333333333 -78 106.666666667 -68 136 -68 c 2
 315 -68 l 2
 361.666666667 -68 396 -54 418 -26 c 256
 440 2 451 45.6666666667 451 105 c 0
 451 135.666666667 443 161.666666667 427 183 c 0
 411.666666667 204.333333333 392.666666667 215 370 215 c 0
 360.666666667 215 351.333333333 213 342 209 c 0
 332.666666667 204.333333333 324 198 316 190 c 1
 316 0 l 1
 241 0 l 1
 241 370 l 1
 100 370 l 1
 100 0 l 1
 70 0 l 1
 70 400 l 1
 256 400 l 1
 251.333333333 408 247.666666667 418.666666667 245 432 c 0
 242.333333333 446 241 462 241 480 c 0
 241 530 260.333333333 572.666666667 299 608 c 0
 338.333333333 643.333333333 385.333333333 661 440 661 c 0
 512 661 565 639.333333333 599 596 c 0
 633 553.333333333 650 486 650 394 c 2
 650 0 l 1
 620 0 l 1
 620 397 l 2
 620 465 605 514.666666667 575 546 c 0
 545 578 498.333333333 594 435 594 c 0
 389.666666667 594 351 581.666666667 319 557 c 256
 287 532.333333333 271 502.666666667 271 468 c 0
 271 440.666666667 277.333333333 417.666666667 290 399 c 1
 504 400 l 1
 504 370 l 1
 316 370 l 1
 316 225 l 1
 340 243 367 252 397 252 c 0
 432.333333333 252 462.666666667 237.333333333 488 208 c 0
 513.333333333 179.333333333 526 144.333333333 526 103 c 1
 526 103 l 1
EndSplineSet
Ligature2: "'abvs' Above Base Substitutions in Tamil lookup 2 subtable" uni0BA8 uni0BBF
EndChar

StartChar: uni0BA9_uni0BBF
Encoding: 342 -1 87
Width: 1049
GlyphClass: 2
Flags: HW
LayerCount: 2
Back
Fore
SplineSet
979 0 m 1
 949 0 l 1
 949 477 l 2
 949 509 937.666666667 536.666666667 915 560 c 0
 891.666666667 582.666666667 864 594 832 594 c 0
 801.333333333 594 775.333333333 583 754 561 c 256
 732.666666667 539 722 512.666666667 722 482 c 0
 722 460.666666667 728.666666667 433.333333333 742 400 c 1
 876 400 l 1
 876 367 l 1
 767 367 l 1
 767 0 l 1
 692 0 l 1
 692 367 l 1
 635 367 l 2
 606.333333333 367 581 363.666666667 559 357 c 0
 537.666666667 349.666666667 521.333333333 339.666666667 510 327 c 1
 537.333333333 303 558.666666667 274.333333333 574 241 c 256
 589.333333333 207.666666667 597 173 597 137 c 0
 597 97.6666666667 586.666666667 64.3333333333 566 37 c 0
 544.666666667 9 519.333333333 -5 490 -5 c 256
 460.666666667 -5 435.333333333 9 414 37 c 0
 393.333333333 64.3333333333 383 97.6666666667 383 137 c 0
 383 172.333333333 389 205.333333333 401 236 c 0
 413.666666667 266.666666667 431 292 453 312 c 1
 431.666666667 330 406.333333333 343.666666667 377 353 c 256
 347.666666667 362.333333333 316 367 282 367 c 0
 222.666666667 367 172 348 130 310 c 256
 88 272 67 226 67 172 c 0
 67 138 74 108.333333333 88 83 c 0
 101.333333333 57.6666666667 119 41.6666666667 141 35 c 1
 131 41.6666666667 123 53.3333333333 117 70 c 0
 111 86 108 105 108 127 c 0
 108 157.666666667 117.333333333 182.333333333 136 201 c 0
 155.333333333 219.666666667 180.666666667 229 212 229 c 0
 240.666666667 229 265.333333333 218.333333333 286 197 c 256
 306.666666667 175.666666667 317 150 317 120 c 0
 317 82 305 51.6666666667 281 29 c 256
 257 6.33333333333 225 -5 185 -5 c 0
 144.333333333 -5 109.333333333 12 80 46 c 0
 51.3333333333 80.6666666667 37 122 37 170 c 0
 37 232.666666667 62.3333333333 286.333333333 113 331 c 0
 163 375 223.666666667 397 295 397 c 0
 338.333333333 397 376.666666667 392.666666667 410 384 c 0
 444 376 470.666666667 364 490 348 c 1
 504 364.666666667 523.666666667 377.333333333 549 386 c 0
 574.333333333 395.333333333 603.333333333 400 636 400 c 2
 709 400 l 1
 697.666666667 422 692 449 692 481 c 0
 692 535.666666667 705 579.333333333 731 612 c 0
 756.333333333 644.666666667 790.333333333 661 833 661 c 0
 877 661 912.333333333 644 939 610 c 256
 965.666666667 576 979 531 979 475 c 2
 979 0 l 1
 979 0 l 1
522 137 m 1
 522 169.666666667 517.666666667 198.666666667 509 224 c 0
 499.666666667 250 487 270 471 284 c 1
 453 270 438.666666667 250 428 224 c 0
 418 198 413 169 413 137 c 0
 413 111.666666667 418.333333333 90 429 72 c 256
 439.666666667 54 452.666666667 45 468 45 c 0
 482.666666667 45 495.333333333 54 506 72 c 256
 516.666666667 90 522 111.666666667 522 137 c 1
 522 137 l 1
242 117 m 1
 242 137 236.666666667 154 226 168 c 256
 215.333333333 182 202.666666667 189 188 189 c 0
 174 189 162.333333333 182 153 168 c 0
 143 154 138 137 138 117 c 256
 138 97 143.333333333 80 154 66 c 256
 164.666666667 52 177.333333333 45 192 45 c 0
 206 45 217.666666667 52 227 66 c 0
 237 80 242 97 242 117 c 1
 242 117 l 1
EndSplineSet
Ligature2: "'abvs' Above Base Substitutions in Tamil lookup 2 subtable" uni0BA9 uni0BBF
EndChar

StartChar: uni0BAA_uni0BBF
Encoding: 343 -1 88
Width: 817
GlyphClass: 2
Flags: HW
LayerCount: 2
Back
Fore
SplineSet
747 0 m 1
 717 0 l 1
 717 434 l 2
 717 478 704 515.666666667 678 547 c 256
 652 578.333333333 620.666666667 594 584 594 c 0
 542 594 506.333333333 580.666666667 477 554 c 0
 447.666666667 528 433 496.333333333 433 459 c 0
 433 425.666666667 441.333333333 397.333333333 458 374 c 256
 474.666666667 350.666666667 495 339 519 339 c 1
 519 400 l 1
 594 400 l 1
 594 0 l 1
 70 0 l 1
 70 400 l 1
 145 400 l 1
 145 30 l 1
 519 30 l 1
 519 308 l 1
 487 308 459.666666667 323.333333333 437 354 c 0
 414.333333333 385.333333333 403 422.666666667 403 466 c 0
 403 520 420.333333333 566 455 604 c 0
 490.333333333 642 532.666666667 661 582 661 c 0
 632 661 672 640.333333333 702 599 c 0
 732 558.333333333 747 503.666666667 747 435 c 2
 747 0 l 1
 747 0 l 1
EndSplineSet
Ligature2: "'abvs' Above Base Substitutions in Tamil lookup 2 subtable" uni0BAA uni0BBF
EndChar

StartChar: uni0BAE_uni0BBF
Encoding: 344 -1 89
Width: 847
GlyphClass: 2
Flags: HW
LayerCount: 2
Back
Fore
SplineSet
331 272 m 1
 331 307.333333333 344 337.666666667 370 363 c 0
 395.333333333 388.333333333 426.333333333 401 463 401 c 1
 447.666666667 428.333333333 440 464.666666667 440 510 c 0
 440 556 455 592.666666667 485 620 c 256
 515 647.333333333 554.666666667 661 604 661 c 0
 661.333333333 661 704.333333333 641.333333333 733 602 c 0
 762.333333333 562.666666667 777 504.666666667 777 428 c 2
 777 0 l 1
 747 0 l 1
 747 402 l 2
 747 465.333333333 735.333333333 513.333333333 712 546 c 0
 688.666666667 578 654.333333333 594 609 594 c 0
 567 594 533.333333333 584.333333333 508 565 c 0
 482.666666667 545 470 518.666666667 470 486 c 256
 470 453.333333333 478.666666667 424.666666667 496 400 c 1
 538.666666667 400 572.666666667 380.333333333 598 341 c 0
 623.333333333 302.333333333 636 250.333333333 636 185 c 0
 636 129 625 84.3333333333 603 51 c 0
 581 17 551.666666667 0 515 0 c 2
 70 0 l 1
 70 400 l 1
 145 400 l 1
 145 30 l 1
 331 30 l 1
 331 272 l 1
 331 272 l 1
406 275 m 1
 406 30 l 1
 505 30 l 2
 535.666666667 30 560 44 578 72 c 0
 596.666666667 100.666666667 606 138.333333333 606 185 c 0
 606 241 595 286 573 320 c 0
 550.333333333 354 520.666666667 371 484 371 c 0
 462.666666667 371 444.333333333 361.666666667 429 343 c 256
 413.666666667 324.333333333 406 301.666666667 406 275 c 1
 406 275 l 1
EndSplineSet
Ligature2: "'abvs' Above Base Substitutions in Tamil lookup 2 subtable" uni0BAE uni0BBF
EndChar

StartChar: uni0BAF_uni0BBF
Encoding: 345 -1 90
Width: 836
GlyphClass: 2
Flags: HW
LayerCount: 2
Back
Fore
SplineSet
766 0 m 1
 736 0 l 1
 736 434 l 2
 736 478 723 515.666666667 697 547 c 0
 671.666666667 578.333333333 640.666666667 594 604 594 c 0
 562.666666667 594 527.666666667 580.666666667 499 554 c 0
 469.666666667 528 455 496.333333333 455 459 c 0
 455 426.333333333 463 398.333333333 479 375 c 0
 495.666666667 351.666666667 515.333333333 340 538 340 c 1
 538 400 l 1
 613 400 l 1
 613 0 l 1
 261 0 l 1
 261 66 l 1
 257.666666667 46 247.333333333 29.3333333333 230 16 c 256
 212.666666667 2.66666666667 192.333333333 -4 169 -4 c 0
 140.333333333 -4 115.666666667 8 95 32 c 256
 74.3333333333 56 64 85 64 119 c 2
 64 400 l 1
 139 400 l 1
 139 113 l 2
 139 89 144 68.3333333333 154 51 c 0
 164 34.3333333333 176.333333333 26 191 26 c 256
 205.666666667 26 218 34.3333333333 228 51 c 0
 238.666666667 67.6666666667 244 88 244 112 c 2
 244 400 l 1
 319 400 l 1
 319 30 l 1
 538 30 l 1
 538 308 l 1
 506.666666667 308 480 323 458 353 c 0
 436 382.333333333 425 418 425 460 c 0
 425 520.666666667 441 569.333333333 473 606 c 0
 505.666666667 642.666666667 548.666666667 661 602 661 c 0
 651.333333333 661 691 640.333333333 721 599 c 0
 751 558.333333333 766 503.666666667 766 435 c 2
 766 0 l 1
 766 0 l 1
EndSplineSet
Ligature2: "'abvs' Above Base Substitutions in Tamil lookup 2 subtable" uni0BAF uni0BBF
EndChar

StartChar: uni0BB0_uni0BBF
Encoding: 346 -1 91
Width: 599
GlyphClass: 2
Flags: HW
LayerCount: 2
Back
Fore
SplineSet
323 14 m 1
 62 -165 l 1
 46 -142 l 1
 248 0 l 1
 248 370 l 1
 100 370 l 1
 100 0 l 1
 70 0 l 1
 70 400 l 1
 258 400 l 1
 244 423.333333333 237 451.666666667 237 485 c 0
 237 533 251.333333333 574.333333333 280 609 c 0
 309.333333333 643 344.333333333 660 385 660 c 0
 428.333333333 660 463.333333333 642 490 606 c 0
 516 570.666666667 529 523.333333333 529 464 c 2
 529 0 l 1
 499 0 l 1
 499 462 l 2
 499 497.333333333 487.333333333 527.666666667 464 553 c 256
 440.666666667 578.333333333 412.666666667 591 380 591 c 0
 348.666666667 591 322 580.333333333 300 559 c 256
 278 537.666666667 267 511.666666667 267 481 c 0
 267 465 269 450 273 436 c 0
 277 422.666666667 283 410.666666667 291 400 c 1
 445 400 l 1
 445 370 l 1
 323 370 l 1
 323 14 l 1
 323 14 l 1
EndSplineSet
Ligature2: "'abvs' Above Base Substitutions in Tamil lookup 2 subtable" uni0BB0 uni0BBF
EndChar

StartChar: uni0BB1_uni0BBF
Encoding: 347 -1 92
Width: 789
GlyphClass: 2
Flags: HW
LayerCount: 2
Back
Fore
SplineSet
719 0 m 1
 689 0 l 1
 689 477 l 2
 689 509 675 536.666666667 647 560 c 0
 618.333333333 582.666666667 584 594 544 594 c 0
 507.333333333 594 476 583 450 561 c 256
 424 539 411 512.666666667 411 482 c 0
 411 457.333333333 418.333333333 429.333333333 433 398 c 1
 478.333333333 391.333333333 516 366.666666667 546 324 c 256
 576 281.333333333 591 230.666666667 591 172 c 0
 591 97.3333333333 568.666666667 33.6666666667 524 -19 c 256
 479.333333333 -71.6666666667 425.333333333 -98 362 -98 c 2
 153 -98 l 2
 136.333333333 -98 122 -101.666666667 110 -109 c 0
 97.3333333333 -116.333333333 89.6666666667 -125.666666667 87 -137 c 1
 105 -135 l 2
 116.333333333 -135 125.666666667 -139.333333333 133 -148 c 0
 141 -157.333333333 145 -168.333333333 145 -181 c 0
 145 -191.666666667 140.666666667 -201 132 -209 c 0
 122.666666667 -216.333333333 111.666666667 -220 99 -220 c 0
 85.6666666667 -220 74 -215 64 -205 c 0
 54.6666666667 -195 50 -183 50 -169 c 0
 50 -141 60 -117.333333333 80 -98 c 0
 100 -78 124 -68 152 -68 c 2
 359 -68 l 2
 402.333333333 -68 439.333333333 -44.6666666667 470 2 c 0
 500.666666667 49.3333333333 516 106 516 172 c 0
 516 225.333333333 505.333333333 270.666666667 484 308 c 256
 462.666666667 345.333333333 436.666666667 364 406 364 c 0
 382 364 361.666666667 354.333333333 345 335 c 0
 328.333333333 316.333333333 320 293.333333333 320 266 c 2
 320 0 l 1
 245 0 l 1
 245 310 l 2
 245 328 237.666666667 343 223 355 c 0
 209 367.666666667 191.666666667 374 171 374 c 256
 150.333333333 374 132.333333333 367 117 353 c 0
 102.333333333 339.666666667 95 323.333333333 95 304 c 2
 95 0 l 1
 65 0 l 1
 65 302 l 2
 65 330 76 354 98 374 c 256
 120 394 146.333333333 404 177 404 c 0
 206.333333333 404 232.666666667 397.333333333 256 384 c 0
 278.666666667 370.666666667 294 353 302 331 c 1
 309.333333333 349.666666667 322 365 340 377 c 256
 358 389 378.333333333 396 401 398 c 1
 387.666666667 431.333333333 381 459.333333333 381 482 c 0
 381 536 396.333333333 579.333333333 427 612 c 256
 457.666666667 644.666666667 498.333333333 661 549 661 c 0
 600.333333333 661 641.666666667 644.333333333 673 611 c 0
 703.666666667 578.333333333 719 534.333333333 719 479 c 2
 719 0 l 1
 719 0 l 1
EndSplineSet
Ligature2: "'abvs' Above Base Substitutions in Tamil lookup 2 subtable" uni0BB1 uni0BBF
EndChar

StartChar: uni0BB2_uni0BBF
Encoding: 348 -1 93
Width: 871
GlyphClass: 2
Flags: HW
LayerCount: 2
Back
Fore
SplineSet
801 0 m 1
 771 0 l 1
 771 444 l 2
 771 485.333333333 757 520.666666667 729 550 c 256
 701 579.333333333 667.333333333 594 628 594 c 0
 587.333333333 594 552.333333333 581.666666667 523 557 c 0
 494.333333333 532.333333333 480 502.333333333 480 467 c 256
 480 431.666666667 490 401.333333333 510 376 c 256
 530 350.666666667 554.333333333 338 583 338 c 1
 590 340 l 1
 571 360 l 2
 566.333333333 364.666666667 562.666666667 370 560 376 c 0
 557.333333333 381.333333333 556 386.666666667 556 392 c 0
 556 400 559.333333333 407 566 413 c 0
 572 419 579.666666667 422 589 422 c 0
 615.666666667 422 638.666666667 400.666666667 658 358 c 0
 676.666666667 315.333333333 686 264 686 204 c 0
 686 137.333333333 672.333333333 86.6666666667 645 52 c 0
 617 18 576 1 522 1 c 0
 478.666666667 1 444 11.3333333333 418 32 c 256
 392 52.6666666667 379 80 379 114 c 2
 379 247 l 2
 379 283.666666667 368 313.333333333 346 336 c 0
 324 358 295 369 259 369 c 0
 206.333333333 369 161.333333333 351 124 315 c 256
 86.6666666667 279 68 235.666666667 68 185 c 0
 68 154.333333333 73.6666666667 126.666666667 85 102 c 0
 97 77.3333333333 113 58 133 44 c 1
 125 52 118.666666667 63 114 77 c 0
 110 90.3333333333 108 105.666666667 108 123 c 0
 108 151.666666667 117.333333333 176.333333333 136 197 c 0
 154 217.666666667 176 228 202 228 c 0
 236 228 263 218.333333333 283 199 c 0
 303.666666667 179 314 152.666666667 314 120 c 0
 314 84 302.666666667 55.3333333333 280 34 c 0
 258 12 228.333333333 1 191 1 c 0
 149 1 113 19 83 55 c 256
 53 91 38 134.333333333 38 185 c 0
 38 244.333333333 60 295 104 337 c 0
 147.333333333 379 200 400 262 400 c 0
 320 400 366.666666667 386 402 358 c 0
 436.666666667 330 454 292.666666667 454 246 c 2
 454 117 l 2
 454 93 460.333333333 72.6666666667 473 56 c 256
 485.666666667 39.3333333333 501 31 519 31 c 0
 560.333333333 31 593.666666667 46.6666666667 619 78 c 0
 643.666666667 110 656 152 656 204 c 0
 656 220 652.333333333 237 645 255 c 0
 637.666666667 273.666666667 627 292.666666667 613 312 c 1
 605.666666667 309.333333333 598 308 590 308 c 0
 551.333333333 308 518.333333333 324 491 356 c 256
 463.666666667 388 450 426.666666667 450 472 c 0
 450 529.333333333 466.333333333 575 499 609 c 0
 531 643.666666667 574 661 628 661 c 0
 676 661 716.666666667 640 750 598 c 0
 784 555.333333333 801 504.333333333 801 445 c 2
 801 0 l 1
 801 0 l 1
239 119 m 1
 239 141 234.333333333 159.666666667 225 175 c 256
 215.666666667 190.333333333 204.333333333 198 191 198 c 0
 176.333333333 198 164 190.666666667 154 176 c 0
 143.333333333 162 138 144.666666667 138 124 c 0
 138 98 143 76 153 58 c 0
 162.333333333 40 174 31 188 31 c 256
 202 31 214 39.6666666667 224 57 c 256
 234 74.3333333333 239 95 239 119 c 1
 239 119 l 1
EndSplineSet
Ligature2: "'abvs' Above Base Substitutions in Tamil lookup 2 subtable" uni0BB2 uni0BBF
EndChar

StartChar: uni0BB3_uni0BBF
Encoding: 349 -1 94
Width: 983
GlyphClass: 2
Flags: HW
LayerCount: 2
Back
Fore
SplineSet
913 0 m 1
 883 0 l 1
 883 482 l 2
 883 512.666666667 871.333333333 539 848 561 c 256
 824.666666667 583 796.666666667 594 764 594 c 0
 734.666666667 594 709.666666667 583 689 561 c 0
 668.333333333 539.666666667 658 513.666666667 658 483 c 0
 658 453.666666667 664.333333333 426 677 400 c 1
 794 400 l 1
 794 367 l 1
 705 367 l 1
 705 0 l 1
 630 0 l 1
 630 367 l 1
 484 367 l 1
 484 0 l 1
 409 0 l 1
 409 235 l 1
 395.666666667 274.333333333 375.333333333 306.333333333 348 331 c 0
 320 355 290.666666667 367 260 367 c 0
 206.666666667 367 161.333333333 347.666666667 124 309 c 0
 86 271 67 224.666666667 67 170 c 0
 67 139.333333333 73.6666666667 112.333333333 87 89 c 0
 101 65 119 49 141 41 c 1
 134.333333333 48.3333333333 129 59.3333333333 125 74 c 0
 121.666666667 89.3333333333 120 107 120 127 c 0
 120 159.666666667 128.333333333 186 145 206 c 0
 162.333333333 225.333333333 185 235 213 235 c 0
 249 235 277.666666667 224.666666667 299 204 c 256
 320.333333333 183.333333333 331 156 331 122 c 0
 331 84.6666666667 319 55 295 33 c 0
 271 10.3333333333 239 -1 199 -1 c 0
 154.333333333 -1 116 15.3333333333 84 48 c 0
 52.6666666667 81.3333333333 37 121.333333333 37 168 c 0
 37 231.333333333 58.6666666667 285.333333333 102 330 c 0
 146 374.666666667 198.666666667 397 260 397 c 0
 297.333333333 397 331 391 361 379 c 256
 391 367 414.333333333 350.333333333 431 329 c 1
 431 400 l 1
 640 400 l 1
 632.666666667 418 627.333333333 434 624 448 c 256
 620.666666667 462 619.666666667 473.333333333 621 482 c 0
 621 531.333333333 635.333333333 573.666666667 664 609 c 0
 692.666666667 643.666666667 727 661 767 661 c 256
 807 661 841.333333333 643.333333333 870 608 c 0
 898.666666667 572 913 529 913 479 c 2
 913 0 l 1
 913 0 l 1
256 119 m 1
 256 138.333333333 250.666666667 155 240 169 c 0
 230 183 217.666666667 190 203 190 c 256
 188.333333333 190 176 183 166 169 c 0
 155.333333333 155 150 138 150 118 c 0
 150 97.3333333333 155 80 165 66 c 0
 175 51.3333333333 187.333333333 44 202 44 c 256
 216.666666667 44 229.333333333 51.3333333333 240 66 c 256
 250.666666667 80.6666666667 256 98.3333333333 256 119 c 1
 256 119 l 1
EndSplineSet
Ligature2: "'abvs' Above Base Substitutions in Tamil lookup 2 subtable" uni0BB3 uni0BBF
EndChar

StartChar: uni0BB4_uni0BBF
Encoding: 350 -1 95
Width: 841
GlyphClass: 2
Flags: HW
LayerCount: 2
Back
Fore
SplineSet
771 0 m 1
 741 0 l 1
 741 462 l 2
 741 498.666666667 727.666666667 529.666666667 701 555 c 0
 674.333333333 581 642 594 604 594 c 0
 568 594 537.333333333 583 512 561 c 256
 486.666666667 539 474 512.666666667 474 482 c 0
 474 452.666666667 479.333333333 425.333333333 490 400 c 1
 531.333333333 395.333333333 566 372.666666667 594 332 c 0
 622 290.666666667 636 241.666666667 636 185 c 0
 636 129 625 84.3333333333 603 51 c 0
 580.333333333 17 550.666666667 0 514 0 c 2
 405 0 l 1
 405 -19.3333333333 409.333333333 -36 418 -50 c 256
 426.666666667 -64 437 -71 449 -71 c 2
 533 -71 l 1
 533 -101 l 1
 425 -101 l 2
 405.666666667 -101 389.333333333 -109.333333333 376 -126 c 0
 362.666666667 -142 356 -161.666666667 356 -185 c 0
 356 -211 339.666666667 -233.333333333 307 -252 c 0
 275 -270.666666667 236 -280 190 -280 c 0
 147.333333333 -280 113.333333333 -270.333333333 88 -251 c 256
 62.6666666667 -231.666666667 50 -205.666666667 50 -173 c 0
 50 -145 61.6666666667 -121 85 -101 c 256
 108.333333333 -81 136.333333333 -71 169 -71 c 0
 182.333333333 -71 194 -76 204 -86 c 0
 213.333333333 -95.3333333333 218 -107 218 -121 c 0
 218 -132.333333333 214.333333333 -142.333333333 207 -151 c 0
 199.666666667 -159 190.666666667 -163 180 -163 c 0
 170 -163 161.333333333 -159.333333333 154 -152 c 256
 146.666666667 -144.666666667 143 -136 143 -126 c 0
 142.333333333 -122 142.666666667 -118 144 -114 c 0
 146 -110 148.666666667 -107 152 -105 c 1
 132 -105 115 -111.666666667 101 -125 c 256
 87 -138.333333333 80 -154.666666667 80 -174 c 0
 80 -194.666666667 90.6666666667 -212.666666667 112 -228 c 0
 133.333333333 -242.666666667 159 -250 189 -250 c 0
 214.333333333 -250 236 -241.333333333 254 -224 c 0
 272 -206 281 -184.666666667 281 -160 c 256
 281 -135.333333333 292 -114.333333333 314 -97 c 0
 334.666666667 -79.6666666667 360 -71 390 -71 c 1
 373.333333333 -68.3333333333 359.333333333 -60.6666666667 348 -48 c 0
 336.666666667 -34.6666666667 331 -18.6666666667 331 0 c 1
 70 0 l 1
 70 400 l 1
 145 400 l 1
 145 30 l 1
 331 30 l 1
 331 267 l 2
 331 300.333333333 343 329.666666667 367 355 c 256
 391 380.333333333 421 395.333333333 457 400 c 1
 448.333333333 425.333333333 444 452 444 480 c 0
 444 530 459.666666667 572.666666667 491 608 c 0
 523 643.333333333 561.333333333 661 606 661 c 0
 651.333333333 661 690.333333333 641.666666667 723 603 c 0
 755 565 771 518.666666667 771 464 c 2
 771 0 l 1
406 30 m 1
 515 30 l 2
 540.333333333 30 561.666666667 46 579 78 c 0
 597 110.666666667 606 149.666666667 606 195 c 0
 606 242.333333333 594 282.666666667 570 316 c 0
 546.666666667 349.333333333 518 366 484 366 c 0
 462.666666667 366 444.333333333 356.666666667 429 338 c 256
 413.666666667 319.333333333 406 297 406 271 c 2
 406 30 l 1
EndSplineSet
Ligature2: "'abvs' Above Base Substitutions in Tamil lookup 2 subtable" uni0BB4 uni0BBF
EndChar

StartChar: uni0BB5_uni0BBF
Encoding: 351 -1 96
Width: 910
GlyphClass: 2
Flags: HW
LayerCount: 2
Back
Fore
SplineSet
840 0 m 1
 810 0 l 1
 810 452 l 2
 810 491.333333333 797 524.666666667 771 552 c 0
 745 580 713.666666667 594 677 594 c 0
 635.666666667 594 600.666666667 580.666666667 572 554 c 0
 542.666666667 527.333333333 528 495.333333333 528 458 c 0
 528 426 536.333333333 398.666666667 553 376 c 256
 569.666666667 353.333333333 589.666666667 342 613 342 c 1
 613 400 l 1
 688 400 l 1
 688 0 l 1
 348 0 l 1
 348 27 l 1
 372.666666667 39.6666666667 392 61 406 91 c 0
 420.666666667 121.666666667 428 156.666666667 428 196 c 0
 428 242.666666667 410.333333333 282.666666667 375 316 c 0
 340.333333333 349.333333333 298 366 248 366 c 0
 198.666666667 366 156.333333333 348.333333333 121 313 c 0
 86.3333333333 277.666666667 69 235 69 185 c 0
 69 154.333333333 74.6666666667 126.666666667 86 102 c 0
 98 77.3333333333 114 58 134 44 c 1
 126 54 119.666666667 65.6666666667 115 79 c 0
 111 93 109 107.666666667 109 123 c 0
 109 155 117.666666667 180.333333333 135 199 c 0
 153 218.333333333 176.666666667 228 206 228 c 0
 238.666666667 228 265 218.333333333 285 199 c 256
 305 179.666666667 315 154 315 122 c 0
 315 85.3333333333 304.333333333 56 283 34 c 256
 261.666666667 12 233 1 197 1 c 0
 149 1 110.666666667 17.6666666667 82 51 c 0
 53.3333333333 85 39 129.666666667 39 185 c 0
 39 243 61 292.666666667 105 334 c 0
 148.333333333 375.333333333 201 396 263 396 c 0
 329 396 385.666666667 375.333333333 433 334 c 0
 479.666666667 292.666666667 503 243 503 185 c 0
 503 150.333333333 497.666666667 119.333333333 487 92 c 256
 476.333333333 64.6666666667 461.666666667 44 443 30 c 1
 613 30 l 1
 613 309 l 1
 581 310.333333333 553.666666667 326 531 356 c 0
 509 386 498 422.333333333 498 465 c 0
 498 519 515.333333333 565.333333333 550 604 c 0
 584.666666667 642 626.666666667 661 676 661 c 0
 721.333333333 661 760 640 792 598 c 0
 824 555.333333333 840 504.333333333 840 445 c 2
 840 0 l 1
 840 0 l 1
240 119 m 1
 240 141 235.333333333 159.666666667 226 175 c 256
 216.666666667 190.333333333 205.333333333 198 192 198 c 0
 177.333333333 198 165 190.333333333 155 175 c 0
 144.333333333 159.666666667 139 141.333333333 139 120 c 0
 139 95.3333333333 144 74.3333333333 154 57 c 0
 163.333333333 39.6666666667 175 31 189 31 c 256
 203 31 215 39.6666666667 225 57 c 256
 235 74.3333333333 240 95 240 119 c 1
 240 119 l 1
EndSplineSet
Ligature2: "'abvs' Above Base Substitutions in Tamil lookup 2 subtable" uni0BB5 uni0BBF
EndChar

StartChar: uni0BB7_uni0BBF
Encoding: 352 -1 97
Width: 1144
GlyphClass: 2
Flags: HW
LayerCount: 2
Back
Fore
SplineSet
1074 0 m 1
 1044 0 l 1
 1044 462 l 2
 1044 498.666666667 1024.66666667 529.666666667 986 555 c 0
 946.666666667 581 899.666666667 594 845 594 c 0
 797 594 755.666666667 582.666666667 721 560 c 0
 687 537.333333333 670 510 670 478 c 0
 670 458 677.666666667 432.333333333 693 401 c 1
 714.333333333 395 732 383 746 365 c 0
 759.333333333 347 766 326.666666667 766 304 c 2
 766 190 l 1
 800 190 832 200.333333333 862 221 c 0
 891.333333333 241.666666667 914.666666667 269.333333333 932 304 c 1
 946 304 l 1
 946 0 l 1
 766 0 l 1
 766 -242 l 1
 691 -242 l 1
 691 0 l 1
 351 0 l 1
 351 27 l 1
 375.666666667 41 395.333333333 63.3333333333 410 94 c 0
 424 124 431 158 431 196 c 0
 431 241.333333333 414.666666667 279.666666667 382 311 c 0
 349.333333333 343 310 359 264 359 c 0
 209.333333333 359 163 342 125 308 c 0
 86.3333333333 274 67 233 67 185 c 0
 67 155.666666667 73.3333333333 128.666666667 86 104 c 0
 98 78.6666666667 115 58.6666666667 137 44 c 1
 129 54 122.666666667 65.3333333333 118 78 c 0
 114 90.6666666667 112 104 112 118 c 0
 112 154 121 183 139 205 c 0
 157.666666667 227 182 238 212 238 c 0
 244 238 269.666666667 227.333333333 289 206 c 0
 308.333333333 185.333333333 318 157.333333333 318 122 c 0
 318 84 306.666666667 53.3333333333 284 30 c 0
 262 7.33333333333 232.333333333 -4 195 -4 c 0
 151.666666667 -4 114.333333333 14.3333333333 83 51 c 0
 52.3333333333 88.3333333333 37 133 37 185 c 0
 37 241 59.3333333333 289 104 329 c 256
 148.666666667 369 202.666666667 389 266 389 c 0
 332 389 388.666666667 369 436 329 c 0
 482.666666667 289 506 241 506 185 c 0
 506 151 500.333333333 120.333333333 489 93 c 0
 478.333333333 65.6666666667 463 44.6666666667 443 30 c 1
 691 30 l 1
 691 164 l 1
 652.333333333 164 621.666666667 174.666666667 599 196 c 0
 575.666666667 217.333333333 564 245.666666667 564 281 c 0
 564 311 573 337 591 359 c 0
 608.333333333 381 630.333333333 394 657 398 c 1
 645.666666667 419.333333333 640 446.666666667 640 480 c 0
 640 530 660 572.666666667 700 608 c 256
 740 643.333333333 788.333333333 661 845 661 c 0
 908.333333333 661 962.333333333 641.666666667 1007 603 c 0
 1051.66666667 565 1074 518.666666667 1074 464 c 2
 1074 0 l 1
 1074 0 l 1
691 185 m 1
 691 302 l 2
 691 318 687 331.333333333 679 342 c 0
 671 353.333333333 661.333333333 359 650 359 c 0
 634.666666667 359 621.333333333 351.333333333 610 336 c 0
 599.333333333 320.666666667 594 302.333333333 594 281 c 0
 594 254.333333333 603.333333333 231.666666667 622 213 c 0
 641.333333333 194.333333333 664.333333333 185 691 185 c 1
 691 185 l 1
243 119 m 1
 243 138.333333333 237.666666667 154.666666667 227 168 c 0
 217 181.333333333 204.666666667 188 190 188 c 0
 176.666666667 188 165.333333333 181.333333333 156 168 c 256
 146.666666667 154.666666667 142 138.666666667 142 120 c 0
 142 100.666666667 147 84.3333333333 157 71 c 0
 166.333333333 57.6666666667 178 51 192 51 c 256
 206 51 218 57.6666666667 228 71 c 256
 238 84.3333333333 243 100.333333333 243 119 c 1
 243 119 l 1
871 30 m 1
 871 185 l 1
 861.666666667 178.333333333 848 173 830 169 c 0
 812 165.666666667 790.666666667 164 766 164 c 1
 766 30 l 1
 871 30 l 1
 871 30 l 1
EndSplineSet
Ligature2: "'abvs' Above Base Substitutions in Tamil lookup 2 subtable" uni0BB7 uni0BBF
EndChar

StartChar: uni0BB8_uni0BBF
Encoding: 353 -1 98
Width: 1195
GlyphClass: 2
Flags: HW
LayerCount: 2
Back
Fore
SplineSet
1125 0 m 1
 1095 0 l 1
 1095 459 l 2
 1095 496.333333333 1080.33333333 528 1051 554 c 0
 1021.66666667 580.666666667 986 594 944 594 c 256
 902 594 866.333333333 581.666666667 837 557 c 0
 807 532.333333333 792 502.333333333 792 467 c 0
 792 433 801.666666667 403.666666667 821 379 c 0
 841 355 864.666666667 343 892 343 c 1
 883 353 l 2
 867 370.333333333 859 381.666666667 859 387 c 0
 859 396.333333333 862.333333333 404.666666667 869 412 c 0
 875 418.666666667 882.666666667 422 892 422 c 0
 918.666666667 422 941.666666667 400.666666667 961 358 c 0
 979.666666667 315.333333333 989 264 989 204 c 0
 989 140.666666667 974 89.6666666667 944 51 c 0
 914 13 874.333333333 -6 825 -6 c 0
 783 -6 749.666666667 5 725 27 c 0
 699.666666667 49 687 78 687 114 c 2
 687 257 l 2
 687 287 677.333333333 312.333333333 658 333 c 0
 639.333333333 354.333333333 616.333333333 365 589 365 c 0
 565 365 544.333333333 355.666666667 527 337 c 256
 509.666666667 318.333333333 501 295.666666667 501 269 c 2
 501 0 l 1
 426 0 l 1
 426 235 l 2
 426 272.333333333 410.333333333 304.333333333 379 331 c 256
 347.666666667 357.666666667 309.666666667 371 265 371 c 0
 210.333333333 371 164 351.333333333 126 312 c 0
 87.3333333333 272.666666667 68 225.333333333 68 170 c 0
 68 139.333333333 74.6666666667 112.333333333 88 89 c 0
 102 65 120 49 142 41 c 1
 133.333333333 51 127 63 123 77 c 0
 118.333333333 91.6666666667 116 107.333333333 116 124 c 0
 116 157.333333333 125.666666667 184.333333333 145 205 c 0
 165 225 191.333333333 235 224 235 c 256
 256.666666667 235 283 224.666666667 303 204 c 0
 322.333333333 183.333333333 332 156 332 122 c 0
 332 86.6666666667 319 56.3333333333 293 31 c 0
 267.666666667 6.33333333333 236.666666667 -6 200 -6 c 0
 155.333333333 -6 117 11 85 45 c 0
 53.6666666667 79 38 120 38 168 c 0
 38 232.666666667 60.3333333333 287.666666667 105 333 c 256
 149.666666667 378.333333333 203.333333333 401 266 401 c 0
 315.333333333 401 359 392.333333333 397 375 c 256
 435 357.666666667 461 334.333333333 475 305 c 1
 481.666666667 331.666666667 496.666666667 353.333333333 520 370 c 0
 542.666666667 386.666666667 569 395 599 395 c 0
 644.333333333 395 682.666666667 381.333333333 714 354 c 0
 746 327.333333333 762 294.666666667 762 256 c 2
 762 117 l 2
 762 91 768.666666667 69 782 51 c 256
 795.333333333 33 811.333333333 24 830 24 c 0
 869.333333333 24 900.666666667 40.3333333333 924 73 c 256
 947.333333333 105.666666667 959 149.333333333 959 204 c 0
 959 223.333333333 956 241.666666667 950 259 c 0
 944 275.666666667 935.333333333 290.333333333 924 303 c 2
 917 310 l 1
 907 308 l 1
 867 308 832.666666667 323.666666667 804 355 c 0
 776 385.666666667 762 423 762 467 c 0
 762 520.333333333 779.666666667 566 815 604 c 0
 851 642 894 661 944 661 c 256
 994 661 1036.66666667 641 1072 601 c 256
 1107.33333333 561 1125 512.666666667 1125 456 c 2
 1125 0 l 1
257 119 m 0
 257 138.333333333 251.666666667 155 241 169 c 0
 229.666666667 183 216.333333333 190 201 190 c 256
 185.666666667 190 172.666666667 183.333333333 162 170 c 256
 151.333333333 156.666666667 146 140.666666667 146 122 c 0
 146 100.666666667 151.333333333 82.3333333333 162 67 c 256
 172.666666667 51.6666666667 185.666666667 44 201 44 c 256
 216.333333333 44 229.666666667 51.3333333333 241 66 c 0
 251.666666667 80.6666666667 257 98.3333333333 257 119 c 0
EndSplineSet
Ligature2: "'abvs' Above Base Substitutions in Tamil lookup 2 subtable" uni0BB8 uni0BBF
EndChar

StartChar: uni0BB9_uni0BBF
Encoding: 354 -1 99
Width: 1308
GlyphClass: 2
Flags: HW
LayerCount: 2
Back
Fore
SplineSet
1238 0 m 1
 1208 0 l 1
 1208 467 l 2
 1208 502.333333333 1194 532.333333333 1166 557 c 0
 1137.33333333 581.666666667 1103 594 1063 594 c 0
 1026.33333333 594 995.333333333 583 970 561 c 0
 944 539 931 512.666666667 931 482 c 0
 931 465.333333333 933.333333333 449.666666667 938 435 c 0
 942 421 948.333333333 408.666666667 957 398 c 1
 1001.66666667 394.666666667 1039 371.333333333 1069 328 c 0
 1099.66666667 284.666666667 1115 232.666666667 1115 172 c 0
 1115 98.6666666667 1091.66666667 36 1045 -16 c 0
 999 -68 943 -94 877 -94 c 2
 141 -94 l 2
 121 -94 103.666666667 -98.3333333333 89 -107 c 0
 75 -115.666666667 68 -126.333333333 68 -139 c 1
 93 -135 l 2
 104.333333333 -135 113.666666667 -139.333333333 121 -148 c 0
 129 -157.333333333 133 -168.333333333 133 -181 c 0
 133 -191.666666667 128.666666667 -201 120 -209 c 0
 110.666666667 -216.333333333 99.6666666667 -220 87 -220 c 0
 73.6666666667 -220 62 -214.666666667 52 -204 c 0
 42.6666666667 -192.666666667 38 -179.333333333 38 -164 c 0
 38 -136.666666667 48 -113 68 -93 c 0
 88 -73.6666666667 112 -64 140 -64 c 2
 872 -64 l 2
 918.666666667 -64 958.333333333 -41 991 5 c 0
 1023.66666667 50.3333333333 1040 105.333333333 1040 170 c 0
 1040 228.666666667 1030 275.666666667 1010 311 c 256
 990 346.333333333 963.333333333 364 930 364 c 0
 908.666666667 364 890.333333333 354.666666667 875 336 c 256
 859.666666667 317.333333333 852 295 852 269 c 2
 852 0 l 1
 777 0 l 1
 777 295 l 2
 777 314.333333333 771.666666667 330.666666667 761 344 c 256
 750.333333333 357.333333333 737.666666667 364 723 364 c 0
 707.666666667 364 694.333333333 357 683 343 c 0
 672.333333333 329.666666667 667 313.333333333 667 294 c 2
 667 0 l 1
 348 0 l 1
 348 27 l 1
 372.666666667 41 392.333333333 63.3333333333 407 94 c 0
 421 124 428 158 428 196 c 0
 428 244 411.666666667 285.333333333 379 320 c 0
 346.333333333 354 307 371 261 371 c 0
 207.666666667 371 162.333333333 353 125 317 c 0
 87 280.333333333 68 236.333333333 68 185 c 0
 68 155 74 127.333333333 86 102 c 0
 97.3333333333 77.3333333333 113.333333333 58 134 44 c 1
 126 52 119.666666667 63 115 77 c 0
 111 90.3333333333 109 105.666666667 109 123 c 0
 109 155 118 180.333333333 136 199 c 0
 154.666666667 218.333333333 179 228 209 228 c 0
 241 228 266.666666667 218.333333333 286 199 c 256
 305.333333333 179.666666667 315 154 315 122 c 0
 315 84 303.666666667 53.3333333333 281 30 c 0
 259 7.33333333333 229.333333333 -4 192 -4 c 0
 149.333333333 -4 113 14.3333333333 83 51 c 0
 53 88.3333333333 38 133 38 185 c 0
 38 244.333333333 60 295.333333333 104 338 c 0
 148 380 201 401 263 401 c 0
 329 401 385.666666667 380 433 338 c 0
 479.666666667 295.333333333 503 244.333333333 503 185 c 0
 503 151 497.333333333 120.333333333 486 93 c 0
 475.333333333 65.6666666667 460 44.6666666667 440 30 c 1
 637 30 l 1
 637 292 l 2
 637 320 646 344 664 364 c 256
 682 384 703.666666667 394 729 394 c 0
 753.666666667 394 775.666666667 388.333333333 795 377 c 0
 814.333333333 365 827.333333333 349.666666667 834 331 c 1
 840 349 851.333333333 364 868 376 c 0
 884 388.666666667 903 396 925 398 c 1
 909 426.666666667 901 454.666666667 901 482 c 0
 901 531.333333333 917.333333333 573.666666667 950 609 c 0
 982.666666667 643.666666667 1022 661 1068 661 c 0
 1114.66666667 661 1154.66666667 642.333333333 1188 605 c 256
 1221.33333333 567.666666667 1238 522.333333333 1238 469 c 2
 1238 0 l 1
 1238 0 l 1
240 114 m 1
 240 133.333333333 235.333333333 149.666666667 226 163 c 256
 216.666666667 176.333333333 205.333333333 183 192 183 c 0
 177.333333333 183 165 176.333333333 155 163 c 0
 144.333333333 149.666666667 139 133.333333333 139 114 c 0
 139 95.3333333333 144 79.3333333333 154 66 c 0
 163.333333333 52.6666666667 175 46 189 46 c 256
 203 46 215 52.6666666667 225 66 c 256
 235 79.3333333333 240 95.3333333333 240 114 c 1
 240 114 l 1
EndSplineSet
Ligature2: "'abvs' Above Base Substitutions in Tamil lookup 2 subtable" uni0BB9 uni0BBF
EndChar

StartChar: uni0B95_uni0BC0
Encoding: 355 -1 100
Width: 573
GlyphClass: 2
Flags: HW
LayerCount: 2
Back
Fore
SplineSet
453 535 m 1
 453 554.333333333 449 570.666666667 441 584 c 0
 432.333333333 597.333333333 422.333333333 604 411 604 c 0
 398.333333333 604 387.666666667 597.333333333 379 584 c 256
 370.333333333 570.666666667 366 554.333333333 366 535 c 0
 366 517.666666667 370.333333333 502.666666667 379 490 c 0
 387.666666667 478 398 472 410 472 c 256
 422 472 432 478 440 490 c 0
 448.666666667 502.666666667 453 517.666666667 453 535 c 1
 453 535 l 1
543 114 m 1
 543 73.3333333333 531.666666667 44 509 26 c 0
 486.333333333 8.66666666667 448.666666667 0 396 0 c 1
 396 30 l 1
 422.666666667 30 441.333333333 36 452 48 c 0
 462.666666667 60.6666666667 468 82.3333333333 468 113 c 0
 468 137 464.666666667 155 458 167 c 0
 452 179 442.666666667 185 430 185 c 2
 369 185 l 1
 369 131 l 2
 369 87 352.666666667 54 320 32 c 0
 287.333333333 9.33333333333 238.666666667 -2 174 -2 c 0
 136 -2 103.666666667 11.3333333333 77 38 c 256
 50.3333333333 64.6666666667 37 96.6666666667 37 134 c 0
 37 158.666666667 45.6666666667 178.333333333 63 193 c 256
 80.3333333333 207.666666667 103.333333333 215 132 215 c 1
 111.333333333 235 95.3333333333 259.666666667 84 289 c 0
 72.6666666667 317.666666667 67 348.666666667 67 382 c 0
 67 460 94.3333333333 524.333333333 149 575 c 0
 203.666666667 626.333333333 273 652 357 652 c 0
 411 652 453 641.333333333 483 620 c 256
 513 598.666666667 528 568.666666667 528 530 c 0
 528 500.666666667 518.333333333 478.666666667 499 464 c 0
 480.333333333 449.333333333 452.333333333 442 415 442 c 0
 393 442 374.333333333 451 359 469 c 256
 343.666666667 487 336 509 336 535 c 0
 336 549 338.333333333 562 343 574 c 256
 347.666666667 586 354 596 362 604 c 1
 351 604 l 2
 271 604 208.666666667 584.333333333 164 545 c 0
 119.333333333 505 97 449.333333333 97 378 c 0
 97 344 102.333333333 313.666666667 113 287 c 0
 123 261 137.333333333 241.666666667 156 229 c 1
 156 400 l 1
 503 400 l 1
 503 370 l 1
 369 370 l 1
 369 215 l 1
 463 215 l 2
 487 215 506.333333333 205.666666667 521 187 c 0
 535.666666667 169 543 144.666666667 543 114 c 1
 543 114 l 1
294 215 m 1
 294 370 l 1
 186 370 l 1
 186 215 l 1
 294 215 l 1
 294 215 l 1
294 138 m 1
 294 185 l 1
 125 185 l 2
 107.666666667 185 93.6666666667 180.333333333 83 171 c 0
 72.3333333333 162.333333333 67 150.333333333 67 135 c 0
 67 102.333333333 76.6666666667 76.3333333333 96 57 c 0
 116 37.6666666667 142.333333333 28 175 28 c 256
 207.666666667 28 235.666666667 38.6666666667 259 60 c 256
 282.333333333 81.3333333333 294 107.333333333 294 138 c 1
 294 138 l 1
EndSplineSet
Ligature2: "'abvs' Above Base Substitutions in Tamil lookup 2 subtable" uni0B95 uni0BC0
EndChar

StartChar: uni0B99_uni0BC0
Encoding: 356 -1 101
Width: 769
GlyphClass: 2
Flags: HW
LayerCount: 2
Back
Fore
SplineSet
796 535 m 1
 796 554.333333333 791.666666667 570.666666667 783 584 c 256
 774.333333333 597.333333333 764 604 752 604 c 0
 739.333333333 604 728.333333333 597.333333333 719 584 c 0
 710.333333333 570.666666667 706 554.333333333 706 535 c 0
 706 517.666666667 710.333333333 503 719 491 c 256
 727.666666667 479 738.333333333 473 751 473 c 256
 763.666666667 473 774.333333333 479 783 491 c 256
 791.666666667 503 796 517.666666667 796 535 c 1
 796 535 l 1
699 0 m 1
 246 0 l 1
 246 30 l 1
 397 30 l 1
 417 41.3333333333 432.666666667 56.6666666667 444 76 c 0
 455.333333333 94.6666666667 461 115 461 137 c 0
 461 165.666666667 453 190 437 210 c 256
 421 230 401.666666667 240 379 240 c 0
 368.333333333 240 358 237.666666667 348 233 c 0
 338 227.666666667 329 220.666666667 321 212 c 1
 321 110 l 1
 246 110 l 1
 246 370 l 1
 100 370 l 1
 100 0 l 1
 70 0 l 1
 70 400 l 1
 446 400 l 1
 446 370 l 1
 321 370 l 1
 321 247 l 1
 331.666666667 254.333333333 344.333333333 260 359 264 c 256
 373.666666667 268 389.666666667 270 407 270 c 0
 446.333333333 270 477.666666667 258 501 234 c 0
 524.333333333 209.333333333 536 177 536 137 c 0
 536 114.333333333 528.666666667 93.3333333333 514 74 c 0
 500 54 481 39.3333333333 457 30 c 1
 624 30 l 1
 624 307 l 1
 591.333333333 313 564.333333333 331 543 361 c 256
 521.666666667 391 511 426.333333333 511 467 c 0
 511 523 529 567.666666667 565 601 c 0
 600.333333333 635 647.666666667 652 707 652 c 0
 759 652 799.333333333 641.333333333 828 620 c 256
 856.666666667 598.666666667 871 568.666666667 871 530 c 0
 871 504 861.333333333 483 842 467 c 0
 823.333333333 451 798 443 766 443 c 0
 738.666666667 443 717 451.333333333 701 468 c 0
 684.333333333 484.666666667 676 506.666666667 676 534 c 0
 676 550.666666667 678.666666667 565.666666667 684 579 c 0
 688.666666667 592.333333333 695.666666667 603 705 611 c 1
 655.666666667 611 616 597.333333333 586 570 c 256
 556 542.666666667 541 506 541 460 c 0
 541 430 548.666666667 403.666666667 564 381 c 0
 580 357.666666667 600 343.333333333 624 338 c 1
 624 400 l 1
 699 400 l 1
 699 0 l 1
 699 0 l 1
EndSplineSet
Ligature2: "'abvs' Above Base Substitutions in Tamil lookup 2 subtable" uni0B99 uni0BC0
EndChar

StartChar: uni0B9A_uni0BC0
Encoding: 357 -1 102
Width: 499
GlyphClass: 2
Flags: HW
LayerCount: 2
Back
Fore
SplineSet
448 535 m 1
 448 554.333333333 443.666666667 570.666666667 435 584 c 256
 426.333333333 597.333333333 416 604 404 604 c 0
 391.333333333 604 380.333333333 597.333333333 371 584 c 0
 362.333333333 570.666666667 358 554.333333333 358 535 c 0
 358 517.666666667 362.333333333 502.666666667 371 490 c 0
 379.666666667 478 390.333333333 472 403 472 c 256
 415.666666667 472 426.333333333 478 435 490 c 0
 443.666666667 502.666666667 448 517.666666667 448 535 c 1
 448 535 l 1
488 185 m 1
 373 185 l 1
 373 137 l 2
 373 91 358.666666667 56.3333333333 330 33 c 256
 301.333333333 9.66666666667 258.666666667 -2 202 -2 c 0
 153.333333333 -2 114.333333333 10.6666666667 85 36 c 256
 55.6666666667 61.3333333333 41 95 41 137 c 0
 41 160.333333333 48.6666666667 179.333333333 64 194 c 0
 79.3333333333 208 100 215 126 215 c 1
 105.333333333 235 89.6666666667 259.333333333 79 288 c 0
 67.6666666667 317.333333333 62 348.666666667 62 382 c 0
 62 460 89.3333333333 524.333333333 144 575 c 0
 198 626.333333333 266.666666667 652 350 652 c 0
 402 652 444 641 476 619 c 0
 507.333333333 596.333333333 523 566.666666667 523 530 c 0
 523 503.333333333 512.666666667 482 492 466 c 0
 470.666666667 450 442.666666667 442 408 442 c 0
 386 442 367 451 351 469 c 0
 335.666666667 487 328 508.666666667 328 534 c 0
 328 548 330.333333333 561 335 573 c 256
 339.666666667 585 346.333333333 595.333333333 355 604 c 1
 344 604 l 2
 268 604 207 583.333333333 161 542 c 0
 115 501.333333333 92 446.666666667 92 378 c 0
 92 343.333333333 97 312.666666667 107 286 c 0
 117.666666667 260 132 241 150 229 c 1
 150 400 l 1
 488 400 l 1
 488 370 l 1
 373 370 l 1
 373 215 l 1
 488 215 l 1
 488 185 l 1
 488 185 l 1
298 215 m 1
 298 370 l 1
 180 370 l 1
 180 215 l 1
 298 215 l 1
 298 215 l 1
298 137 m 1
 298 185 l 1
 129 185 l 2
 111.666666667 185 97.6666666667 180.666666667 87 172 c 256
 76.3333333333 163.333333333 71 151.666666667 71 137 c 0
 71 104.333333333 83 78 107 58 c 256
 131 38 163 28 203 28 c 0
 231.666666667 28 254.666666667 38 272 58 c 256
 289.333333333 78 298 104.333333333 298 137 c 1
 298 137 l 1
EndSplineSet
Ligature2: "'abvs' Above Base Substitutions in Tamil lookup 2 subtable" uni0B9A uni0BC0
EndChar

StartChar: uni0B9C_uni0BC0
Encoding: 358 -1 103
Width: 718
GlyphClass: 2
Flags: HW
LayerCount: 2
Back
Fore
SplineSet
805 530 m 1
 805 503.333333333 796.333333333 481.666666667 779 465 c 0
 761.666666667 449 738.333333333 441 709 441 c 0
 680.333333333 441 657.666666667 449.666666667 641 467 c 0
 623.666666667 483.666666667 615 506.333333333 615 535 c 0
 615 551.666666667 617.333333333 566.666666667 622 580 c 256
 626.666666667 593.333333333 633.333333333 603.333333333 642 610 c 1
 604.666666667 610 572.666666667 597.666666667 546 573 c 0
 519.333333333 549 506 519.666666667 506 485 c 0
 506 456.333333333 515.333333333 429 534 403 c 1
 576 401 611.666666667 383 641 349 c 0
 669.666666667 315 684 274.666666667 684 228 c 0
 684 178.666666667 663.666666667 136.666666667 623 102 c 0
 583 67.3333333333 534.333333333 50 477 50 c 2
 215 50 l 2
 183 50 156 39 134 17 c 0
 111.333333333 -5.66666666667 100 -32.6666666667 100 -64 c 0
 100 -98 110.333333333 -127.333333333 131 -152 c 0
 151.666666667 -176 176.333333333 -188 205 -188 c 0
 224.333333333 -188 247 -179.333333333 273 -162 c 0
 299.666666667 -144.666666667 328 -120 358 -88 c 0
 385.333333333 -58.6666666667 415 -36 447 -20 c 0
 478.333333333 -4 509.666666667 4 541 4 c 0
 584.333333333 4 619 -6.66666666667 645 -28 c 256
 671 -49.3333333333 684 -78 684 -114 c 0
 684 -148.666666667 670.666666667 -176.333333333 644 -197 c 0
 618 -217.666666667 583 -228 539 -228 c 0
 515.666666667 -228 493.666666667 -224 473 -216 c 0
 452.333333333 -207.333333333 435 -195.666666667 421 -181 c 1
 436 -157 l 1
 451.333333333 -170.333333333 467.666666667 -180.333333333 485 -187 c 0
 503 -194.333333333 521 -198 539 -198 c 0
 558.333333333 -198 574.666666667 -189.666666667 588 -173 c 0
 602 -156.333333333 609 -136.333333333 609 -113 c 0
 609 -89 601.333333333 -68.3333333333 586 -51 c 0
 570.666666667 -34.3333333333 552.333333333 -26 531 -26 c 0
 485.666666667 -26 430.666666667 -58 366 -122 c 256
 301.333333333 -186 246.333333333 -218 201 -218 c 0
 147.666666667 -218 105 -204 73 -176 c 256
 41 -148 25 -110.666666667 25 -64 c 0
 25 -24 43 10 79 38 c 256
 115 66 158.666666667 80 210 80 c 2
 478 80 l 2
 514 80 545 94.6666666667 571 124 c 0
 596.333333333 153.333333333 609 189 609 231 c 0
 609 269 599.333333333 301.333333333 580 328 c 0
 561.333333333 354.666666667 538.333333333 368 511 368 c 0
 487 368 466.333333333 358.666666667 449 340 c 0
 431.666666667 320.666666667 423 297.666666667 423 271 c 2
 423 138 l 1
 348 138 l 1
 348 259 l 2
 348 289 332.333333333 314.666666667 301 336 c 0
 270.333333333 357.333333333 233 368 189 368 c 0
 154.333333333 368 125 357.666666667 101 337 c 0
 76.3333333333 316.333333333 64 291.333333333 64 262 c 0
 64 233.333333333 70.6666666667 208.666666667 84 188 c 256
 97.3333333333 167.333333333 113.666666667 156 133 154 c 1
 121.666666667 158 112.666666667 166.666666667 106 180 c 0
 99.3333333333 194 96 210.333333333 96 229 c 0
 96 258.333333333 104.333333333 281.666666667 121 299 c 256
 137.666666667 316.333333333 160 325 188 325 c 256
 216 325 238.333333333 316 255 298 c 0
 271.666666667 279.333333333 280 255 280 225 c 0
 280 195.666666667 269.666666667 172 249 154 c 0
 229 136 202 127 168 127 c 0
 127.333333333 127 95 139 71 163 c 0
 46.3333333333 187 34 218.666666667 34 258 c 0
 34 296.666666667 51 329.666666667 85 357 c 0
 118.333333333 384.333333333 159 398 207 398 c 0
 251 398 290 391 324 377 c 0
 357.333333333 363 381.666666667 344 397 320 c 1
 404.333333333 340.666666667 417.333333333 358.333333333 436 373 c 256
 454.666666667 387.666666667 476 397 500 401 c 1
 484 426.333333333 476 454 476 484 c 0
 476 530.666666667 493 570.666666667 527 604 c 256
 561 637.333333333 602 654 650 654 c 0
 701.333333333 654 740 643.666666667 766 623 c 0
 792 601.666666667 805 570.666666667 805 530 c 1
 805 530 l 1
730 535 m 1
 730 554.333333333 725.666666667 570.666666667 717 584 c 0
 708.333333333 598 698 605 686 605 c 0
 674.666666667 605 665 598.333333333 657 585 c 256
 649 571.666666667 645 555.333333333 645 536 c 0
 645 518 649 502.666666667 657 490 c 0
 664.333333333 477.333333333 673.666666667 471 685 471 c 0
 697.666666667 471 708.333333333 477.333333333 717 490 c 0
 725.666666667 502 730 517 730 535 c 1
 730 535 l 1
217 225 m 1
 217 244.333333333 212.666666667 260.666666667 204 274 c 0
 195.333333333 288 185 295 173 295 c 0
 160.333333333 295 149.333333333 288.666666667 140 276 c 0
 130.666666667 262.666666667 126 247 126 229 c 0
 126 209 130.333333333 192 139 178 c 256
 147.666666667 164 158 157 170 157 c 0
 182.666666667 157 193.666666667 163.666666667 203 177 c 256
 212.333333333 190.333333333 217 206.333333333 217 225 c 1
 217 225 l 1
EndSplineSet
Ligature2: "'abvs' Above Base Substitutions in Tamil lookup 2 subtable" uni0B9C uni0BC0
EndChar

